<?xml version="1.0" encoding="UTF-8" standalone="no"?>
<!DOCTYPE svg PUBLIC "-//W3C//DTD SVG 1.1//EN" "http://www.w3.org/Graphics/SVG/1.1/DTD/svg11.dtd">
<svg xmlns="http://www.w3.org/2000/svg" version="1.1" viewBox="0 0 300 250">
<g stroke-width="2.00" fill="none" stroke-linecap="butt">
<path stroke="#006958" vector-effect="non-scaling-stroke" d="
  M 193.52 89.85
  L 208.48 122.35"
/>
<path stroke="#006958" vector-effect="non-scaling-stroke" d="
  M 221.54 151.00
  L 236.46 183.75"
/>
<path stroke="#006958" vector-effect="non-scaling-stroke" d="
  M 193.87 183.44
  L 179.50 150.71"
/>
<path stroke="#006958" vector-effect="non-scaling-stroke" d="
  M 166.96 122.25
  L 152.99 90.33
  A 1.01 1.01 0.0 0 0 152.08 89.73
  L 111.25 89.71"
/>
<path stroke="#006958" vector-effect="non-scaling-stroke" d="
  M 137.90 122.28
  L 96.29 122.30"
/>
<path stroke="#006958" vector-effect="non-scaling-stroke" d="
  M 125.25 150.71
  L 83.50 150.71"
/>
<path stroke="#006958" vector-effect="non-scaling-stroke" d="
  M 110.48 183.64
  L 68.04 183.75"
/>
</g>
<path fill="#00384f" d="
  M 193.52 89.85
  L 208.48 122.35
  L 221.54 151.00
  L 236.46 183.75
  L 266.45 249.88
  L 223.38 250.02
  L 193.87 183.44
  L 179.50 150.71
  L 166.96 122.25
  L 152.99 90.33
  A 1.01 1.01 0.0 0 0 152.08 89.73
  L 111.25 89.71
  L 151.43 2.03
  Q 152.33 0.05 153.24 2.03
  L 193.52 89.85
  Z"
/>
<path fill="#009a61" d="
  M 166.96 122.25
  L 137.90 122.28
  L 96.29 122.30
  L 24.46 122.24
  A 1.00 0.98 71.6 0 1 23.66 121.83
  L 1.29 91.38
  Q 0.12 89.79 2.10 89.79
  L 111.25 89.71
  L 152.08 89.73
  A 1.01 1.01 0.0 0 1 152.99 90.33
  L 166.96 122.25
  Z"
/>
<path fill="#009a61" d="
  M 208.48 122.35
  L 193.52 89.85
  L 298.32 89.77
  Q 299.93 89.76 298.96 91.05
  L 275.86 121.86
  A 1.00 1.00 0.0 0 1 275.06 122.26
  L 208.48 122.35
  Z"
/>
<path fill="#00384f" d="
  M 137.90 122.28
  Q 130.99 136.19 125.25 150.71
  L 83.50 150.71
  L 96.29 122.30
  L 137.90 122.28
  Z"
/>
<path fill="#009a61" d="
  M 83.50 150.71
  L 125.25 150.71
  L 179.50 150.71
  L 193.87 183.44
  L 110.48 183.64
  L 68.04 183.75
  L 44.74 152.33
  Q 43.56 150.74 45.54 150.74
  L 83.50 150.71
  Z"
/>
<path fill="#009a61" d="
  M 236.46 183.75
  L 221.54 151.00
  L 259.38 150.83
  Q 260.99 150.82 260.03 152.11
  L 236.46 183.75
  Z"
/>
<path fill="#00384f" d="
  M 110.48 183.64
  L 81.87 248.89
  A 1.01 1.00 11.6 0 1 80.95 249.49
  L 39.53 249.52
  A 1.00 1.00 0.0 0 1 38.62 248.10
  L 68.04 183.75
  L 110.48 183.64
  Z"
/>
</svg>
