<?xml version="1.0" encoding="UTF-8" standalone="no"?>
<!DOCTYPE svg PUBLIC "-//W3C//DTD SVG 1.1//EN" "http://www.w3.org/Graphics/SVG/1.1/DTD/svg11.dtd">
<svg xmlns="http://www.w3.org/2000/svg" version="1.1" viewBox="0 0 179 201">
<g stroke-width="2.00" fill="none" stroke-linecap="butt">
<path stroke="#8f9518" vector-effect="non-scaling-stroke" d="
  M 51.44 30.35
  Q 51.16 30.11 50.94 29.80
  C 49.75 28.18 50.50 9.81 50.49 6.50
  A 1.00 1.00 0.0 0 0 49.49 5.50
  L 48.25 5.50
  A 1.00 0.99 -89.7 0 0 47.25 6.50
  L 47.25 24.65
  Q 47.25 26.07 46.04 25.34
  Q 45.28 24.88 45.28 23.92
  Q 45.24 15.23 45.24 6.50
  A 1.00 1.00 0.0 0 0 44.24 5.50
  L 43.00 5.50
  A 1.00 1.00 0.0 0 0 42.00 6.50
  L 42.00 32.91
  A 0.99 0.98 -68.2 0 0 42.30 33.62
  L 59.64 50.65
  Q 61.00 51.98 61.00 50.07
  L 61.00 6.50
  A 1.00 1.00 0.0 0 0 60.00 5.50
  L 58.75 5.50
  A 1.00 1.00 0.0 0 0 57.75 6.50
  L 57.75 34.88
  Q 57.75 36.35 56.52 35.55
  Q 55.74 35.05 55.75 33.99
  Q 55.76 20.26 55.74 6.50
  A 1.00 1.00 0.0 0 0 54.74 5.50
  L 53.50 5.50
  A 1.00 1.00 0.0 0 0 52.50 6.50
  L 52.50 29.86
  Q 52.50 31.25 51.44 30.35"
/>
<path stroke="#8f9518" vector-effect="non-scaling-stroke" d="
  M 76.75 24.26
  L 76.75 6.50
  A 1.00 1.00 0.0 0 0 75.75 5.50
  L 74.76 5.50
  A 1.00 1.00 0.0 0 0 73.76 6.50
  C 73.75 9.72 74.47 28.19 73.35 29.72
  Q 73.08 30.09 72.74 30.32
  Q 71.49 31.16 71.49 29.65
  L 71.50 6.50
  A 1.00 1.00 0.0 0 0 70.50 5.50
  L 69.50 5.50
  A 1.00 1.00 0.0 0 0 68.50 6.50
  C 68.51 10.19 69.27 33.34 68.02 34.89
  Q 67.82 35.13 67.59 35.34
  Q 66.25 36.59 66.25 34.76
  L 66.25 6.50
  A 1.00 1.00 0.0 0 0 65.25 5.50
  L 64.25 5.50
  A 1.00 1.00 0.0 0 0 63.25 6.50
  L 63.25 49.88
  Q 63.25 51.79 64.61 50.45
  L 81.70 33.69
  A 0.99 0.98 68.2 0 0 82.00 32.98
  L 82.00 6.50
  A 1.00 1.00 0.0 0 0 81.00 5.50
  L 80.01 5.50
  A 1.00 1.00 0.0 0 0 79.01 6.50
  Q 79.01 15.14 78.97 23.67
  Q 78.97 24.49 78.43 24.99
  Q 76.75 26.57 76.75 24.26"
/>
<path stroke="#8faf97" vector-effect="non-scaling-stroke" d="
  M 154.74 152.54
  C 131.60 189.94 81.02 200.26 45.07 175.21
  C 2.83 145.78 0.56 86.59 38.62 52.67
  A 1.01 0.97 -21.5 0 0 38.96 51.93
  L 38.99 46.77
  Q 39.01 44.68 37.37 45.98
  Q 24.69 56.06 16.96 69.48
  C -22.09 137.30 44.73 216.38 117.81 189.82
  C 179.89 167.26 191.50 84.20 139.41 44.98
  Q 116.28 27.56 85.98 28.01
  A 1.00 0.99 89.7 0 0 85.00 29.01
  L 85.00 32.94
  A 0.99 0.99 0.0 0 0 86.01 33.93
  Q 116.05 33.56 138.17 51.70
  C 168.40 76.49 175.24 119.41 154.74 152.54"
/>
<path stroke="#8f9518" vector-effect="non-scaling-stroke" d="
  M 48.86 43.14
  Q 45.99 40.40 43.37 37.71
  Q 42.00 36.29 42.00 38.26
  L 42.00 48.15
  A 0.99 0.98 -68.2 0 0 42.30 48.86
  L 59.64 65.95
  Q 61.00 67.30 61.00 65.38
  L 61.00 55.45
  A 0.99 0.99 0.0 0 0 60.71 54.75
  Q 54.87 48.86 48.86 43.14"
/>
<path stroke="#8f9518" vector-effect="non-scaling-stroke" d="
  M 63.34 54.72
  A 0.31 0.31 0.0 0 0 63.25 54.94
  L 63.25 66.30
  A 0.31 0.31 0.0 0 0 63.78 66.52
  L 81.91 48.75
  A 0.31 0.31 0.0 0 0 82.00 48.53
  L 82.00 37.20
  A 0.31 0.31 0.0 0 0 81.47 36.98
  L 63.34 54.72"
/>
<path stroke="#8f9518" vector-effect="non-scaling-stroke" d="
  M 49.67 59.08
  Q 46.66 56.23 43.70 53.33
  Q 42.00 51.67 42.00 54.05
  L 42.00 63.43
  A 0.99 0.98 -68.2 0 0 42.30 64.14
  L 59.64 81.20
  Q 61.00 82.54 61.00 80.63
  L 61.00 70.87
  A 1.00 0.96 -67.8 0 0 60.73 70.19
  Q 55.36 64.47 49.67 59.08"
/>
<path stroke="#8f9518" vector-effect="non-scaling-stroke" d="
  M 63.34 69.98
  A 0.31 0.31 0.0 0 0 63.25 70.20
  L 63.25 81.56
  A 0.31 0.31 0.0 0 0 63.78 81.78
  L 81.91 64.03
  A 0.31 0.31 0.0 0 0 82.00 63.81
  L 82.00 52.45
  A 0.31 0.31 0.0 0 0 81.47 52.23
  L 63.34 69.98"
/>
<path stroke="#8f9518" vector-effect="non-scaling-stroke" d="
  M 50.91 75.58
  Q 46.89 71.84 43.38 68.16
  Q 42.00 66.71 42.00 68.71
  L 42.00 78.71
  A 1.03 1.01 22.8 0 0 42.30 79.43
  L 59.29 96.11
  Q 60.99 97.77 60.99 95.39
  L 61.01 86.18
  A 1.01 0.99 24.0 0 0 60.74 85.50
  Q 56.01 80.34 50.91 75.58"
/>
<path stroke="#8f9518" vector-effect="non-scaling-stroke" d="
  M 81.93 79.27
  A 0.31 0.31 0.0 0 0 82.02 79.05
  L 81.96 67.74
  A 0.31 0.31 0.0 0 0 81.44 67.52
  L 63.34 85.28
  A 0.31 0.31 0.0 0 0 63.25 85.50
  L 63.25 96.82
  A 0.31 0.31 0.0 0 0 63.78 97.04
  L 81.93 79.27"
/>
<path stroke="#8f9518" vector-effect="non-scaling-stroke" d="
  M 108.73 87.17
  Q 110.26 81.83 107.38 77.89
  C 100.09 67.94 85.32 77.10 90.89 88.64
  A 0.99 0.97 -40.0 0 1 90.79 89.67
  Q 89.11 91.91 90.80 93.99
  A 1.02 1.00 -50.8 0 1 90.90 95.09
  C 85.07 106.09 99.63 115.48 107.29 105.94
  Q 110.52 101.93 108.54 96.33
  A 1.00 1.00 0.0 0 1 109.48 95.00
  L 140.45 95.00
  A 0.52 0.51 2.0 0 1 140.97 95.55
  L 140.94 95.83
  A 0.99 0.99 0.0 0 1 139.83 96.74
  Q 136.89 96.38 137.79 99.30
  A 1.00 1.00 0.0 0 0 138.95 99.98
  Q 141.50 99.45 141.00 101.95
  A 1.00 1.00 0.0 0 1 140.02 102.75
  L 138.75 102.75
  A 1.00 1.00 0.0 0 0 137.75 103.75
  L 137.75 107.14
  A 1.00 1.00 0.0 0 0 138.38 108.07
  Q 141.20 109.16 141.30 106.95
  A 1.00 1.00 0.0 0 1 142.30 106.00
  L 144.93 106.00
  A 1.01 1.00 86.0 0 1 145.92 106.87
  Q 146.23 109.14 148.87 108.09
  A 1.00 1.00 0.0 0 0 149.50 107.16
  L 149.50 103.75
  A 1.00 1.00 0.0 0 0 148.50 102.75
  L 147.26 102.75
  A 1.01 1.00 -7.5 0 1 146.29 102.01
  Q 145.56 99.32 148.22 100.03
  A 1.01 0.99 16.3 0 0 149.43 99.38
  Q 150.42 96.39 147.43 96.74
  A 1.00 1.00 0.0 0 1 146.33 95.54
  L 146.40 95.20
  Q 146.66 93.99 151.26 94.96
  C 156.29 96.01 156.93 88.66 152.00 88.65
  Q 130.84 88.56 109.69 88.45
  A 1.01 1.01 0.0 0 1 108.73 87.17"
/>
<path stroke="#8f9518" vector-effect="non-scaling-stroke" d="
  M 47.07 86.93
  Q 45.11 85.06 43.39 83.19
  Q 42.00 81.69 42.00 83.74
  L 42.00 94.29
  A 0.99 0.98 -68.2 0 0 42.30 95.00
  L 59.29 111.68
  Q 60.99 113.35 60.99 110.97
  L 61.00 100.88
  A 1.02 0.98 -68.2 0 0 60.71 100.17
  Q 53.97 93.47 47.07 86.93"
/>
<path stroke="#8f9518" vector-effect="non-scaling-stroke" d="
  M 82.00 82.81
  A 0.38 0.38 0.0 0 0 81.35 82.53
  L 63.38 100.17
  A 0.38 0.38 0.0 0 0 63.27 100.44
  L 63.20 112.36
  A 0.38 0.38 0.0 0 0 63.85 112.63
  L 81.89 94.88
  A 0.38 0.38 0.0 0 0 82.00 94.61
  L 82.00 82.81"
/>
<path stroke="#8faf97" vector-effect="non-scaling-stroke" d="
  M 40.58 124.24
  Q 47.73 131.43 54.90 138.60
  Q 56.99 140.68 58.52 143.17
  Q 59.98 145.53 60.00 142.75
  Q 60.04 138.35 59.99 133.89
  C 59.92 126.11 58.77 120.08 53.51 115.00
  Q 36.83 98.88 33.42 95.32
  Q 29.60 91.35 26.80 85.86
  Q 25.40 83.12 25.29 86.20
  Q 25.08 92.15 25.44 98.03
  C 26.20 110.07 31.32 114.93 40.58 124.24"
/>
<path stroke="#8faf97" vector-effect="non-scaling-stroke" d="
  M 35.75 149.67
  C 41.85 155.36 47.65 161.31 53.59 167.15
  Q 56.47 169.99 58.49 173.70
  Q 59.97 176.40 60.00 173.33
  Q 60.06 166.38 59.92 159.06
  C 59.80 152.80 56.40 147.96 51.60 143.24
  Q 42.06 133.86 32.55 124.45
  Q 29.89 121.82 26.74 116.74
  Q 25.40 114.57 25.26 117.12
  Q 24.83 125.37 25.78 131.24
  Q 27.50 141.98 35.75 149.67"
/>
<path stroke="#8faf97" vector-effect="non-scaling-stroke" d="
  M 87.73 169.84
  L 87.76 183.73
  A 1.00 1.00 0.0 0 0 88.74 184.73
  L 90.25 184.76
  A 1.00 1.00 0.0 0 0 91.26 183.75
  Q 91.21 156.65 91.36 129.57
  C 91.39 122.63 98.14 122.53 103.50 123.21
  Q 108.76 123.88 108.97 129.28
  Q 109.08 132.13 108.98 145.51
  A 1.00 1.00 0.0 0 1 107.98 146.50
  L 103.00 146.50
  A 1.00 1.00 0.0 0 1 102.00 145.50
  L 102.00 130.50
  A 1.00 1.00 0.0 0 0 101.00 129.50
  L 99.50 129.50
  A 1.00 1.00 0.0 0 0 98.50 130.50
  L 98.50 183.13
  A 1.01 1.00 -5.3 0 0 99.69 184.11
  L 101.19 183.82
  A 1.00 0.99 84.8 0 0 102.00 182.84
  L 102.00 151.00
  A 1.00 1.00 0.0 0 1 103.00 150.00
  L 108.00 150.00
  A 1.00 1.00 0.0 0 1 109.00 151.00
  L 109.00 180.75
  A 1.00 1.00 0.0 0 0 110.30 181.71
  L 113.06 180.84
  A 1.01 1.00 81.4 0 0 113.76 179.88
  Q 113.68 165.53 113.84 151.18
  Q 113.89 146.40 117.47 144.32
  A 0.99 0.99 0.0 0 0 117.95 143.28
  L 114.60 124.93
  A 1.00 1.00 0.0 0 1 115.58 123.75
  L 120.60 123.75
  A 0.99 0.99 0.0 0 1 121.59 124.69
  Q 122.20 134.91 122.76 145.15
  C 122.83 146.46 123.99 146.21 124.05 145.08
  Q 124.63 134.88 125.25 124.69
  A 0.99 0.99 0.0 0 1 126.24 123.75
  L 131.62 123.75
  A 1.00 1.00 0.0 0 1 132.60 124.95
  L 128.80 143.24
  A 1.00 1.00 0.0 0 0 129.34 144.33
  Q 132.94 146.13 132.95 150.08
  Q 132.99 159.09 133.04 168.20
  Q 133.05 170.32 134.68 168.97
  L 139.14 165.27
  A 1.00 1.00 0.0 0 0 139.50 164.50
  L 139.50 124.50
  A 1.00 1.00 0.0 0 1 140.50 123.50
  L 160.54 123.50
  A 1.01 1.00 -86.0 0 0 161.53 122.63
  L 161.70 121.39
  A 1.00 1.00 0.0 0 0 160.71 120.25
  L 110.61 120.25
  A 0.42 0.42 0.0 0 0 110.20 120.74
  L 110.26 121.06
  Q 110.58 122.72 109.24 121.68
  Q 107.82 120.58 106.75 120.25
  Q 102.12 118.83 95.99 119.73
  Q 91.66 120.35 89.41 123.72
  A 1.00 0.99 -44.6 0 1 87.75 123.71
  Q 84.88 119.33 78.98 119.31
  Q 68.32 119.27 64.99 119.29
  A 1.00 1.00 0.0 0 0 64.00 120.29
  L 64.00 179.88
  A 1.00 1.00 0.0 0 0 64.72 180.84
  L 66.22 181.28
  A 1.00 1.00 0.0 0 0 67.50 180.32
  L 67.50 123.78
  A 1.00 1.00 0.0 0 1 68.47 122.78
  Q 75.03 122.60 80.08 122.87
  C 83.63 123.07 85.34 125.37 85.48 128.92
  Q 86.12 145.49 85.54 162.06
  C 85.46 164.37 84.82 166.91 82.71 167.75
  Q 80.04 168.82 75.81 168.58
  A 1.00 1.00 0.0 0 0 74.75 169.58
  L 74.75 182.59
  A 1.01 1.00 6.1 0 0 75.55 183.57
  L 77.04 183.88
  A 1.00 1.00 0.0 0 0 78.25 182.90
  L 78.25 172.94
  A 1.00 1.00 0.0 0 1 79.23 171.94
  Q 83.39 171.84 86.40 169.24
  Q 87.72 168.10 87.73 169.84"
/>
<path stroke="#8faf97" vector-effect="non-scaling-stroke" d="
  M 78.25 129.32
  A 0.31 0.31 0.0 0 0 77.94 129.01
  L 75.06 129.01
  A 0.31 0.31 0.0 0 0 74.75 129.32
  L 74.75 161.94
  A 0.31 0.31 0.0 0 0 75.06 162.25
  L 77.94 162.25
  A 0.31 0.31 0.0 0 0 78.25 161.94
  L 78.25 129.32"
/>
<path stroke="#8faf97" vector-effect="non-scaling-stroke" d="
  M 154.19 132.56
  Q 155.82 132.73 157.72 133.73
  A 1.00 1.00 0.0 0 0 159.14 133.14
  L 159.95 130.55
  A 1.00 1.00 0.0 0 0 158.99 129.25
  L 148.75 129.25
  A 1.00 1.00 0.0 0 0 147.75 130.25
  L 147.75 131.48
  A 1.00 1.00 0.0 0 0 148.76 132.48
  Q 153.17 132.45 154.19 132.56"
/>
<path stroke="#8faf97" vector-effect="non-scaling-stroke" d="
  M 149.57 153.01
  Q 150.22 152.07 150.79 151.12
  C 152.50 148.27 151.76 142.56 151.73 139.24
  A 1.00 1.00 0.0 0 0 150.73 138.25
  L 148.75 138.25
  A 1.00 1.00 0.0 0 0 147.75 139.25
  L 147.75 152.44
  Q 147.75 155.64 149.57 153.01"
/>
<path stroke="#8faf97" vector-effect="non-scaling-stroke" d="
  M 121.50 176.76
  A 0.38 0.38 0.0 0 0 122.07 177.09
  L 125.06 175.42
  A 0.38 0.38 0.0 0 0 125.25 175.09
  L 125.25 150.38
  A 0.38 0.38 0.0 0 0 124.87 150.00
  L 121.88 150.00
  A 0.38 0.38 0.0 0 0 121.50 150.38
  L 121.50 176.76"
/>
<path stroke="#8f9518" vector-effect="non-scaling-stroke" d="
  M 96.35 89.23
  Q 94.29 91.88 96.37 94.42
  A 1.01 1.01 0.0 0 1 96.36 95.71
  Q 94.42 97.97 94.75 100.57
  C 95.72 108.27 107.04 104.40 103.71 97.56
  C 102.13 94.31 101.38 92.25 102.85 88.61
  C 108.86 73.62 88.68 77.90 96.36 88.01
  A 1.00 0.99 -44.8 0 1 96.35 89.23"
/>
<path stroke="#8faf97" vector-effect="non-scaling-stroke" d="
  M 132.73 143.11
  L 133.84 144.07
  Q 135.50 145.51 135.50 143.32
  L 135.50 134.54
  Q 135.50 126.22 133.91 134.39
  L 132.41 142.16
  A 1.02 1.00 -64.0 0 0 132.73 143.11"
/>
</g>
<path fill="#1f5e2f" d="
  M 36.47 0.00
  L 87.56 0.00
  L 87.78 21.24
  A 1.00 1.00 0.0 0 0 88.77 22.23
  Q 118.14 22.55 141.16 39.11
  C 180.79 67.63 189.76 122.39 162.34 162.33
  C 139.04 196.26 94.01 209.82 55.74 194.23
  C 24.00 181.29 2.90 152.10 0.00 117.69
  L 0.00 104.94
  Q 3.88 64.35 35.85 39.81
  A 1.03 1.02 -18.3 0 0 36.25 39.02
  L 36.47 0.00
  Z
  M 51.44 30.35
  Q 51.16 30.11 50.94 29.80
  C 49.75 28.18 50.50 9.81 50.49 6.50
  A 1.00 1.00 0.0 0 0 49.49 5.50
  L 48.25 5.50
  A 1.00 0.99 -89.7 0 0 47.25 6.50
  L 47.25 24.65
  Q 47.25 26.07 46.04 25.34
  Q 45.28 24.88 45.28 23.92
  Q 45.24 15.23 45.24 6.50
  A 1.00 1.00 0.0 0 0 44.24 5.50
  L 43.00 5.50
  A 1.00 1.00 0.0 0 0 42.00 6.50
  L 42.00 32.91
  A 0.99 0.98 -68.2 0 0 42.30 33.62
  L 59.64 50.65
  Q 61.00 51.98 61.00 50.07
  L 61.00 6.50
  A 1.00 1.00 0.0 0 0 60.00 5.50
  L 58.75 5.50
  A 1.00 1.00 0.0 0 0 57.75 6.50
  L 57.75 34.88
  Q 57.75 36.35 56.52 35.55
  Q 55.74 35.05 55.75 33.99
  Q 55.76 20.26 55.74 6.50
  A 1.00 1.00 0.0 0 0 54.74 5.50
  L 53.50 5.50
  A 1.00 1.00 0.0 0 0 52.50 6.50
  L 52.50 29.86
  Q 52.50 31.25 51.44 30.35
  Z
  M 76.75 24.26
  L 76.75 6.50
  A 1.00 1.00 0.0 0 0 75.75 5.50
  L 74.76 5.50
  A 1.00 1.00 0.0 0 0 73.76 6.50
  C 73.75 9.72 74.47 28.19 73.35 29.72
  Q 73.08 30.09 72.74 30.32
  Q 71.49 31.16 71.49 29.65
  L 71.50 6.50
  A 1.00 1.00 0.0 0 0 70.50 5.50
  L 69.50 5.50
  A 1.00 1.00 0.0 0 0 68.50 6.50
  C 68.51 10.19 69.27 33.34 68.02 34.89
  Q 67.82 35.13 67.59 35.34
  Q 66.25 36.59 66.25 34.76
  L 66.25 6.50
  A 1.00 1.00 0.0 0 0 65.25 5.50
  L 64.25 5.50
  A 1.00 1.00 0.0 0 0 63.25 6.50
  L 63.25 49.88
  Q 63.25 51.79 64.61 50.45
  L 81.70 33.69
  A 0.99 0.98 68.2 0 0 82.00 32.98
  L 82.00 6.50
  A 1.00 1.00 0.0 0 0 81.00 5.50
  L 80.01 5.50
  A 1.00 1.00 0.0 0 0 79.01 6.50
  Q 79.01 15.14 78.97 23.67
  Q 78.97 24.49 78.43 24.99
  Q 76.75 26.57 76.75 24.26
  Z
  M 154.74 152.54
  C 131.60 189.94 81.02 200.26 45.07 175.21
  C 2.83 145.78 0.56 86.59 38.62 52.67
  A 1.01 0.97 -21.5 0 0 38.96 51.93
  L 38.99 46.77
  Q 39.01 44.68 37.37 45.98
  Q 24.69 56.06 16.96 69.48
  C -22.09 137.30 44.73 216.38 117.81 189.82
  C 179.89 167.26 191.50 84.20 139.41 44.98
  Q 116.28 27.56 85.98 28.01
  A 1.00 0.99 89.7 0 0 85.00 29.01
  L 85.00 32.94
  A 0.99 0.99 0.0 0 0 86.01 33.93
  Q 116.05 33.56 138.17 51.70
  C 168.40 76.49 175.24 119.41 154.74 152.54
  Z
  M 48.86 43.14
  Q 45.99 40.40 43.37 37.71
  Q 42.00 36.29 42.00 38.26
  L 42.00 48.15
  A 0.99 0.98 -68.2 0 0 42.30 48.86
  L 59.64 65.95
  Q 61.00 67.30 61.00 65.38
  L 61.00 55.45
  A 0.99 0.99 0.0 0 0 60.71 54.75
  Q 54.87 48.86 48.86 43.14
  Z
  M 63.34 54.72
  A 0.31 0.31 0.0 0 0 63.25 54.94
  L 63.25 66.30
  A 0.31 0.31 0.0 0 0 63.78 66.52
  L 81.91 48.75
  A 0.31 0.31 0.0 0 0 82.00 48.53
  L 82.00 37.20
  A 0.31 0.31 0.0 0 0 81.47 36.98
  L 63.34 54.72
  Z
  M 49.67 59.08
  Q 46.66 56.23 43.70 53.33
  Q 42.00 51.67 42.00 54.05
  L 42.00 63.43
  A 0.99 0.98 -68.2 0 0 42.30 64.14
  L 59.64 81.20
  Q 61.00 82.54 61.00 80.63
  L 61.00 70.87
  A 1.00 0.96 -67.8 0 0 60.73 70.19
  Q 55.36 64.47 49.67 59.08
  Z
  M 63.34 69.98
  A 0.31 0.31 0.0 0 0 63.25 70.20
  L 63.25 81.56
  A 0.31 0.31 0.0 0 0 63.78 81.78
  L 81.91 64.03
  A 0.31 0.31 0.0 0 0 82.00 63.81
  L 82.00 52.45
  A 0.31 0.31 0.0 0 0 81.47 52.23
  L 63.34 69.98
  Z
  M 50.91 75.58
  Q 46.89 71.84 43.38 68.16
  Q 42.00 66.71 42.00 68.71
  L 42.00 78.71
  A 1.03 1.01 22.8 0 0 42.30 79.43
  L 59.29 96.11
  Q 60.99 97.77 60.99 95.39
  L 61.01 86.18
  A 1.01 0.99 24.0 0 0 60.74 85.50
  Q 56.01 80.34 50.91 75.58
  Z
  M 81.93 79.27
  A 0.31 0.31 0.0 0 0 82.02 79.05
  L 81.96 67.74
  A 0.31 0.31 0.0 0 0 81.44 67.52
  L 63.34 85.28
  A 0.31 0.31 0.0 0 0 63.25 85.50
  L 63.25 96.82
  A 0.31 0.31 0.0 0 0 63.78 97.04
  L 81.93 79.27
  Z
  M 108.73 87.17
  Q 110.26 81.83 107.38 77.89
  C 100.09 67.94 85.32 77.10 90.89 88.64
  A 0.99 0.97 -40.0 0 1 90.79 89.67
  Q 89.11 91.91 90.80 93.99
  A 1.02 1.00 -50.8 0 1 90.90 95.09
  C 85.07 106.09 99.63 115.48 107.29 105.94
  Q 110.52 101.93 108.54 96.33
  A 1.00 1.00 0.0 0 1 109.48 95.00
  L 140.45 95.00
  A 0.52 0.51 2.0 0 1 140.97 95.55
  L 140.94 95.83
  A 0.99 0.99 0.0 0 1 139.83 96.74
  Q 136.89 96.38 137.79 99.30
  A 1.00 1.00 0.0 0 0 138.95 99.98
  Q 141.50 99.45 141.00 101.95
  A 1.00 1.00 0.0 0 1 140.02 102.75
  L 138.75 102.75
  A 1.00 1.00 0.0 0 0 137.75 103.75
  L 137.75 107.14
  A 1.00 1.00 0.0 0 0 138.38 108.07
  Q 141.20 109.16 141.30 106.95
  A 1.00 1.00 0.0 0 1 142.30 106.00
  L 144.93 106.00
  A 1.01 1.00 86.0 0 1 145.92 106.87
  Q 146.23 109.14 148.87 108.09
  A 1.00 1.00 0.0 0 0 149.50 107.16
  L 149.50 103.75
  A 1.00 1.00 0.0 0 0 148.50 102.75
  L 147.26 102.75
  A 1.01 1.00 -7.5 0 1 146.29 102.01
  Q 145.56 99.32 148.22 100.03
  A 1.01 0.99 16.3 0 0 149.43 99.38
  Q 150.42 96.39 147.43 96.74
  A 1.00 1.00 0.0 0 1 146.33 95.54
  L 146.40 95.20
  Q 146.66 93.99 151.26 94.96
  C 156.29 96.01 156.93 88.66 152.00 88.65
  Q 130.84 88.56 109.69 88.45
  A 1.01 1.01 0.0 0 1 108.73 87.17
  Z
  M 47.07 86.93
  Q 45.11 85.06 43.39 83.19
  Q 42.00 81.69 42.00 83.74
  L 42.00 94.29
  A 0.99 0.98 -68.2 0 0 42.30 95.00
  L 59.29 111.68
  Q 60.99 113.35 60.99 110.97
  L 61.00 100.88
  A 1.02 0.98 -68.2 0 0 60.71 100.17
  Q 53.97 93.47 47.07 86.93
  Z
  M 82.00 82.81
  A 0.38 0.38 0.0 0 0 81.35 82.53
  L 63.38 100.17
  A 0.38 0.38 0.0 0 0 63.27 100.44
  L 63.20 112.36
  A 0.38 0.38 0.0 0 0 63.85 112.63
  L 81.89 94.88
  A 0.38 0.38 0.0 0 0 82.00 94.61
  L 82.00 82.81
  Z
  M 40.58 124.24
  Q 47.73 131.43 54.90 138.60
  Q 56.99 140.68 58.52 143.17
  Q 59.98 145.53 60.00 142.75
  Q 60.04 138.35 59.99 133.89
  C 59.92 126.11 58.77 120.08 53.51 115.00
  Q 36.83 98.88 33.42 95.32
  Q 29.60 91.35 26.80 85.86
  Q 25.40 83.12 25.29 86.20
  Q 25.08 92.15 25.44 98.03
  C 26.20 110.07 31.32 114.93 40.58 124.24
  Z
  M 35.75 149.67
  C 41.85 155.36 47.65 161.31 53.59 167.15
  Q 56.47 169.99 58.49 173.70
  Q 59.97 176.40 60.00 173.33
  Q 60.06 166.38 59.92 159.06
  C 59.80 152.80 56.40 147.96 51.60 143.24
  Q 42.06 133.86 32.55 124.45
  Q 29.89 121.82 26.74 116.74
  Q 25.40 114.57 25.26 117.12
  Q 24.83 125.37 25.78 131.24
  Q 27.50 141.98 35.75 149.67
  Z
  M 87.73 169.84
  L 87.76 183.73
  A 1.00 1.00 0.0 0 0 88.74 184.73
  L 90.25 184.76
  A 1.00 1.00 0.0 0 0 91.26 183.75
  Q 91.21 156.65 91.36 129.57
  C 91.39 122.63 98.14 122.53 103.50 123.21
  Q 108.76 123.88 108.97 129.28
  Q 109.08 132.13 108.98 145.51
  A 1.00 1.00 0.0 0 1 107.98 146.50
  L 103.00 146.50
  A 1.00 1.00 0.0 0 1 102.00 145.50
  L 102.00 130.50
  A 1.00 1.00 0.0 0 0 101.00 129.50
  L 99.50 129.50
  A 1.00 1.00 0.0 0 0 98.50 130.50
  L 98.50 183.13
  A 1.01 1.00 -5.3 0 0 99.69 184.11
  L 101.19 183.82
  A 1.00 0.99 84.8 0 0 102.00 182.84
  L 102.00 151.00
  A 1.00 1.00 0.0 0 1 103.00 150.00
  L 108.00 150.00
  A 1.00 1.00 0.0 0 1 109.00 151.00
  L 109.00 180.75
  A 1.00 1.00 0.0 0 0 110.30 181.71
  L 113.06 180.84
  A 1.01 1.00 81.4 0 0 113.76 179.88
  Q 113.68 165.53 113.84 151.18
  Q 113.89 146.40 117.47 144.32
  A 0.99 0.99 0.0 0 0 117.95 143.28
  L 114.60 124.93
  A 1.00 1.00 0.0 0 1 115.58 123.75
  L 120.60 123.75
  A 0.99 0.99 0.0 0 1 121.59 124.69
  Q 122.20 134.91 122.76 145.15
  C 122.83 146.46 123.99 146.21 124.05 145.08
  Q 124.63 134.88 125.25 124.69
  A 0.99 0.99 0.0 0 1 126.24 123.75
  L 131.62 123.75
  A 1.00 1.00 0.0 0 1 132.60 124.95
  L 128.80 143.24
  A 1.00 1.00 0.0 0 0 129.34 144.33
  Q 132.94 146.13 132.95 150.08
  Q 132.99 159.09 133.04 168.20
  Q 133.05 170.32 134.68 168.97
  L 139.14 165.27
  A 1.00 1.00 0.0 0 0 139.50 164.50
  L 139.50 124.50
  A 1.00 1.00 0.0 0 1 140.50 123.50
  L 160.54 123.50
  A 1.01 1.00 -86.0 0 0 161.53 122.63
  L 161.70 121.39
  A 1.00 1.00 0.0 0 0 160.71 120.25
  L 110.61 120.25
  A 0.42 0.42 0.0 0 0 110.20 120.74
  L 110.26 121.06
  Q 110.58 122.72 109.24 121.68
  Q 107.82 120.58 106.75 120.25
  Q 102.12 118.83 95.99 119.73
  Q 91.66 120.35 89.41 123.72
  A 1.00 0.99 -44.6 0 1 87.75 123.71
  Q 84.88 119.33 78.98 119.31
  Q 68.32 119.27 64.99 119.29
  A 1.00 1.00 0.0 0 0 64.00 120.29
  L 64.00 179.88
  A 1.00 1.00 0.0 0 0 64.72 180.84
  L 66.22 181.28
  A 1.00 1.00 0.0 0 0 67.50 180.32
  L 67.50 123.78
  A 1.00 1.00 0.0 0 1 68.47 122.78
  Q 75.03 122.60 80.08 122.87
  C 83.63 123.07 85.34 125.37 85.48 128.92
  Q 86.12 145.49 85.54 162.06
  C 85.46 164.37 84.82 166.91 82.71 167.75
  Q 80.04 168.82 75.81 168.58
  A 1.00 1.00 0.0 0 0 74.75 169.58
  L 74.75 182.59
  A 1.01 1.00 6.1 0 0 75.55 183.57
  L 77.04 183.88
  A 1.00 1.00 0.0 0 0 78.25 182.90
  L 78.25 172.94
  A 1.00 1.00 0.0 0 1 79.23 171.94
  Q 83.39 171.84 86.40 169.24
  Q 87.72 168.10 87.73 169.84
  Z
  M 78.25 129.32
  A 0.31 0.31 0.0 0 0 77.94 129.01
  L 75.06 129.01
  A 0.31 0.31 0.0 0 0 74.75 129.32
  L 74.75 161.94
  A 0.31 0.31 0.0 0 0 75.06 162.25
  L 77.94 162.25
  A 0.31 0.31 0.0 0 0 78.25 161.94
  L 78.25 129.32
  Z
  M 154.19 132.56
  Q 155.82 132.73 157.72 133.73
  A 1.00 1.00 0.0 0 0 159.14 133.14
  L 159.95 130.55
  A 1.00 1.00 0.0 0 0 158.99 129.25
  L 148.75 129.25
  A 1.00 1.00 0.0 0 0 147.75 130.25
  L 147.75 131.48
  A 1.00 1.00 0.0 0 0 148.76 132.48
  Q 153.17 132.45 154.19 132.56
  Z
  M 149.57 153.01
  Q 150.22 152.07 150.79 151.12
  C 152.50 148.27 151.76 142.56 151.73 139.24
  A 1.00 1.00 0.0 0 0 150.73 138.25
  L 148.75 138.25
  A 1.00 1.00 0.0 0 0 147.75 139.25
  L 147.75 152.44
  Q 147.75 155.64 149.57 153.01
  Z
  M 121.50 176.76
  A 0.38 0.38 0.0 0 0 122.07 177.09
  L 125.06 175.42
  A 0.38 0.38 0.0 0 0 125.25 175.09
  L 125.25 150.38
  A 0.38 0.38 0.0 0 0 124.87 150.00
  L 121.88 150.00
  A 0.38 0.38 0.0 0 0 121.50 150.38
  L 121.50 176.76
  Z"
/>
<path fill="#fecc00" d="
  M 52.50 29.86
  L 52.50 6.50
  A 1.00 1.00 0.0 0 1 53.50 5.50
  L 54.74 5.50
  A 1.00 1.00 0.0 0 1 55.74 6.50
  Q 55.76 20.26 55.75 33.99
  Q 55.74 35.05 56.52 35.55
  Q 57.75 36.35 57.75 34.88
  L 57.75 6.50
  A 1.00 1.00 0.0 0 1 58.75 5.50
  L 60.00 5.50
  A 1.00 1.00 0.0 0 1 61.00 6.50
  L 61.00 50.07
  Q 61.00 51.98 59.64 50.65
  L 42.30 33.62
  A 0.99 0.98 -68.2 0 1 42.00 32.91
  L 42.00 6.50
  A 1.00 1.00 0.0 0 1 43.00 5.50
  L 44.24 5.50
  A 1.00 1.00 0.0 0 1 45.24 6.50
  Q 45.24 15.23 45.28 23.92
  Q 45.28 24.88 46.04 25.34
  Q 47.25 26.07 47.25 24.65
  L 47.25 6.50
  A 1.00 0.99 -89.7 0 1 48.25 5.50
  L 49.49 5.50
  A 1.00 1.00 0.0 0 1 50.49 6.50
  C 50.50 9.81 49.75 28.18 50.94 29.80
  Q 51.16 30.11 51.44 30.35
  Q 52.50 31.25 52.50 29.86
  Z"
/>
<path fill="#fecc00" d="
  M 78.43 24.99
  Q 78.97 24.49 78.97 23.67
  Q 79.01 15.14 79.01 6.50
  A 1.00 1.00 0.0 0 1 80.01 5.50
  L 81.00 5.50
  A 1.00 1.00 0.0 0 1 82.00 6.50
  L 82.00 32.98
  A 0.99 0.98 68.2 0 1 81.70 33.69
  L 64.61 50.45
  Q 63.25 51.79 63.25 49.88
  L 63.25 6.50
  A 1.00 1.00 0.0 0 1 64.25 5.50
  L 65.25 5.50
  A 1.00 1.00 0.0 0 1 66.25 6.50
  L 66.25 34.76
  Q 66.25 36.59 67.59 35.34
  Q 67.82 35.13 68.02 34.89
  C 69.27 33.34 68.51 10.19 68.50 6.50
  A 1.00 1.00 0.0 0 1 69.50 5.50
  L 70.50 5.50
  A 1.00 1.00 0.0 0 1 71.50 6.50
  L 71.49 29.65
  Q 71.49 31.16 72.74 30.32
  Q 73.08 30.09 73.35 29.72
  C 74.47 28.19 73.75 9.72 73.76 6.50
  A 1.00 1.00 0.0 0 1 74.76 5.50
  L 75.75 5.50
  A 1.00 1.00 0.0 0 1 76.75 6.50
  L 76.75 24.26
  Q 76.75 26.57 78.43 24.99
  Z"
/>
<path fill="#ffffff" d="
  M 45.07 175.21
  C 81.02 200.26 131.60 189.94 154.74 152.54
  C 175.24 119.41 168.40 76.49 138.17 51.70
  Q 116.05 33.56 86.01 33.93
  A 0.99 0.99 0.0 0 1 85.00 32.94
  L 85.00 29.01
  A 1.00 0.99 89.7 0 1 85.98 28.01
  Q 116.28 27.56 139.41 44.98
  C 191.50 84.20 179.89 167.26 117.81 189.82
  C 44.73 216.38 -22.09 137.30 16.96 69.48
  Q 24.69 56.06 37.37 45.98
  Q 39.01 44.68 38.99 46.77
  L 38.96 51.93
  A 1.01 0.97 -21.5 0 1 38.62 52.67
  C 0.56 86.59 2.83 145.78 45.07 175.21
  Z"
/>
<path fill="#fecc00" d="
  M 48.86 43.14
  Q 54.87 48.86 60.71 54.75
  A 0.99 0.99 0.0 0 1 61.00 55.45
  L 61.00 65.38
  Q 61.00 67.30 59.64 65.95
  L 42.30 48.86
  A 0.99 0.98 -68.2 0 1 42.00 48.15
  L 42.00 38.26
  Q 42.00 36.29 43.37 37.71
  Q 45.99 40.40 48.86 43.14
  Z"
/>
<path fill="#fecc00" d="
  M 63.34 54.72
  L 81.47 36.98
  A 0.31 0.31 0.0 0 1 82.00 37.20
  L 82.00 48.53
  A 0.31 0.31 0.0 0 1 81.91 48.75
  L 63.78 66.52
  A 0.31 0.31 0.0 0 1 63.25 66.30
  L 63.25 54.94
  A 0.31 0.31 0.0 0 1 63.34 54.72
  Z"
/>
<path fill="#fecc00" d="
  M 49.67 59.08
  Q 55.36 64.47 60.73 70.19
  A 1.00 0.96 -67.8 0 1 61.00 70.87
  L 61.00 80.63
  Q 61.00 82.54 59.64 81.20
  L 42.30 64.14
  A 0.99 0.98 -68.2 0 1 42.00 63.43
  L 42.00 54.05
  Q 42.00 51.67 43.70 53.33
  Q 46.66 56.23 49.67 59.08
  Z"
/>
<path fill="#fecc00" d="
  M 63.34 69.98
  L 81.47 52.23
  A 0.31 0.31 0.0 0 1 82.00 52.45
  L 82.00 63.81
  A 0.31 0.31 0.0 0 1 81.91 64.03
  L 63.78 81.78
  A 0.31 0.31 0.0 0 1 63.25 81.56
  L 63.25 70.20
  A 0.31 0.31 0.0 0 1 63.34 69.98
  Z"
/>
<path fill="#fecc00" d="
  M 50.91 75.58
  Q 56.01 80.34 60.74 85.50
  A 1.01 0.99 24.0 0 1 61.01 86.18
  L 60.99 95.39
  Q 60.99 97.77 59.29 96.11
  L 42.30 79.43
  A 1.03 1.01 22.8 0 1 42.00 78.71
  L 42.00 68.71
  Q 42.00 66.71 43.38 68.16
  Q 46.89 71.84 50.91 75.58
  Z"
/>
<path fill="#fecc00" d="
  M 81.93 79.27
  L 63.78 97.04
  A 0.31 0.31 0.0 0 1 63.25 96.82
  L 63.25 85.50
  A 0.31 0.31 0.0 0 1 63.34 85.28
  L 81.44 67.52
  A 0.31 0.31 0.0 0 1 81.96 67.74
  L 82.02 79.05
  A 0.31 0.31 0.0 0 1 81.93 79.27
  Z"
/>
<path fill="#fecc00" d="
  M 109.69 88.45
  Q 130.84 88.56 152.00 88.65
  C 156.93 88.66 156.29 96.01 151.26 94.96
  Q 146.66 93.99 146.40 95.20
  L 146.33 95.54
  A 1.00 1.00 0.0 0 0 147.43 96.74
  Q 150.42 96.39 149.43 99.38
  A 1.01 0.99 16.3 0 1 148.22 100.03
  Q 145.56 99.32 146.29 102.01
  A 1.01 1.00 -7.5 0 0 147.26 102.75
  L 148.50 102.75
  A 1.00 1.00 0.0 0 1 149.50 103.75
  L 149.50 107.16
  A 1.00 1.00 0.0 0 1 148.87 108.09
  Q 146.23 109.14 145.92 106.87
  A 1.01 1.00 86.0 0 0 144.93 106.00
  L 142.30 106.00
  A 1.00 1.00 0.0 0 0 141.30 106.95
  Q 141.20 109.16 138.38 108.07
  A 1.00 1.00 0.0 0 1 137.75 107.14
  L 137.75 103.75
  A 1.00 1.00 0.0 0 1 138.75 102.75
  L 140.02 102.75
  A 1.00 1.00 0.0 0 0 141.00 101.95
  Q 141.50 99.45 138.95 99.98
  A 1.00 1.00 0.0 0 1 137.79 99.30
  Q 136.89 96.38 139.83 96.74
  A 0.99 0.99 0.0 0 0 140.94 95.83
  L 140.97 95.55
  A 0.52 0.51 2.0 0 0 140.45 95.00
  L 109.48 95.00
  A 1.00 1.00 0.0 0 0 108.54 96.33
  Q 110.52 101.93 107.29 105.94
  C 99.63 115.48 85.07 106.09 90.90 95.09
  A 1.02 1.00 -50.8 0 0 90.80 93.99
  Q 89.11 91.91 90.79 89.67
  A 0.99 0.97 -40.0 0 0 90.89 88.64
  C 85.32 77.10 100.09 67.94 107.38 77.89
  Q 110.26 81.83 108.73 87.17
  A 1.01 1.01 0.0 0 0 109.69 88.45
  Z
  M 96.35 89.23
  Q 94.29 91.88 96.37 94.42
  A 1.01 1.01 0.0 0 1 96.36 95.71
  Q 94.42 97.97 94.75 100.57
  C 95.72 108.27 107.04 104.40 103.71 97.56
  C 102.13 94.31 101.38 92.25 102.85 88.61
  C 108.86 73.62 88.68 77.90 96.36 88.01
  A 1.00 0.99 -44.8 0 1 96.35 89.23
  Z"
/>
<path fill="#1f5e2f" d="
  M 96.36 88.01
  C 88.68 77.90 108.86 73.62 102.85 88.61
  C 101.38 92.25 102.13 94.31 103.71 97.56
  C 107.04 104.40 95.72 108.27 94.75 100.57
  Q 94.42 97.97 96.36 95.71
  A 1.01 1.01 0.0 0 0 96.37 94.42
  Q 94.29 91.88 96.35 89.23
  A 1.00 0.99 -44.8 0 0 96.36 88.01
  Z"
/>
<path fill="#fecc00" d="
  M 47.07 86.93
  Q 53.97 93.47 60.71 100.17
  A 1.02 0.98 -68.2 0 1 61.00 100.88
  L 60.99 110.97
  Q 60.99 113.35 59.29 111.68
  L 42.30 95.00
  A 0.99 0.98 -68.2 0 1 42.00 94.29
  L 42.00 83.74
  Q 42.00 81.69 43.39 83.19
  Q 45.11 85.06 47.07 86.93
  Z"
/>
<path fill="#fecc00" d="
  M 82.00 82.81
  L 82.00 94.61
  A 0.38 0.38 0.0 0 1 81.89 94.88
  L 63.85 112.63
  A 0.38 0.38 0.0 0 1 63.20 112.36
  L 63.27 100.44
  A 0.38 0.38 0.0 0 1 63.38 100.17
  L 81.35 82.53
  A 0.38 0.38 0.0 0 1 82.00 82.81
  Z"
/>
<path fill="#ffffff" d="
  M 40.58 124.24
  C 31.32 114.93 26.20 110.07 25.44 98.03
  Q 25.08 92.15 25.29 86.20
  Q 25.40 83.12 26.80 85.86
  Q 29.60 91.35 33.42 95.32
  Q 36.83 98.88 53.51 115.00
  C 58.77 120.08 59.92 126.11 59.99 133.89
  Q 60.04 138.35 60.00 142.75
  Q 59.98 145.53 58.52 143.17
  Q 56.99 140.68 54.90 138.60
  Q 47.73 131.43 40.58 124.24
  Z"
/>
<path fill="#ffffff" d="
  M 35.75 149.67
  Q 27.50 141.98 25.78 131.24
  Q 24.83 125.37 25.26 117.12
  Q 25.40 114.57 26.74 116.74
  Q 29.89 121.82 32.55 124.45
  Q 42.06 133.86 51.60 143.24
  C 56.40 147.96 59.80 152.80 59.92 159.06
  Q 60.06 166.38 60.00 173.33
  Q 59.97 176.40 58.49 173.70
  Q 56.47 169.99 53.59 167.15
  C 47.65 161.31 41.85 155.36 35.75 149.67
  Z"
/>
<path fill="#ffffff" d="
  M 86.40 169.24
  Q 83.39 171.84 79.23 171.94
  A 1.00 1.00 0.0 0 0 78.25 172.94
  L 78.25 182.90
  A 1.00 1.00 0.0 0 1 77.04 183.88
  L 75.55 183.57
  A 1.01 1.00 6.1 0 1 74.75 182.59
  L 74.75 169.58
  A 1.00 1.00 0.0 0 1 75.81 168.58
  Q 80.04 168.82 82.71 167.75
  C 84.82 166.91 85.46 164.37 85.54 162.06
  Q 86.12 145.49 85.48 128.92
  C 85.34 125.37 83.63 123.07 80.08 122.87
  Q 75.03 122.60 68.47 122.78
  A 1.00 1.00 0.0 0 0 67.50 123.78
  L 67.50 180.32
  A 1.00 1.00 0.0 0 1 66.22 181.28
  L 64.72 180.84
  A 1.00 1.00 0.0 0 1 64.00 179.88
  L 64.00 120.29
  A 1.00 1.00 0.0 0 1 64.99 119.29
  Q 68.32 119.27 78.98 119.31
  Q 84.88 119.33 87.75 123.71
  A 1.00 0.99 -44.6 0 0 89.41 123.72
  Q 91.66 120.35 95.99 119.73
  Q 102.12 118.83 106.75 120.25
  Q 107.82 120.58 109.24 121.68
  Q 110.58 122.72 110.26 121.06
  L 110.20 120.74
  A 0.42 0.42 0.0 0 1 110.61 120.25
  L 160.71 120.25
  A 1.00 1.00 0.0 0 1 161.70 121.39
  L 161.53 122.63
  A 1.01 1.00 -86.0 0 1 160.54 123.50
  L 140.50 123.50
  A 1.00 1.00 0.0 0 0 139.50 124.50
  L 139.50 164.50
  A 1.00 1.00 0.0 0 1 139.14 165.27
  L 134.68 168.97
  Q 133.05 170.32 133.04 168.20
  Q 132.99 159.09 132.95 150.08
  Q 132.94 146.13 129.34 144.33
  A 1.00 1.00 0.0 0 1 128.80 143.24
  L 132.60 124.95
  A 1.00 1.00 0.0 0 0 131.62 123.75
  L 126.24 123.75
  A 0.99 0.99 0.0 0 0 125.25 124.69
  Q 124.63 134.88 124.05 145.08
  C 123.99 146.21 122.83 146.46 122.76 145.15
  Q 122.20 134.91 121.59 124.69
  A 0.99 0.99 0.0 0 0 120.60 123.75
  L 115.58 123.75
  A 1.00 1.00 0.0 0 0 114.60 124.93
  L 117.95 143.28
  A 0.99 0.99 0.0 0 1 117.47 144.32
  Q 113.89 146.40 113.84 151.18
  Q 113.68 165.53 113.76 179.88
  A 1.01 1.00 81.4 0 1 113.06 180.84
  L 110.30 181.71
  A 1.00 1.00 0.0 0 1 109.00 180.75
  L 109.00 151.00
  A 1.00 1.00 0.0 0 0 108.00 150.00
  L 103.00 150.00
  A 1.00 1.00 0.0 0 0 102.00 151.00
  L 102.00 182.84
  A 1.00 0.99 84.8 0 1 101.19 183.82
  L 99.69 184.11
  A 1.01 1.00 -5.3 0 1 98.50 183.13
  L 98.50 130.50
  A 1.00 1.00 0.0 0 1 99.50 129.50
  L 101.00 129.50
  A 1.00 1.00 0.0 0 1 102.00 130.50
  L 102.00 145.50
  A 1.00 1.00 0.0 0 0 103.00 146.50
  L 107.98 146.50
  A 1.00 1.00 0.0 0 0 108.98 145.51
  Q 109.08 132.13 108.97 129.28
  Q 108.76 123.88 103.50 123.21
  C 98.14 122.53 91.39 122.63 91.36 129.57
  Q 91.21 156.65 91.26 183.75
  A 1.00 1.00 0.0 0 1 90.25 184.76
  L 88.74 184.73
  A 1.00 1.00 0.0 0 1 87.76 183.73
  L 87.73 169.84
  Q 87.72 168.10 86.40 169.24
  Z
  M 132.73 143.11
  L 133.84 144.07
  Q 135.50 145.51 135.50 143.32
  L 135.50 134.54
  Q 135.50 126.22 133.91 134.39
  L 132.41 142.16
  A 1.02 1.00 -64.0 0 0 132.73 143.11
  Z"
/>
<path fill="#1f5e2f" d="
  M 132.73 143.11
  A 1.02 1.00 -64.0 0 1 132.41 142.16
  L 133.91 134.39
  Q 135.50 126.22 135.50 134.54
  L 135.50 143.32
  Q 135.50 145.51 133.84 144.07
  L 132.73 143.11
  Z"
/>
<rect fill="#ffffff" x="74.75" y="129.01" width="3.50" height="33.24" rx="0.31"/>
<path fill="#ffffff" d="
  M 154.19 132.56
  Q 153.17 132.45 148.76 132.48
  A 1.00 1.00 0.0 0 1 147.75 131.48
  L 147.75 130.25
  A 1.00 1.00 0.0 0 1 148.75 129.25
  L 158.99 129.25
  A 1.00 1.00 0.0 0 1 159.95 130.55
  L 159.14 133.14
  A 1.00 1.00 0.0 0 1 157.72 133.73
  Q 155.82 132.73 154.19 132.56
  Z"
/>
<path fill="#ffffff" d="
  M 149.57 153.01
  Q 147.75 155.64 147.75 152.44
  L 147.75 139.25
  A 1.00 1.00 0.0 0 1 148.75 138.25
  L 150.73 138.25
  A 1.00 1.00 0.0 0 1 151.73 139.24
  C 151.76 142.56 152.50 148.27 150.79 151.12
  Q 150.22 152.07 149.57 153.01
  Z"
/>
<path fill="#ffffff" d="
  M 121.50 176.76
  L 121.50 150.38
  A 0.38 0.38 0.0 0 1 121.88 150.00
  L 124.87 150.00
  A 0.38 0.38 0.0 0 1 125.25 150.38
  L 125.25 175.09
  A 0.38 0.38 0.0 0 1 125.06 175.42
  L 122.07 177.09
  A 0.38 0.38 0.0 0 1 121.50 176.76
  Z"
/>
</svg>
