<svg width="135" height="210" viewBox="0 0 135 210" fill="none" xmlns="http://www.w3.org/2000/svg">
  <path 
    d="M67.5161 1.52588e-05C81.827 1.52588e-05 86.3237 10.2502 90.0965 20.4843C91.6813 24.8302 128.87 126.529 129.988 129.581C130.286 130.433 130.085 131.83 128.774 132.336C127.454 132.835 108.132 140.337 107.062 140.739C105.992 141.149 104.794 140.554 104.407 139.486C104.005 138.434 95.985 116.262 95.084 113.788H39.9642C39.0955 116.262 30.9787 138.482 30.6167 139.486C30.2467 140.506 29.0963 141.197 27.9541 140.739C26.8118 140.289 7.41687 132.786 6.25849 132.336C5.14837 131.903 4.64158 130.642 5.0277 129.581C6.39524 125.773 43.0211 25.7058 44.8874 20.4843C48.5234 10.4028 53.173 1.52588e-05 67.5161 1.52588e-05ZM2.08348 181.973C0.925097 181.973 0 182.937 0 184.109V207.879C0 209.052 0.925097 210 2.08348 210H132.892C134.075 210 135 209.052 135 207.879V184.109C135 182.937 134.075 181.973 132.892 181.973H2.08348ZM67.3874 33.2086L48.7567 89.0785H86.3237L67.6287 33.2086H67.3874Z" 
    fill="#FF272C"
  />
</svg>
