<?xml version="1.0" encoding="UTF-8" standalone="no"?>
<!DOCTYPE svg PUBLIC "-//W3C//DTD SVG 1.1//EN" "http://www.w3.org/Graphics/SVG/1.1/DTD/svg11.dtd">
<svg xmlns="http://www.w3.org/2000/svg" version="1.1" viewBox="0 0 341 300">
<path fill="#147ac9" d="
  M 0.00 87.94
  L 0.00 83.44
  C 1.82 74.04 7.21 72.20 16.40 68.08
  Q 89.02 35.47 161.67 2.89
  C 168.36 -0.11 172.06 0.17 179.04 3.30
  Q 251.33 35.73 323.66 68.09
  C 332.06 71.85 337.44 73.50 339.61 81.39
  C 341.68 88.89 337.68 96.65 330.61 99.63
  Q 327.33 101.00 320.67 101.00
  Q 169.21 101.00 17.75 101.00
  Q 3.56 101.00 0.00 87.94
  Z"
/>
<path fill="#147ac9" d="
  M 305.94 300.00
  L 34.94 300.00
  C 12.54 297.87 14.76 268.03 38.03 269.00
  A 1.00 1.00 0.0 0 0 39.07 268.00
  L 38.70 131.00
  A 1.00 1.00 0.0 0 0 37.67 130.00
  Q 36.16 130.05 34.62 129.95
  C 23.44 129.24 24.58 114.76 36.54 114.76
  Q 169.59 114.73 302.63 114.76
  Q 306.67 114.76 308.60 115.64
  C 313.32 117.78 314.73 124.02 310.86 127.56
  Q 308.18 130.02 302.94 129.99
  A 1.55 1.55 0.0 0 0 301.39 131.68
  C 301.44 132.35 301.01 133.71 301.01 134.54
  Q 300.99 201.27 301.00 268.02
  A 1.00 1.00 0.0 0 0 302.04 269.02
  Q 317.16 268.50 320.48 281.81
  C 322.83 291.23 314.69 298.61 305.94 300.00
  Z
  M 116.1208 130.3310
  A 0.29 0.29 0.0 0 0 115.8313 130.0405
  L 69.5513 129.9597
  A 0.29 0.29 0.0 0 0 69.2608 130.2492
  L 69.0192 268.6690
  A 0.29 0.29 0.0 0 0 69.3087 268.9595
  L 115.5887 269.0403
  A 0.29 0.29 0.0 0 0 115.8792 268.7508
  L 116.1208 130.3310
  Z
  M 193.25 130.36
  A 0.35 0.35 0.0 0 0 192.90 130.01
  L 147.08 130.01
  A 0.35 0.35 0.0 0 0 146.73 130.36
  L 146.73 268.66
  A 0.35 0.35 0.0 0 0 147.08 269.01
  L 192.90 269.01
  A 0.35 0.35 0.0 0 0 193.25 268.66
  L 193.25 130.36
  Z
  M 270.50 130.26
  A 0.26 0.26 0.0 0 0 270.24 130.00
  L 224.22 130.00
  A 0.26 0.26 0.0 0 0 223.96 130.26
  L 223.96 268.74
  A 0.26 0.26 0.0 0 0 224.22 269.00
  L 270.24 269.00
  A 0.26 0.26 0.0 0 0 270.50 268.74
  L 270.50 130.26
  Z"
/>
</svg>
