<?xml version="1.0" encoding="UTF-8" standalone="no"?>
<!DOCTYPE svg PUBLIC "-//W3C//DTD SVG 1.1//EN" "http://www.w3.org/Graphics/SVG/1.1/DTD/svg11.dtd">
<svg xmlns="http://www.w3.org/2000/svg" version="1.1" viewBox="0 0 516 464">
<path fill="#daab6b" d="
  M 0.00 367.94
  L 0.00 356.19
  C 1.28 336.56 7.47 321.74 17.67 304.72
  Q 92.35 180.15 167.13 55.62
  Q 174.09 44.03 178.07 38.90
  C 217.85 -12.27 295.64 -13.04 336.55 37.74
  Q 340.84 43.07 347.62 54.36
  Q 423.92 181.35 500.09 308.42
  C 511.40 327.29 517.06 347.52 515.47 369.23
  C 511.48 423.43 467.37 463.48 412.79 463.49
  Q 256.14 463.51 99.50 463.50
  C 46.32 463.49 3.26 420.14 0.00 367.94
  Z
  M 73.01 322.62
  A 55.71 55.71 0.0 0 0 120.77 407.00
  L 435.03 407.00
  A 55.71 55.71 0.0 0 0 482.79 322.62
  L 325.66 60.93
  A 55.71 55.71 0.0 0 0 230.14 60.93
  L 73.01 322.62
  Z"
/>
<path fill="#daab6b" d="
  M 158.90 289.53
  L 263.36 115.54
  A 40.25 40.25 0.0 0 1 332.38 115.54
  L 436.84 289.53
  A 40.25 40.25 0.0 0 1 402.34 350.50
  L 193.40 350.50
  A 40.25 40.25 0.0 0 1 158.90 289.53
  Z
  M 236.57 270.22
  A 15.70 15.70 0.0 0 0 250.03 294.00
  L 386.15 294.00
  A 15.70 15.70 0.0 0 0 399.61 270.22
  L 331.55 156.86
  A 15.70 15.70 0.0 0 0 304.63 156.86
  L 236.57 270.22
  Z"
/>
</svg>
