<?xml version="1.0" encoding="UTF-8" standalone="no"?>
<!DOCTYPE svg PUBLIC "-//W3C//DTD SVG 1.1//EN" "http://www.w3.org/Graphics/SVG/1.1/DTD/svg11.dtd">
<svg xmlns="http://www.w3.org/2000/svg" version="1.1" viewBox="0 0 256 252">
<path fill="#fcae16" d="
  M 127.56 0.00
  L 128.31 0.00
  Q 167.95 35.16 206.92 71.07
  C 211.95 75.71 220.56 82.50 222.29 89.24
  Q 237.94 150.28 253.59 211.33
  C 254.15 213.54 255.80 216.72 255.71 219.95
  A 0.93 0.92 78.4 0 1 255.19 220.75
  L 194.23 249.92
  A 1.88 1.81 2.5 0 0 193.47 250.59
  L 192.98 251.38
  A 0.90 0.90 0.0 0 1 192.07 251.78
  Q 190.67 251.54 189.44 252.00
  L 139.19 252.00
  L 138.02 251.63
  A 0.60 0.59 -81.4 0 1 137.61 251.06
  L 137.81 208.06
  A 1.34 1.33 64.3 0 1 138.09 207.24
  Q 139.22 205.80 140.78 206.42
  C 155.86 212.48 169.24 217.36 185.20 215.66
  C 205.22 213.52 212.68 196.09 213.04 178.50
  C 213.49 155.80 208.86 132.73 197.67 112.82
  C 181.81 84.59 158.12 55.70 130.49 38.20
  Q 128.70 37.06 126.83 38.08
  Q 120.73 41.40 114.40 46.65
  Q 81.56 73.87 60.32 110.52
  C 48.93 130.18 44.08 151.13 43.33 173.75
  C 42.70 192.63 49.53 213.76 71.51 215.78
  C 86.92 217.19 101.55 212.57 115.97 206.69
  Q 117.74 205.97 118.97 207.41
  C 120.07 208.69 119.22 247.20 119.19 252.00
  L 104.69 252.00
  Q 104.05 247.23 104.53 242.21
  A 0.56 0.55 -81.4 0 0 104.09 241.61
  C 97.29 240.16 92.49 244.41 91.65 251.07
  A 0.98 0.95 74.5 0 1 91.31 251.69
  L 90.94 252.00
  L 67.94 252.00
  C 64.73 252.26 63.54 250.23 61.53 249.28
  Q 32.93 235.75 4.41 222.12
  Q 1.15 220.57 1.84 217.33
  Q 4.97 202.57 8.72 187.99
  Q 27.90 113.59 34.72 86.69
  C 35.52 83.51 36.92 82.55 39.88 79.84
  Q 83.62 39.81 127.56 0.00
  Z"
/>
</svg>
