<?xml version="1.0" encoding="UTF-8" standalone="no"?>
<!DOCTYPE svg PUBLIC "-//W3C//DTD SVG 1.1//EN" "http://www.w3.org/Graphics/SVG/1.1/DTD/svg11.dtd">
<svg xmlns="http://www.w3.org/2000/svg" version="1.1" viewBox="0 0 570 585">
<path fill="#10366a" d="
  M 279.31 0.00
  L 291.31 0.00
  Q 396.00 3.76 473.20 73.34
  C 533.83 128.00 567.79 204.45 570.00 286.06
  L 570.00 299.31
  C 565.45 452.79 447.78 580.51 290.94 585.00
  L 278.94 585.00
  C 122.92 580.23 3.95 453.12 0.00 298.94
  L 0.00 286.69
  C 3.74 131.51 122.92 5.12 279.31 0.00
  Z
  M 285.0200 570.3200
  A 277.80 270.67 90.0 0 0 555.6900 292.5200
  A 277.80 270.67 90.0 0 0 285.0200 14.7200
  A 277.80 270.67 90.0 0 0 14.3500 292.5200
  A 277.80 270.67 90.0 0 0 285.0200 570.3200
  Z"
/>
<path fill="#10366a" d="
  M 360.84 179.60
  Q 312.55 171.15 262.75 175.07
  Q 231.53 177.52 201.25 185.49
  Q 145.32 200.21 97.94 233.08
  Q 95.97 234.45 96.72 232.18
  L 101.03 219.19
  A 1.02 1.02 0.0 0 1 101.42 218.68
  C 143.12 190.33 189.19 169.76 239.37 162.43
  C 286.45 155.56 334.02 158.58 380.78 167.04
  A 1.04 1.02 -53.3 0 0 381.43 166.94
  Q 391.58 161.64 394.55 150.64
  A 1.00 1.00 0.0 0 0 393.93 149.43
  C 357.62 136.43 318.69 132.91 280.50 133.80
  Q 272.32 133.99 262.26 135.08
  Q 211.49 140.58 163.27 157.30
  Q 143.16 164.27 124.62 174.71
  A 0.33 0.33 0.0 0 1 124.35 174.73
  Q 124.03 174.62 124.30 174.29
  Q 130.70 166.25 134.05 161.87
  C 137.75 157.02 149.72 152.26 154.54 150.26
  C 218.87 123.66 296.31 109.83 365.34 125.82
  Q 379.32 129.06 393.13 132.93
  Q 395.49 133.59 393.98 131.66
  Q 390.85 127.68 386.78 124.81
  Q 384.23 123.01 377.08 119.36
  Q 350.22 105.63 317.74 101.72
  C 269.84 95.95 219.35 103.09 175.14 122.56
  Q 174.60 122.79 174.86 122.27
  Q 174.93 122.13 175.19 121.95
  Q 200.96 104.35 231.08 96.14
  C 285.40 81.32 349.11 81.92 397.28 115.49
  C 407.86 122.86 416.38 130.68 419.89 143.09
  A 1.01 1.01 0.0 0 0 420.40 143.71
  C 434.87 151.04 455.58 164.16 461.20 179.99
  Q 464.03 187.93 462.69 196.70
  A 1.01 1.01 0.0 0 0 463.14 197.69
  C 477.96 207.19 488.06 221.32 486.25 239.51
  Q 485.65 245.53 481.33 251.45
  A 1.00 0.99 36.1 0 0 481.55 252.85
  Q 489.40 258.54 492.68 266.32
  C 501.97 288.38 481.12 311.42 464.81 322.83
  C 443.23 337.90 415.96 348.61 390.55 354.97
  Q 356.43 363.52 321.75 369.51
  Q 289.60 375.07 257.40 380.43
  Q 253.62 381.06 257.33 382.00
  Q 324.49 398.89 393.50 384.74
  Q 441.19 374.96 487.06 352.13
  Q 488.80 351.26 488.17 353.10
  L 485.59 360.65
  A 1.01 1.00 -6.1 0 1 485.15 361.19
  C 448.08 382.85 405.50 395.30 361.75 402.02
  C 343.22 404.87 325.73 406.16 307.26 405.05
  Q 261.92 402.34 218.47 388.76
  A 1.03 0.96 -44.1 0 0 217.84 388.77
  L 193.24 397.34
  Q 191.40 397.98 193.16 398.82
  Q 225.83 414.25 261.50 421.25
  C 305.24 429.83 348.35 429.07 392.50 420.72
  Q 431.81 413.28 466.14 401.09
  Q 468.73 400.17 467.34 402.54
  Q 466.05 404.73 464.61 406.76
  Q 463.27 408.65 461.07 409.76
  Q 450.16 415.27 438.68 419.41
  C 406.04 431.20 369.84 440.58 335.32 441.34
  Q 297.19 442.18 260.75 437.01
  C 231.42 432.85 202.43 422.68 175.47 410.07
  A 1.02 1.01 36.4 0 0 174.38 410.23
  Q 169.40 414.59 168.00 421.11
  A 1.00 1.00 0.0 0 0 168.50 422.20
  C 234.39 458.06 305.17 469.68 379.18 456.16
  Q 408.52 450.80 436.94 441.79
  Q 439.59 440.96 437.79 443.07
  Q 435.62 445.63 433.05 447.72
  Q 430.28 449.96 425.47 451.89
  C 355.82 479.84 283.76 485.37 212.82 459.97
  Q 193.15 452.93 171.94 442.16
  Q 170.89 441.62 171.39 442.70
  Q 171.45 442.83 171.56 442.95
  Q 178.72 450.73 187.31 456.95
  C 216.04 477.75 250.84 492.29 286.53 494.17
  Q 309.27 495.37 336.00 492.49
  Q 360.24 489.89 382.43 482.84
  Q 390.51 480.28 383.05 484.31
  Q 345.13 504.80 301.74 506.69
  C 255.20 508.72 207.72 495.72 171.31 466.30
  C 157.92 455.48 149.35 446.98 146.34 430.58
  A 1.00 0.99 -82.4 0 0 145.80 429.86
  Q 126.90 420.53 115.09 402.70
  C 109.35 394.04 109.74 382.99 113.28 373.47
  A 1.00 0.98 28.3 0 0 112.92 372.31
  C 103.02 365.24 93.51 357.68 92.73 344.54
  C 92.36 338.19 94.51 331.95 97.68 326.42
  A 1.00 0.99 39.3 0 0 97.56 325.26
  C 69.04 293.43 103.74 258.41 131.23 243.49
  C 160.50 227.60 194.65 217.21 226.93 209.66
  C 264.79 200.80 288.86 196.70 320.18 191.14
  Q 340.63 187.50 360.94 181.15
  Q 364.09 180.17 360.84 179.60
  Z
  M 416.88 160.96
  Q 413.89 167.44 408.90 172.50
  A 1.00 1.00 0.0 0 0 409.33 174.16
  Q 423.06 178.22 436.34 183.55
  Q 438.30 184.34 437.67 182.33
  Q 437.22 180.91 436.68 179.52
  Q 436.01 177.80 434.91 176.24
  Q 428.33 166.95 418.33 160.53
  A 1.00 1.00 0.0 0 0 416.88 160.96
  Z
  M 432.10 202.13
  A 1.00 1.00 0.0 0 0 431.75 200.55
  Q 413.41 192.61 394.17 187.20
  A 1.02 1.00 -55.6 0 0 393.27 187.38
  Q 382.64 196.00 369.82 200.91
  A 0.25 0.25 0.0 0 0 369.67 201.06
  L 369.56 201.36
  A 0.27 0.27 0.0 0 0 369.76 201.72
  C 385.76 204.63 401.24 209.91 416.64 214.70
  A 1.03 1.03 0.0 0 0 417.47 214.59
  Q 425.71 209.43 432.10 202.13
  Z
  M 455.11 215.56
  Q 450.58 220.75 445.25 225.14
  A 1.01 1.00 36.4 0 0 445.51 226.84
  Q 454.09 230.42 461.93 235.43
  A 1.00 1.00 0.0 0 0 463.36 235.05
  Q 465.29 231.30 464.69 227.31
  Q 464.20 224.07 461.40 220.54
  Q 459.20 217.78 456.52 215.46
  A 1.01 1.00 40.7 0 0 455.11 215.56
  Z
  M 114.73 281.47
  Q 103.24 293.47 111.34 307.73
  A 1.00 0.99 -37.2 0 0 112.91 307.94
  Q 123.42 297.39 136.58 290.34
  Q 159.23 278.19 183.99 271.19
  C 226.58 259.16 269.89 251.34 313.33 243.16
  Q 350.81 236.10 387.51 226.60
  Q 390.37 225.85 387.52 225.05
  Q 378.46 222.50 369.29 220.50
  Q 358.39 218.11 349.55 217.46
  C 333.51 216.28 320.65 218.02 302.33 220.58
  C 257.69 226.82 212.79 236.48 170.05 251.01
  C 151.76 257.22 129.06 266.50 114.73 281.47
  Z
  M 130.77 325.92
  Q 139.39 332.17 149.00 336.75
  A 1.00 0.98 41.4 0 0 149.96 336.70
  Q 167.08 325.96 186.51 320.28
  C 225.65 308.84 265.61 302.21 305.75 295.50
  Q 335.82 290.48 377.85 279.72
  Q 400.39 273.95 422.28 266.10
  Q 436.38 261.04 448.45 251.86
  A 1.00 0.99 42.4 0 0 448.37 250.22
  Q 439.68 244.78 430.04 240.48
  Q 426.71 238.99 424.84 238.53
  A 1.05 1.05 0.0 0 0 424.18 238.59
  C 394.35 252.44 360.70 260.27 328.67 266.04
  Q 276.06 275.52 223.84 286.91
  C 190.61 294.16 156.80 304.41 130.75 324.31
  A 1.01 1.01 0.0 0 0 130.77 325.92
  Z
  M 178.72 352.74
  Q 194.27 360.69 210.54 367.04
  A 1.03 0.98 46.3 0 0 211.20 367.07
  C 227.90 361.89 244.46 357.63 262.08 354.49
  Q 324.65 343.35 360.32 335.62
  C 381.03 331.13 486.31 306.65 466.84 268.79
  A 1.01 1.00 -33.9 0 0 465.29 268.49
  C 450.45 281.39 431.98 290.05 413.50 296.03
  Q 365.16 311.68 312.33 320.91
  C 280.74 326.43 248.99 331.46 217.73 338.68
  Q 197.56 343.33 178.80 350.92
  Q 176.77 351.74 178.72 352.74
  Z
  M 123.43 356.93
  A 1.01 0.99 41.1 0 0 124.57 356.86
  L 130.42 352.24
  A 1.00 1.00 0.0 0 0 130.33 350.61
  L 117.16 342.39
  Q 115.61 341.42 115.63 343.25
  Q 115.74 352.25 123.43 356.93
  Z
  M 144.24 373.14
  L 165.59 385.57
  A 1.00 0.98 43.8 0 0 166.61 385.56
  Q 174.05 381.03 182.07 377.67
  Q 184.18 376.78 182.09 375.84
  L 155.45 363.72
  A 1.00 0.98 38.8 0 0 154.44 363.82
  L 144.15 371.47
  A 1.00 1.00 0.0 0 0 144.24 373.14
  Z
  M 144.92 406.40
  Q 145.11 406.62 145.31 406.82
  A 1.01 1.00 -58.0 0 0 146.95 406.44
  Q 148.31 402.73 150.68 399.53
  A 1.00 0.99 33.4 0 0 150.38 398.08
  L 136.20 389.79
  Q 134.19 388.61 134.73 390.88
  Q 136.80 399.67 143.83 405.34
  Q 144.31 405.72 144.92 406.40
  Z"
/>
</svg>
