<?xml version="1.0" encoding="UTF-8" standalone="no"?>
<!DOCTYPE svg PUBLIC "-//W3C//DTD SVG 1.1//EN" "http://www.w3.org/Graphics/SVG/1.1/DTD/svg11.dtd">
<svg xmlns="http://www.w3.org/2000/svg" version="1.1" viewBox="0 0 226 166">
<path fill="#ce1322" d="
  M 226.00 103.06
  L 226.00 113.81
  Q 224.15 141.59 209.12 165.04
  A 1.02 1.00 -73.1 0 1 208.28 165.50
  L 156.74 165.50
  Q 153.99 165.50 156.10 163.73
  Q 175.35 147.61 180.12 123.84
  C 190.50 72.18 139.67 28.46 89.81 46.56
  C 57.45 58.31 38.53 93.02 46.74 126.59
  Q 52.15 148.72 70.14 163.73
  Q 72.26 165.50 69.50 165.50
  L 17.99 165.50
  A 1.02 1.00 73.5 0 1 17.14 165.03
  C -18.59 108.58 5.11 37.37 65.50 10.88
  C 135.59 -19.87 220.76 23.22 226.00 103.06
  Z"
/>
<path fill="#ce1322" d="
  M 88.19 143.81
  Q 79.88 136.82 76.64 127.06
  A 1.00 0.99 -9.2 0 1 77.59 125.75
  L 148.91 125.75
  A 0.99 0.99 0.0 0 1 149.84 127.09
  Q 145.37 139.25 134.37 146.59
  C 119.94 156.21 101.52 155.04 88.19 143.81
  Z"
/>
</svg>
