<?xml version="1.0" encoding="UTF-8" standalone="no"?>
<!DOCTYPE svg PUBLIC "-//W3C//DTD SVG 1.1//EN" "http://www.w3.org/Graphics/SVG/1.1/DTD/svg11.dtd">
<svg xmlns="http://www.w3.org/2000/svg" version="1.1" viewBox="0 0 186 184">
<path fill="#f30000" d="
  M 32.02 160.28
  C -23.38 110.57 -0.14 19.04 73.41 3.42
  C 158.18 -14.58 218.97 82.62 163.78 150.46
  A 1.00 1.00 0.0 0 1 162.26 150.50
  Q 159.56 147.50 157.44 143.76
  Q 146.60 124.67 144.09 103.19
  C 143.23 95.88 145.93 90.53 150.69 85.43
  C 158.95 76.59 168.01 68.03 169.46 60.95
  C 171.05 53.21 162.86 52.20 159.18 58.52
  Q 152.47 70.07 139.96 75.49
  Q 136.11 77.15 135.81 74.72
  C 134.84 66.81 143.94 61.27 142.97 53.70
  Q 142.60 50.79 139.69 50.35
  C 130.64 49.01 123.56 57.22 121.71 65.32
  C 120.45 70.82 126.41 74.92 121.70 79.93
  C 114.17 87.93 90.49 92.62 85.77 79.11
  C 83.63 72.99 79.44 59.81 74.45 56.06
  C 61.64 46.47 70.27 43.59 74.84 33.08
  C 76.30 29.73 77.12 25.39 72.85 23.93
  C 67.36 22.05 59.88 27.77 56.83 31.85
  Q 52.24 37.99 55.03 45.57
  C 56.64 49.96 51.80 54.27 49.20 57.04
  C 42.72 63.93 43.27 74.23 43.01 83.00
  C 42.75 91.69 36.62 100.63 39.16 112.69
  Q 40.63 119.68 41.87 126.72
  Q 45.31 146.20 40.23 165.26
  A 1.00 1.00 0.0 0 1 38.72 165.85
  C 36.20 164.22 34.09 162.14 32.02 160.28
  Z"
/>
<path fill="#eb001b" d="
  M 92.92 99.13
  C 103.66 99.05 113.29 105.36 115.16 116.48
  Q 120.43 147.80 121.27 161.50
  C 121.77 169.75 123.13 178.46 114.99 180.75
  C 108.84 182.48 102.29 182.88 95.56 183.54
  C 83.48 184.72 81.21 174.68 80.66 165.32
  Q 79.17 140.08 80.29 117.55
  C 80.71 109.33 82.42 99.21 92.92 99.13
  Z"
/>
<path fill="#eb001b" d="
  M 61.06 177.99
  C 57.24 176.49 56.73 173.53 56.27 169.74
  C 55.01 159.32 53.44 141.69 58.73 133.35
  A 1.00 1.00 0.0 0 1 60.46 133.42
  C 62.80 137.83 63.24 141.68 64.11 146.46
  C 64.83 150.40 69.46 181.27 61.06 177.99
  Z"
/>
<path fill="#eb001b" d="
  M 138.26 136.41
  C 144.06 141.48 148.64 152.07 150.27 158.74
  C 151.73 164.73 144.05 168.33 139.88 170.72
  Q 137.20 172.26 136.15 169.36
  Q 130.83 154.76 132.89 139.48
  C 133.27 136.60 135.10 133.65 138.26 136.41
  Z"
/>
</svg>
