<?xml version="1.0" encoding="UTF-8" standalone="no"?>
<!DOCTYPE svg PUBLIC "-//W3C//DTD SVG 1.1//EN" "http://www.w3.org/Graphics/SVG/1.1/DTD/svg11.dtd">
<svg xmlns="http://www.w3.org/2000/svg" version="1.1" viewBox="0 0 781 1000">
<g stroke-width="2.00" fill="none" stroke-linecap="butt">
<path stroke="#368194" vector-effect="non-scaling-stroke" d="
  M 562.23 218.61
  L 531.16 218.68"
/>
<path stroke="#989da7" vector-effect="non-scaling-stroke" d="
  M 531.16 218.68
  L 530.96 94.75
  A 1.00 1.00 0.0 0 0 529.96 93.75
  L 32.25 93.75
  A 1.00 1.00 0.0 0 0 31.25 94.75
  L 31.25 842.75
  A 1.00 1.00 0.0 0 0 32.25 843.75
  L 530.00 843.75
  A 1.00 1.00 0.0 0 0 531.00 842.75
  L 531.00 594.44
  A 0.24 0.21 -19.6 0 1 531.10 594.26
  Q 531.24 594.17 531.25 594.04"
/>
<path stroke="#368194" vector-effect="non-scaling-stroke" d="
  M 531.25 594.04
  L 562.25 593.79"
/>
<path stroke="#3b4252" vector-effect="non-scaling-stroke" d="
  M 359.18 46.55
  A 15.27 15.27 0.0 0 0 343.91 31.28
  L 218.35 31.28
  A 15.27 15.27 0.0 0 0 203.08 46.55
  L 203.08 47.21
  A 15.27 15.27 0.0 0 0 218.35 62.48
  L 343.91 62.48
  A 15.27 15.27 0.0 0 0 359.18 47.21
  L 359.18 46.55"
/>
<path stroke="#3b4252" vector-effect="non-scaling-stroke" d="
  M 328.02 921.86
  A 46.86 46.86 0.0 0 0 281.16 875.00
  A 46.86 46.86 0.0 0 0 234.30 921.86
  A 46.86 46.86 0.0 0 0 281.16 968.72
  A 46.86 46.86 0.0 0 0 328.02 921.86"
/>
<path stroke="#87cfdd" vector-effect="non-scaling-stroke" d="
  M 531.16 218.68
  Q 362.11 218.81 192.94 218.74
  Q 184.03 218.73 179.21 220.08
  Q 162.33 224.81 157.56 241.72
  Q 156.23 246.44 156.23 254.92
  Q 156.26 406.29 156.25 557.68
  Q 156.25 566.91 157.65 571.55
  C 161.84 585.38 174.16 593.76 188.50 593.76
  Q 234.39 593.75 280.29 593.75
  A 1.00 1.00 0.0 0 1 281.29 594.76
  Q 280.72 652.87 281.36 711.01
  Q 281.37 711.49 281.00 714.44
  Q 280.87 715.52 281.01 716.59
  Q 281.27 718.60 282.71 717.17
  L 405.83 594.04
  A 1.04 1.01 -66.5 0 1 406.54 593.75
  L 530.71 593.75
  A 0.41 0.40 -19.6 0 1 531.02 593.89
  Q 531.13 594.02 531.25 594.04"
/>
<path stroke="#87cfdd" vector-effect="non-scaling-stroke" d="
  M 456.16 311.29
  C 428.23 316.97 405.17 336.17 407.85 367.20
  C 410.65 399.72 440.82 410.05 466.38 420.27
  C 476.23 424.22 489.61 430.94 492.75 441.76
  Q 495.92 452.63 490.22 460.74
  C 481.18 473.60 463.10 473.80 449.04 471.82
  Q 430.80 469.25 414.90 459.98
  A 1.01 1.00 -66.8 0 0 413.43 460.57
  L 405.71 487.61
  A 1.01 0.99 22.7 0 0 406.19 488.76
  Q 421.72 497.30 439.27 499.97
  Q 446.51 501.08 454.07 501.58
  A 1.01 1.00 2.2 0 1 455.00 502.58
  L 455.00 530.25
  A 1.00 1.00 0.0 0 0 456.00 531.25
  L 479.00 531.25
  A 1.00 1.00 0.0 0 0 480.00 530.25
  L 480.00 500.72
  A 1.00 1.00 0.0 0 1 480.81 499.74
  C 511.63 493.77 534.09 472.84 531.35 439.69
  C 528.51 405.38 497.40 394.97 470.80 383.89
  C 462.57 380.46 451.71 375.07 447.29 367.21
  C 442.38 358.48 446.46 347.20 454.81 342.04
  Q 462.23 337.45 473.25 337.43
  Q 495.33 337.39 514.69 347.46
  A 1.00 1.00 0.0 0 0 516.11 346.85
  L 523.76 320.58
  A 1.00 0.99 -69.3 0 0 523.23 319.40
  Q 504.02 310.33 482.70 309.76
  A 0.99 0.99 0.0 0 1 481.73 308.76
  L 481.80 282.25
  A 1.00 1.00 0.0 0 0 480.80 281.25
  L 457.91 281.25
  A 1.00 1.00 0.0 0 0 456.91 282.25
  L 456.96 310.31
  A 0.99 0.99 0.0 0 1 456.16 311.29"
/>
</g>
<path fill="#474e5e" d="
  M 59.06 0.00
  L 502.56 0.00
  C 535.34 2.57 562.25 27.99 562.25 61.50
  Q 562.26 139.87 562.23 218.61
  L 531.16 218.68
  L 530.96 94.75
  A 1.00 1.00 0.0 0 0 529.96 93.75
  L 32.25 93.75
  A 1.00 1.00 0.0 0 0 31.25 94.75
  L 31.25 842.75
  A 1.00 1.00 0.0 0 0 32.25 843.75
  L 530.00 843.75
  A 1.00 1.00 0.0 0 0 531.00 842.75
  L 531.00 594.44
  A 0.24 0.21 -19.6 0 1 531.10 594.26
  Q 531.24 594.17 531.25 594.04
  L 562.25 593.79
  Q 562.25 760.40 562.25 927.01
  Q 562.26 941.63 561.47 946.97
  C 557.18 976.21 533.44 997.27 503.94 1000.00
  L 60.44 1000.00
  C 27.01 998.14 2.33 973.29 0.00 939.94
  L 0.00 59.44
  C 3.06 26.30 26.11 2.98 59.06 0.00
  Z
  M 359.18 46.55
  A 15.27 15.27 0.0 0 0 343.91 31.28
  L 218.35 31.28
  A 15.27 15.27 0.0 0 0 203.08 46.55
  L 203.08 47.21
  A 15.27 15.27 0.0 0 0 218.35 62.48
  L 343.91 62.48
  A 15.27 15.27 0.0 0 0 359.18 47.21
  L 359.18 46.55
  Z
  M 328.02 921.86
  A 46.86 46.86 0.0 0 0 281.16 875.00
  A 46.86 46.86 0.0 0 0 234.30 921.86
  A 46.86 46.86 0.0 0 0 281.16 968.72
  A 46.86 46.86 0.0 0 0 328.02 921.86
  Z"
/>
<rect fill="#2e3545" x="203.08" y="31.28" width="156.10" height="31.20" rx="15.27"/>
<path fill="#e8ebf0" d="
  M 531.16 218.68
  Q 362.11 218.81 192.94 218.74
  Q 184.03 218.73 179.21 220.08
  Q 162.33 224.81 157.56 241.72
  Q 156.23 246.44 156.23 254.92
  Q 156.26 406.29 156.25 557.68
  Q 156.25 566.91 157.65 571.55
  C 161.84 585.38 174.16 593.76 188.50 593.76
  Q 234.39 593.75 280.29 593.75
  A 1.00 1.00 0.0 0 1 281.29 594.76
  Q 280.72 652.87 281.36 711.01
  Q 281.37 711.49 281.00 714.44
  Q 280.87 715.52 281.01 716.59
  Q 281.27 718.60 282.71 717.17
  L 405.83 594.04
  A 1.04 1.01 -66.5 0 1 406.54 593.75
  L 530.71 593.75
  A 0.41 0.40 -19.6 0 1 531.02 593.89
  Q 531.13 594.02 531.25 594.04
  Q 531.24 594.17 531.10 594.26
  A 0.24 0.21 -19.6 0 0 531.00 594.44
  L 531.00 842.75
  A 1.00 1.00 0.0 0 1 530.00 843.75
  L 32.25 843.75
  A 1.00 1.00 0.0 0 1 31.25 842.75
  L 31.25 94.75
  A 1.00 1.00 0.0 0 1 32.25 93.75
  L 529.96 93.75
  A 1.00 1.00 0.0 0 1 530.96 94.75
  L 531.16 218.68
  Z"
/>
<path fill="#25b3c9" d="
  M 531.16 218.68
  L 562.23 218.61
  Q 652.63 218.86 742.99 218.75
  Q 752.83 218.74 757.86 220.11
  Q 778.25 225.69 781.02 249.06
  L 781.00 564.81
  C 779.03 582.03 765.77 593.74 748.50 593.73
  Q 655.37 593.72 562.25 593.79
  L 531.25 594.04
  Q 531.13 594.02 531.02 593.89
  A 0.41 0.40 -19.6 0 0 530.71 593.75
  L 406.54 593.75
  A 1.04 1.01 -66.5 0 0 405.83 594.04
  L 282.71 717.17
  Q 281.27 718.60 281.01 716.59
  Q 280.87 715.52 281.00 714.44
  Q 281.37 711.49 281.36 711.01
  Q 280.72 652.87 281.29 594.76
  A 1.00 1.00 0.0 0 0 280.29 593.75
  Q 234.39 593.75 188.50 593.76
  C 174.16 593.76 161.84 585.38 157.65 571.55
  Q 156.25 566.91 156.25 557.68
  Q 156.26 406.29 156.23 254.92
  Q 156.23 246.44 157.56 241.72
  Q 162.33 224.81 179.21 220.08
  Q 184.03 218.73 192.94 218.74
  Q 362.11 218.81 531.16 218.68
  Z
  M 456.16 311.29
  C 428.23 316.97 405.17 336.17 407.85 367.20
  C 410.65 399.72 440.82 410.05 466.38 420.27
  C 476.23 424.22 489.61 430.94 492.75 441.76
  Q 495.92 452.63 490.22 460.74
  C 481.18 473.60 463.10 473.80 449.04 471.82
  Q 430.80 469.25 414.90 459.98
  A 1.01 1.00 -66.8 0 0 413.43 460.57
  L 405.71 487.61
  A 1.01 0.99 22.7 0 0 406.19 488.76
  Q 421.72 497.30 439.27 499.97
  Q 446.51 501.08 454.07 501.58
  A 1.01 1.00 2.2 0 1 455.00 502.58
  L 455.00 530.25
  A 1.00 1.00 0.0 0 0 456.00 531.25
  L 479.00 531.25
  A 1.00 1.00 0.0 0 0 480.00 530.25
  L 480.00 500.72
  A 1.00 1.00 0.0 0 1 480.81 499.74
  C 511.63 493.77 534.09 472.84 531.35 439.69
  C 528.51 405.38 497.40 394.97 470.80 383.89
  C 462.57 380.46 451.71 375.07 447.29 367.21
  C 442.38 358.48 446.46 347.20 454.81 342.04
  Q 462.23 337.45 473.25 337.43
  Q 495.33 337.39 514.69 347.46
  A 1.00 1.00 0.0 0 0 516.11 346.85
  L 523.76 320.58
  A 1.00 0.99 -69.3 0 0 523.23 319.40
  Q 504.02 310.33 482.70 309.76
  A 0.99 0.99 0.0 0 1 481.73 308.76
  L 481.80 282.25
  A 1.00 1.00 0.0 0 0 480.80 281.25
  L 457.91 281.25
  A 1.00 1.00 0.0 0 0 456.91 282.25
  L 456.96 310.31
  A 0.99 0.99 0.0 0 1 456.16 311.29
  Z"
/>
<path fill="#e8ebf0" d="
  M 456.96 310.31
  L 456.91 282.25
  A 1.00 1.00 0.0 0 1 457.91 281.25
  L 480.80 281.25
  A 1.00 1.00 0.0 0 1 481.80 282.25
  L 481.73 308.76
  A 0.99 0.99 0.0 0 0 482.70 309.76
  Q 504.02 310.33 523.23 319.40
  A 1.00 0.99 -69.3 0 1 523.76 320.58
  L 516.11 346.85
  A 1.00 1.00 0.0 0 1 514.69 347.46
  Q 495.33 337.39 473.25 337.43
  Q 462.23 337.45 454.81 342.04
  C 446.46 347.20 442.38 358.48 447.29 367.21
  C 451.71 375.07 462.57 380.46 470.80 383.89
  C 497.40 394.97 528.51 405.38 531.35 439.69
  C 534.09 472.84 511.63 493.77 480.81 499.74
  A 1.00 1.00 0.0 0 0 480.00 500.72
  L 480.00 530.25
  A 1.00 1.00 0.0 0 1 479.00 531.25
  L 456.00 531.25
  A 1.00 1.00 0.0 0 1 455.00 530.25
  L 455.00 502.58
  A 1.01 1.00 2.2 0 0 454.07 501.58
  Q 446.51 501.08 439.27 499.97
  Q 421.72 497.30 406.19 488.76
  A 1.01 0.99 22.7 0 1 405.71 487.61
  L 413.43 460.57
  A 1.01 1.00 -66.8 0 1 414.90 459.98
  Q 430.80 469.25 449.04 471.82
  C 463.10 473.80 481.18 473.60 490.22 460.74
  Q 495.92 452.63 492.75 441.76
  C 489.61 430.94 476.23 424.22 466.38 420.27
  C 440.82 410.05 410.65 399.72 407.85 367.20
  C 405.17 336.17 428.23 316.97 456.16 311.29
  A 0.99 0.99 0.0 0 0 456.96 310.31
  Z"
/>
<circle fill="#2e3545" cx="281.16" cy="921.86" r="46.86"/>
</svg>
