<?xml version="1.0" encoding="UTF-8" standalone="no"?>
<!DOCTYPE svg PUBLIC "-//W3C//DTD SVG 1.1//EN" "http://www.w3.org/Graphics/SVG/1.1/DTD/svg11.dtd">
<svg xmlns="http://www.w3.org/2000/svg" version="1.1" viewBox="0 0 199 199">
<path fill="#00bbe4" d="
  M 92.31 0.00
  L 106.06 0.00
  C 159.65 4.66 200.45 48.93 198.29 103.24
  C 195.19 181.35 106.04 225.87 42.18 180.51
  Q 4.58 153.80 0.00 105.69
  L 0.00 92.69
  C 3.90 42.15 41.90 4.75 92.31 0.00
  Z
  M 76.57 147.46
  Q 63.77 140.01 59.98 126.51
  Q 58.47 121.09 58.48 107.41
  C 58.51 84.39 54.48 61.88 78.94 49.91
  C 85.51 46.70 82.60 34.70 74.65 34.68
  Q 71.18 34.67 66.02 37.30
  C 47.19 46.88 35.08 65.38 32.76 86.34
  C 29.29 117.72 37.69 148.31 68.39 162.21
  Q 72.87 164.24 75.96 163.74
  C 81.32 162.88 84.43 155.79 81.42 151.22
  Q 80.41 149.70 76.57 147.46
  Z
  M 144.84 45.91
  C 140.08 41.62 129.92 34.29 123.32 34.65
  C 116.86 35.01 113.65 42.49 117.29 47.77
  Q 118.28 49.21 121.96 51.31
  Q 134.41 58.45 138.19 71.52
  Q 139.75 76.89 139.75 90.16
  C 139.75 112.22 144.07 135.51 120.71 147.87
  C 110.45 153.30 116.90 167.72 129.05 162.53
  C 148.94 154.04 162.51 135.18 165.39 113.93
  C 168.77 89.06 164.74 63.81 144.84 45.91
  Z"
/>
</svg>
