<?xml version="1.0" encoding="UTF-8" standalone="no"?>
<!DOCTYPE svg PUBLIC "-//W3C//DTD SVG 1.1//EN" "http://www.w3.org/Graphics/SVG/1.1/DTD/svg11.dtd">
<svg xmlns="http://www.w3.org/2000/svg" version="1.1" viewBox="0 0 1280 280">
<path fill="#0069ff" d="
  M 134.31 0.00
  L 144.31 0.00
  Q 188.89 2.24 223.62 28.31
  C 295.86 82.53 297.69 190.98 228.05 247.91
  C 172.31 293.47 90.74 289.62 40.06 238.55
  Q 6.40 204.63 0.00 155.94
  L 0.00 123.69
  C 9.24 54.11 64.16 3.45 134.31 0.00
  Z
  M 213.97 139.95
  A 74.58 74.58 0.0 0 0 139.39 65.37
  A 74.58 74.58 0.0 0 0 64.81 139.95
  A 74.58 74.58 0.0 0 0 139.39 214.53
  A 74.58 74.58 0.0 0 0 213.97 139.95
  Z"
/>
<path fill="#0069ff" d="
  M 779.06 0.00
  L 784.06 0.00
  Q 835.38 0.60 881.43 19.78
  C 919.81 35.76 957.82 66.63 971.24 107.13
  C 989.10 160.98 960.25 211.64 915.75 241.19
  C 849.94 284.89 760.03 290.81 686.92 262.36
  C 647.99 247.21 608.97 218.19 593.30 178.05
  C 577.37 137.22 588.38 95.50 617.45 63.56
  C 657.25 19.81 721.63 0.63 779.06 0.00
  Z
  M 709.15 78.82
  C 682.22 89.63 638.29 119.45 654.46 155.28
  C 667.64 184.47 704.62 201.92 734.09 208.85
  C 779.65 219.55 829.13 215.23 870.51 192.51
  C 892.20 180.61 918.52 156.31 909.67 128.56
  C 900.22 98.94 861.70 79.80 834.16 72.38
  C 793.35 61.40 748.53 63.02 709.15 78.82
  Z"
/>
<path fill="#0069ff" d="
  M 444.90 71.56
  Q 403.39 71.45 361.64 71.50
  Q 349.58 71.52 344.51 70.01
  C 322.11 63.39 313.73 37.28 327.84 18.81
  C 336.41 7.61 347.29 6.27 362.12 6.27
  Q 459.68 6.24 557.25 6.39
  C 563.52 6.40 568.35 11.61 566.91 17.74
  Q 566.41 19.86 563.80 23.31
  Q 494.20 115.33 424.43 207.53
  Q 423.88 208.26 424.79 208.26
  Q 475.53 208.25 526.58 208.24
  Q 538.63 208.24 543.80 209.75
  C 575.61 219.00 574.61 265.12 541.43 272.57
  Q 537.33 273.49 529.36 273.49
  Q 421.56 273.50 313.76 273.51
  C 303.90 273.51 298.53 265.91 305.05 257.30
  Q 375.10 164.72 445.16 72.09
  Q 445.56 71.56 444.90 71.56
  Z"
/>
<path fill="#0069ff" d="
  M 1280.00 40.06
  L 1280.00 264.31
  C 1279.24 272.23 1271.04 276.25 1264.59 271.14
  Q 1176.59 201.42 1088.89 131.70
  Q 1088.49 131.38 1088.49 131.89
  Q 1088.52 185.90 1088.42 239.24
  Q 1088.39 260.47 1070.69 269.95
  C 1052.38 279.76 1030.16 268.96 1024.64 249.56
  Q 1023.25 244.69 1023.25 235.19
  Q 1023.25 126.74 1023.25 18.30
  C 1023.25 13.88 1023.74 10.54 1027.23 8.09
  C 1033.45 3.73 1038.34 8.26 1043.04 11.99
  Q 1128.57 79.93 1214.13 147.97
  Q 1214.78 148.49 1214.78 147.66
  Q 1214.71 96.56 1214.77 45.23
  Q 1214.78 34.42 1216.26 29.57
  C 1221.94 10.90 1242.03 1.60 1260.00 9.11
  Q 1278.75 16.94 1280.00 40.06
  Z"
/>
</svg>
