<?xml version="1.0" encoding="UTF-8" standalone="no"?>
<!DOCTYPE svg PUBLIC "-//W3C//DTD SVG 1.1//EN" "http://www.w3.org/Graphics/SVG/1.1/DTD/svg11.dtd">
<svg xmlns="http://www.w3.org/2000/svg" version="1.1" viewBox="0 0 512 512">
<g stroke-width="2.00" fill="none" stroke-linecap="butt">
<path stroke="#80d5f4" vector-effect="non-scaling-stroke" d="
  M 173.00 97.44
  A 1.00 1.00 0.0 0 0 172.00 98.44
  L 172.00 419.00
  A 1.00 1.00 0.0 0 0 173.00 420.00
  L 224.00 420.00
  A 1.00 1.00 0.0 0 0 225.00 419.00
  L 225.00 298.97
  A 1.00 1.00 0.0 0 1 226.00 297.97
  C 253.70 298.08 281.87 299.06 308.51 294.74
  Q 337.66 290.00 354.64 266.10
  C 373.63 239.37 376.80 206.44 372.71 174.02
  C 369.09 145.25 353.81 116.58 326.61 104.50
  C 315.63 99.63 301.89 98.62 289.56 98.22
  C 279.09 97.89 268.68 97.49 258.14 97.50
  Q 215.90 97.54 173.00 97.44"
/>
<path stroke="#80d5f4" vector-effect="non-scaling-stroke" d="
  M 284.93 153.82
  C 265.46 151.80 245.71 151.73 225.98 152.08
  A 1.00 0.99 89.7 0 0 225.00 153.08
  L 225.00 242.18
  A 1.00 1.00 0.0 0 0 225.99 243.18
  Q 246.25 243.45 266.49 243.06
  C 273.62 242.92 281.02 242.40 287.18 241.15
  C 330.95 232.23 329.27 158.43 284.93 153.82"
/>
</g>
<path fill="#00abe8" d="
  M 508.94 256.00
  A 253.94 253.94 0.0 0 1 255.00 509.94
  A 253.94 253.94 0.0 0 1 1.06 256.00
  A 253.94 253.94 0.0 0 1 255.00 2.06
  A 253.94 253.94 0.0 0 1 508.94 256.00
  Z
  M 173.00 97.44
  A 1.00 1.00 0.0 0 0 172.00 98.44
  L 172.00 419.00
  A 1.00 1.00 0.0 0 0 173.00 420.00
  L 224.00 420.00
  A 1.00 1.00 0.0 0 0 225.00 419.00
  L 225.00 298.97
  A 1.00 1.00 0.0 0 1 226.00 297.97
  C 253.70 298.08 281.87 299.06 308.51 294.74
  Q 337.66 290.00 354.64 266.10
  C 373.63 239.37 376.80 206.44 372.71 174.02
  C 369.09 145.25 353.81 116.58 326.61 104.50
  C 315.63 99.63 301.89 98.62 289.56 98.22
  C 279.09 97.89 268.68 97.49 258.14 97.50
  Q 215.90 97.54 173.00 97.44
  Z"
/>
<path fill="#ffffff" d="
  M 173.00 97.44
  Q 215.90 97.54 258.14 97.50
  C 268.68 97.49 279.09 97.89 289.56 98.22
  C 301.89 98.62 315.63 99.63 326.61 104.50
  C 353.81 116.58 369.09 145.25 372.71 174.02
  C 376.80 206.44 373.63 239.37 354.64 266.10
  Q 337.66 290.00 308.51 294.74
  C 281.87 299.06 253.70 298.08 226.00 297.97
  A 1.00 1.00 0.0 0 0 225.00 298.97
  L 225.00 419.00
  A 1.00 1.00 0.0 0 1 224.00 420.00
  L 173.00 420.00
  A 1.00 1.00 0.0 0 1 172.00 419.00
  L 172.00 98.44
  A 1.00 1.00 0.0 0 1 173.00 97.44
  Z
  M 284.93 153.82
  C 265.46 151.80 245.71 151.73 225.98 152.08
  A 1.00 0.99 89.7 0 0 225.00 153.08
  L 225.00 242.18
  A 1.00 1.00 0.0 0 0 225.99 243.18
  Q 246.25 243.45 266.49 243.06
  C 273.62 242.92 281.02 242.40 287.18 241.15
  C 330.95 232.23 329.27 158.43 284.93 153.82
  Z"
/>
<path fill="#00abe8" d="
  M 225.98 152.08
  C 245.71 151.73 265.46 151.80 284.93 153.82
  C 329.27 158.43 330.95 232.23 287.18 241.15
  C 281.02 242.40 273.62 242.92 266.49 243.06
  Q 246.25 243.45 225.99 243.18
  A 1.00 1.00 0.0 0 1 225.00 242.18
  L 225.00 153.08
  A 1.00 0.99 89.7 0 1 225.98 152.08
  Z"
/>
</svg>
