<?xml version="1.0" encoding="UTF-8" standalone="no"?>
<!DOCTYPE svg PUBLIC "-//W3C//DTD SVG 1.1//EN" "http://www.w3.org/Graphics/SVG/1.1/DTD/svg11.dtd">
<svg xmlns="http://www.w3.org/2000/svg" version="1.1" viewBox="0 0 310 256">
<g stroke-width="2.00" fill="none" stroke-linecap="butt">
<path stroke="#307abb" stroke-opacity="0.996" vector-effect="non-scaling-stroke" d="
  M 147.21 13.50
  L 143.75 12.29"
/>
<path stroke="#307abb" stroke-opacity="0.996" vector-effect="non-scaling-stroke" d="
  M 166.79 12.50
  L 163.00 12.96"
/>
<path stroke="#307abb" stroke-opacity="0.996" vector-effect="non-scaling-stroke" d="
  M 187.71 26.25
  C 185.95 25.69 186.87 28.49 188.29 27.25"
/>
<path stroke="#307abb" stroke-opacity="0.996" vector-effect="non-scaling-stroke" d="
  M 185.00 27.46
  Q 187.59 27.50 185.75 26.46"
/>
<path stroke="#307abb" stroke-opacity="0.996" vector-effect="non-scaling-stroke" d="
  M 162.87 29.85
  Q 155.52 28.17 147.98 28.73"
/>
<path stroke="#307abb" stroke-opacity="0.996" vector-effect="non-scaling-stroke" d="
  M 184.75 38.21
  L 184.00 38.21"
/>
<path stroke="#307abb" stroke-opacity="0.996" vector-effect="non-scaling-stroke" d="
  M 189.79 38.50
  Q 186.77 39.66 183.75 38.29"
/>
<path stroke="#307abb" stroke-opacity="0.996" vector-effect="non-scaling-stroke" d="
  M 189.50 38.21
  L 188.46 37.75"
/>
<path stroke="#307abb" stroke-opacity="0.996" vector-effect="non-scaling-stroke" d="
  M 171.46 41.00
  L 170.00 41.21"
/>
<path stroke="#307abb" stroke-opacity="0.996" vector-effect="non-scaling-stroke" d="
  M 193.20 42.03
  Q 179.38 43.35 165.50 42.06"
/>
<path stroke="#307abb" stroke-opacity="0.996" vector-effect="non-scaling-stroke" d="
  M 118.09 41.02
  C 123.08 44.61 134.38 42.60 144.69 42.04"
/>
<path stroke="#307abb" stroke-opacity="0.996" vector-effect="non-scaling-stroke" d="
  M 120.50 53.46
  Q 119.44 53.54 118.53 53.95
  Q 114.22 55.85 118.84 54.92
  Q 120.48 54.58 122.25 54.71"
/>
<path stroke="#307abb" stroke-opacity="0.996" vector-effect="non-scaling-stroke" d="
  M 244.28 52.60
  Q 245.53 54.99 245.61 57.52"
/>
<path stroke="#307abb" stroke-opacity="0.996" vector-effect="non-scaling-stroke" d="
  M 82.75 98.29
  Q 84.84 99.23 86.94 98.57
  Q 88.39 98.11 86.96 97.60
  Q 86.35 97.38 85.50 97.71"
/>
<path stroke="#307abb" stroke-opacity="0.996" vector-effect="non-scaling-stroke" d="
  M 91.75 88.75
  Q 91.36 89.54 91.93 89.84
  A 0.64 0.64 0.0 0 0 92.80 89.56
  Q 93.21 88.75 91.75 88.75"
/>
<path stroke="#307abb" stroke-opacity="0.996" vector-effect="non-scaling-stroke" d="
  M 193.75 113.79
  Q 198.27 115.81 202.75 113.79"
/>
<path stroke="#307abb" stroke-opacity="0.996" vector-effect="non-scaling-stroke" d="
  M 69.25 88.54
  Q 66.69 89.69 64.25 88.29"
/>
<path stroke="#307abb" stroke-opacity="0.996" vector-effect="non-scaling-stroke" d="
  M 71.12 89.00
  Q 74.27 90.81 77.42 89.04"
/>
<path stroke="#307abb" stroke-opacity="0.996" vector-effect="non-scaling-stroke" d="
  M 245.75 88.46
  Q 243.58 89.54 241.50 88.29"
/>
<path stroke="#307abb" stroke-opacity="0.996" vector-effect="non-scaling-stroke" d="
  M 232.75 89.04
  Q 236.29 90.54 239.75 88.79"
/>
<path stroke="#307abb" stroke-opacity="0.996" vector-effect="non-scaling-stroke" d="
  M 57.71 102.75
  Q 60.69 102.01 62.86 99.79"
/>
<path stroke="#307abb" stroke-opacity="0.996" vector-effect="non-scaling-stroke" d="
  M 265.98 112.06
  Q 270.89 113.24 275.93 112.75
  A 0.65 0.62 11.0 0 0 276.44 112.42
  Q 276.74 111.85 275.86 111.35"
/>
<path stroke="#307abb" stroke-opacity="0.996" vector-effect="non-scaling-stroke" d="
  M 34.75 112.29
  Q 40.09 113.62 45.31 112.05"
/>
<path stroke="#307abb" stroke-opacity="0.996" vector-effect="non-scaling-stroke" d="
  M 21.50 109.29
  Q 22.88 110.07 23.46 108.75"
/>
<path stroke="#307abb" stroke-opacity="0.996" vector-effect="non-scaling-stroke" d="
  M 32.75 107.29
  Q 38.39 109.18 43.79 106.92"
/>
<path stroke="#307abb" stroke-opacity="0.996" vector-effect="non-scaling-stroke" d="
  M 124.00 108.04
  Q 125.56 109.58 126.71 108.00"
/>
<path stroke="#307abb" stroke-opacity="0.996" vector-effect="non-scaling-stroke" d="
  M 183.75 108.04
  Q 185.23 109.70 186.75 108.04"
/>
<path stroke="#307abb" stroke-opacity="0.996" vector-effect="non-scaling-stroke" d="
  M 261.50 138.71
  C 260.87 140.29 265.82 140.47 262.75 138.71"
/>
<path stroke="#307abb" stroke-opacity="0.996" vector-effect="non-scaling-stroke" d="
  M 223.50 232.71
  L 221.50 230.71"
/>
<path stroke="#307abb" stroke-opacity="0.996" vector-effect="non-scaling-stroke" d="
  M 221.25 230.79
  L 222.79 233.75"
/>
<path stroke="#307abb" stroke-opacity="0.996" vector-effect="non-scaling-stroke" d="
  M 76.50 217.75
  C 76.23 219.67 83.17 220.38 85.41 220.70"
/>
<path stroke="#307abb" stroke-opacity="0.996" vector-effect="non-scaling-stroke" d="
  M 84.50 223.25
  L 79.78 223.06
  A 0.64 0.64 0.0 0 0 79.17 223.43
  L 79.06 223.67
  A 0.32 0.32 0.0 0 0 79.37 224.13
  L 83.75 223.95
  A 0.53 0.52 -82.7 0 0 84.22 223.58
  Q 84.29 223.35 84.50 223.25"
/>
<path stroke="#307abb" stroke-opacity="0.996" vector-effect="non-scaling-stroke" d="
  M 84.71 226.75
  L 81.00 228.96"
/>
<path stroke="#307abb" stroke-opacity="0.996" vector-effect="non-scaling-stroke" d="
  M 97.47 223.17
  Q 91.23 223.03 86.02 219.39
  Q 85.84 219.25 85.61 219.22
  L 76.50 217.75"
/>
<path stroke="#307abb" stroke-opacity="0.996" vector-effect="non-scaling-stroke" d="
  M 94.29 224.00
  Q 91.33 223.64 89.04 221.75"
/>
<path stroke="#307abb" stroke-opacity="0.996" vector-effect="non-scaling-stroke" d="
  M 94.96 226.50
  Q 92.94 227.54 90.69 226.06
  Q 89.92 225.56 89.96 226.50"
/>
<path stroke="#307abb" stroke-opacity="0.996" vector-effect="non-scaling-stroke" d="
  M 81.50 229.46
  L 85.00 227.29"
/>
<path stroke="#307abb" stroke-opacity="0.996" vector-effect="non-scaling-stroke" d="
  M 94.79 227.75
  L 91.25 228.46"
/>
<path stroke="#307abb" stroke-opacity="0.996" vector-effect="non-scaling-stroke" d="
  M 100.00 225.29
  Q 102.24 226.61 104.25 225.04"
/>
<path stroke="#307abb" stroke-opacity="0.996" vector-effect="non-scaling-stroke" d="
  M 157.75 3.54
  Q 156.24 4.55 155.36 3.13
  A 0.99 0.93 -59.9 0 1 155.22 2.53
  Q 155.38 0.36 153.29 1.50"
/>
<path stroke="#307abb" stroke-opacity="0.996" vector-effect="non-scaling-stroke" d="
  M 155.50 8.96
  L 153.79 9.00"
/>
<path stroke="#307abb" stroke-opacity="0.996" vector-effect="non-scaling-stroke" d="
  M 151.50 3.29
  C 152.12 4.42 155.52 3.50 153.29 2.25"
/>
<path stroke="#307abb" stroke-opacity="0.996" vector-effect="non-scaling-stroke" d="
  M 158.16 10.78
  C 156.21 11.52 156.17 9.36 154.01 9.95
  A 0.97 0.96 -80.0 0 0 153.43 10.36
  Q 152.98 11.04 152.04 11.00"
/>
<path stroke="#307abb" stroke-opacity="0.996" vector-effect="non-scaling-stroke" d="
  M 122.79 48.00
  Q 122.57 49.28 125.27 48.49
  A 1.00 0.99 8.9 0 0 125.81 48.10
  L 127.15 46.15
  A 1.02 1.00 -71.6 0 1 127.99 45.72
  L 130.10 45.76
  A 0.41 0.40 -87.0 0 0 130.51 45.38
  C 130.61 44.15 127.16 45.12 126.21 45.50"
/>
<path stroke="#307abb" stroke-opacity="0.996" vector-effect="non-scaling-stroke" d="
  M 182.50 45.78
  C 183.83 44.98 176.34 44.70 181.92 45.88
  A 0.83 0.82 35.0 0 0 182.50 45.78"
/>
<path stroke="#307abb" stroke-opacity="0.996" vector-effect="non-scaling-stroke" d="
  M 190.14 54.68
  C 193.55 55.51 190.23 52.47 189.77 54.04
  A 0.51 0.50 15.6 0 0 190.14 54.68"
/>
<path stroke="#307abb" stroke-opacity="0.996" vector-effect="non-scaling-stroke" d="
  M 309.71 70.50
  C 307.63 69.15 302.79 69.75 300.29 69.75
  Q 300.03 69.75 299.81 69.88
  Q 296.99 71.41 294.00 70.29"
/>
<path stroke="#307abb" stroke-opacity="0.996" vector-effect="non-scaling-stroke" d="
  M 9.00 69.29
  Q 9.03 69.46 8.98 69.60
  A 0.34 0.33 -74.2 0 1 8.61 69.81
  Q 4.29 68.99 0.51 70.86"
/>
<path stroke="#307abb" stroke-opacity="0.996" vector-effect="non-scaling-stroke" d="
  M 11.10 69.79
  Q 13.42 71.60 16.00 70.46"
/>
<path stroke="#307abb" stroke-opacity="0.996" vector-effect="non-scaling-stroke" d="
  M 26.50 90.79
  C 26.46 92.56 30.40 91.70 31.25 91.29"
/>
<path stroke="#307abb" stroke-opacity="0.996" vector-effect="non-scaling-stroke" d="
  M 1.00 92.96
  Q 2.42 91.64 4.44 91.73
  C 5.31 91.77 7.01 90.98 4.25 90.96"
/>
<path stroke="#307abb" stroke-opacity="0.996" vector-effect="non-scaling-stroke" d="
  M 303.50 90.79
  C 304.84 91.86 308.25 91.65 308.54 93.00"
/>
</g>
<path fill="#619fd1" fill-opacity="0.992" d="
  M 154.06 0.00
  L 155.58 0.00
  Q 155.29 2.81 157.75 3.54
  Q 156.24 4.55 155.36 3.13
  A 0.99 0.93 -59.9 0 1 155.22 2.53
  Q 155.38 0.36 153.29 1.50
  Q 153.01 0.43 154.06 0.00
  Z"
/>
<path fill="#0055a5" d="
  M 157.75 3.54
  Q 159.43 5.41 156.95 5.65
  A 1.00 1.00 0.0 0 0 156.07 6.42
  L 155.50 8.96
  L 153.79 9.00
  L 153.07 6.30
  A 0.99 0.99 0.0 0 0 152.18 5.56
  Q 149.93 5.40 151.50 3.29
  C 152.12 4.42 155.52 3.50 153.29 2.25
  L 153.29 1.50
  Q 155.38 0.36 155.22 2.53
  A 0.99 0.93 -59.9 0 0 155.36 3.13
  Q 156.24 4.55 157.75 3.54
  Z"
/>
<path fill="#619fd1" fill-opacity="0.992" d="
  M 153.29 2.25
  C 155.52 3.50 152.12 4.42 151.50 3.29
  Q 152.69 3.18 153.29 2.25
  Z"
/>
<path fill="#619fd1" fill-opacity="0.992" d="
  M 153.79 9.00
  L 155.50 8.96
  L 158.16 10.78
  C 156.21 11.52 156.17 9.36 154.01 9.95
  A 0.97 0.96 -80.0 0 0 153.43 10.36
  Q 152.98 11.04 152.04 11.00
  L 153.79 9.00
  Z"
/>
<path fill="#0055a5" d="
  M 158.16 10.78
  Q 157.70 16.25 156.01 20.39
  Q 154.95 22.97 154.13 20.30
  C 153.34 17.75 151.11 13.52 152.04 11.00
  Q 152.98 11.04 153.43 10.36
  A 0.97 0.96 -80.0 0 1 154.01 9.95
  C 156.17 9.36 156.21 11.52 158.16 10.78
  Z"
/>
<path fill="#0055a5" d="
  M 148.46 10.31
  C 150.58 9.40 152.98 23.28 153.22 24.96
  A 1.01 0.97 54.4 0 1 153.14 25.51
  C 151.95 28.20 151.04 26.16 150.88 24.83
  Q 150.11 18.37 148.01 11.27
  A 0.80 0.80 0.0 0 1 148.46 10.31
  Z"
/>
<path fill="#0055a5" d="
  M 156.80 25.55
  C 157.32 20.80 158.49 15.20 160.56 10.73
  C 161.23 9.30 162.32 10.11 161.94 11.43
  Q 160.04 18.09 159.04 24.95
  C 158.89 25.97 158.65 26.50 157.55 26.44
  A 0.80 0.80 0.0 0 1 156.80 25.55
  Z"
/>
<path fill="#0055a5" d="
  M 269.68 37.02
  Q 271.45 32.81 268.08 35.90
  Q 266.82 37.06 265.60 38.25
  Q 263.80 40.02 261.74 42.57
  Q 255.47 50.31 249.24 58.09
  Q 247.24 60.59 247.46 57.40
  L 247.59 55.59
  Q 247.60 55.40 247.68 55.23
  Q 259.66 30.48 279.32 11.30
  Q 280.60 10.05 280.99 11.79
  C 283.28 21.85 283.06 32.28 277.53 41.28
  Q 264.37 62.67 241.90 73.77
  A 0.26 0.26 0.0 0 1 241.57 73.68
  C 241.47 73.53 241.45 73.27 241.56 73.13
  Q 245.20 68.30 247.16 62.54
  A 1.04 0.98 80.3 0 1 247.46 62.09
  Q 258.41 52.88 264.08 46.09
  Q 267.67 41.80 269.68 37.02
  Z"
/>
<path fill="#0055a5" d="
  M 39.07 34.94
  C 44.07 46.45 53.08 54.23 62.57 62.00
  A 1.04 1.04 0.0 0 1 62.90 62.50
  Q 64.27 67.39 67.22 71.48
  Q 68.98 73.92 66.24 72.67
  Q 57.72 68.81 50.68 62.58
  Q 41.09 54.11 34.02 43.57
  C 26.72 32.70 27.06 24.61 29.01 12.26
  A 1.00 0.99 -69.3 0 1 30.53 11.57
  Q 32.13 12.59 33.62 14.13
  Q 50.82 31.84 61.72 53.97
  Q 62.46 55.46 62.64 56.52
  Q 62.74 57.14 62.77 57.77
  Q 62.91 60.95 60.97 58.42
  Q 54.81 50.34 48.27 42.23
  Q 44.55 37.62 39.94 33.89
  A 0.68 0.64 -27.4 0 0 39.45 33.75
  Q 38.60 33.86 39.07 34.94
  Z"
/>
<path fill="#619fd1" fill-opacity="0.992" d="
  M 147.21 13.50
  L 143.75 12.29
  Q 146.32 10.76 147.21 13.50
  Z"
/>
<path fill="#619fd1" fill-opacity="0.992" d="
  M 166.79 12.50
  L 163.00 12.96
  Q 164.43 10.66 166.79 12.50
  Z"
/>
<path fill="#0055a5" d="
  M 143.75 12.29
  L 147.21 13.50
  Q 149.08 19.51 149.70 25.82
  A 1.00 1.00 0.0 0 1 149.00 26.87
  L 146.78 27.58
  A 1.00 0.99 69.3 0 1 145.57 27.03
  Q 143.15 21.58 141.55 15.91
  C 141.01 14.00 141.81 12.61 143.75 12.29
  Z"
/>
<path fill="#0055a5" d="
  M 166.79 12.50
  C 171.14 13.95 165.68 24.35 164.48 27.09
  A 1.00 1.00 0.0 0 1 163.24 27.63
  L 160.82 26.79
  A 1.00 1.00 0.0 0 1 160.15 25.72
  Q 160.97 19.20 163.00 12.96
  L 166.79 12.50
  Z"
/>
<path fill="#0055a5" d="
  M 99.26 24.11
  Q 97.39 23.90 98.62 22.46
  Q 101.87 18.67 106.73 17.48
  Q 107.75 17.23 108.48 17.75
  A 1.00 0.99 45.1 0 1 108.48 19.38
  Q 105.62 21.39 102.75 23.21
  Q 101.02 24.30 99.26 24.11
  Z"
/>
<path fill="#0055a5" d="
  M 124.80 27.00
  Q 126.18 27.79 125.63 29.62
  Q 125.10 31.36 124.09 32.92
  Q 123.07 34.49 122.33 32.77
  L 120.79 29.17
  A 1.00 0.99 -33.6 0 1 121.02 28.06
  Q 122.97 26.19 121.74 23.43
  A 0.98 0.97 -3.3 0 0 121.12 22.88
  Q 117.55 21.80 121.32 20.49
  A 0.99 0.99 0.0 0 0 121.99 19.46
  Q 121.83 17.65 123.51 17.71
  A 1.01 1.00 -83.4 0 1 124.46 18.91
  Q 124.10 20.70 126.08 20.61
  A 1.01 0.99 72.6 0 1 126.96 21.08
  Q 128.11 22.90 125.47 22.73
  A 1.00 0.99 85.1 0 0 124.44 23.96
  Q 124.67 24.95 124.36 25.78
  A 1.01 1.00 25.5 0 0 124.80 27.00
  Z"
/>
<path fill="#0055a5" d="
  M 187.71 26.25
  C 185.95 25.69 186.87 28.49 188.29 27.25
  Q 189.35 28.02 189.20 28.98
  Q 188.90 30.93 187.61 32.84
  A 1.00 1.00 0.0 0 1 185.93 32.81
  Q 184.42 30.37 184.06 29.23
  Q 183.71 28.11 185.00 27.46
  Q 187.59 27.50 185.75 26.46
  L 185.13 23.56
  A 1.00 0.99 -6.6 0 0 184.13 22.77
  Q 182.30 22.82 183.31 21.05
  A 1.02 1.01 14.0 0 1 184.15 20.55
  Q 185.89 20.50 185.60 18.86
  A 1.00 1.00 0.0 0 1 186.49 17.70
  Q 188.30 17.53 188.01 19.44
  A 1.00 0.99 10.8 0 0 188.77 20.55
  L 189.66 20.77
  Q 192.13 21.37 189.91 22.62
  Q 189.48 22.85 188.80 23.04
  A 1.00 1.00 0.0 0 0 188.08 24.15
  Q 188.21 25.06 187.71 26.25
  Z"
/>
<path fill="#0055a5" d="
  M 202.73 19.79
  Q 199.71 19.56 201.47 17.43
  A 1.01 1.00 -61.5 0 1 202.54 17.11
  C 203.37 17.37 214.80 21.96 210.65 24.11
  A 1.00 0.98 36.7 0 1 209.97 24.20
  Q 206.07 23.35 203.42 20.15
  A 0.99 0.97 72.1 0 0 202.73 19.79
  Z"
/>
<path fill="#0055a5" d="
  M 107.46 37.27
  C 103.03 34.34 104.54 30.87 106.89 26.85
  Q 108.61 23.90 109.96 20.70
  A 1.00 0.99 35.2 0 1 111.62 20.42
  Q 112.50 21.38 112.83 22.62
  C 113.63 25.57 110.94 29.01 109.31 31.81
  Q 108.09 33.91 109.10 36.53
  Q 109.68 38.04 108.13 37.58
  Q 107.79 37.48 107.46 37.27
  Z"
/>
<path fill="#0055a5" d="
  M 198.21 20.80
  A 1.00 0.99 -42.0 0 1 199.93 20.89
  Q 201.70 24.32 203.64 27.77
  Q 205.50 31.06 205.42 33.01
  Q 205.30 35.97 202.52 37.31
  Q 200.83 38.13 201.09 36.27
  Q 201.21 35.46 201.26 34.65
  C 201.39 32.33 198.68 28.31 197.67 26.07
  Q 196.49 23.43 198.21 20.80
  Z"
/>
<path fill="#0055a5" d="
  M 216.52 24.58
  A 0.99 0.97 -64.3 0 1 216.87 25.60
  C 216.07 28.85 213.94 32.34 213.84 35.63
  C 213.77 38.12 214.42 40.62 213.58 43.00
  Q 213.24 43.98 212.86 44.93
  Q 211.93 47.24 211.34 44.82
  Q 210.79 42.57 210.17 40.27
  C 208.81 35.19 210.21 30.69 212.48 26.24
  A 1.04 1.00 55.2 0 0 212.58 25.62
  Q 211.81 20.92 216.52 24.58
  Z"
/>
<path fill="#0055a5" d="
  M 93.57 24.60
  Q 98.42 20.87 97.86 27.16
  A 0.99 0.96 -57.2 0 0 97.97 27.72
  C 99.92 31.43 101.32 35.24 100.11 39.54
  Q 99.48 41.81 98.86 44.08
  Q 98.14 46.72 96.99 44.24
  Q 96.49 43.17 96.26 42.03
  Q 96.04 40.97 96.43 37.91
  C 96.97 33.75 94.15 29.65 93.21 25.62
  A 1.02 1.02 0.0 0 1 93.57 24.60
  Z"
/>
<path fill="#619fd1" fill-opacity="0.992" d="
  M 187.71 26.25
  L 188.29 27.25
  C 186.87 28.49 185.95 25.69 187.71 26.25
  Z"
/>
<path fill="#619fd1" fill-opacity="0.992" d="
  M 185.75 26.46
  Q 187.59 27.50 185.00 27.46
  L 185.75 26.46
  Z"
/>
<path fill="#619fd1" fill-opacity="0.992" d="
  M 162.87 29.85
  Q 155.52 28.17 147.98 28.73
  Q 154.74 26.01 161.72 28.08
  Q 163.91 28.73 162.87 29.85
  Z"
/>
<path fill="#0055a5" d="
  M 119.23 37.08
  C 117.66 35.29 110.39 25.83 119.46 29.25
  A 1.02 1.01 2.4 0 1 120.08 29.92
  C 120.47 31.33 123.55 38.24 119.77 37.40
  A 1.02 0.99 74.9 0 1 119.23 37.08
  Z"
/>
<path fill="#0055a5" d="
  M 131.50 28.83
  A 1.00 1.00 0.0 0 1 132.04 30.27
  C 130.89 32.28 128.17 37.60 125.64 37.53
  A 1.01 1.00 -83.1 0 1 124.69 36.31
  C 125.50 32.68 126.00 26.94 131.50 28.83
  Z"
/>
<path fill="#0055a5" d="
  M 147.98 28.73
  Q 155.52 28.17 162.87 29.85
  Q 160.19 31.33 157.50 31.49
  A 0.99 0.99 0.0 0 0 156.64 32.87
  L 156.76 33.15
  A 1.03 1.00 47.3 0 1 156.74 33.97
  Q 155.76 36.00 153.87 34.84
  A 0.99 0.98 -69.4 0 1 153.41 33.82
  L 153.60 32.69
  A 1.00 1.00 0.0 0 0 152.75 31.53
  Q 150.79 31.26 148.87 31.06
  C 147.79 30.94 145.02 29.11 147.98 28.73
  Z"
/>
<path fill="#0055a5" d="
  M 184.75 38.21
  L 184.00 38.21
  C 182.31 36.82 177.64 31.70 178.75 29.28
  Q 179.42 27.83 182.00 28.67
  A 0.91 0.89 80.7 0 1 182.48 29.02
  Q 185.52 33.06 184.75 38.21
  Z"
/>
<path fill="#0055a5" d="
  M 189.50 38.21
  L 188.46 37.75
  Q 188.26 32.53 190.37 29.32
  A 1.05 1.03 -80.2 0 1 190.97 28.89
  C 194.05 28.14 196.20 28.34 194.47 31.80
  Q 192.63 35.48 189.50 38.21
  Z"
/>
<path fill="#0055a5" d="
  M 138.52 38.77
  Q 142.40 32.74 149.77 32.44
  Q 151.71 32.36 150.65 33.98
  Q 146.70 40.02 139.40 40.31
  Q 137.48 40.39 138.52 38.77
  Z"
/>
<path fill="#0055a5" d="
  M 171.46 41.00
  L 170.00 41.21
  Q 170.62 41.02 170.41 40.63
  A 0.43 0.41 77.6 0 0 170.08 40.41
  Q 163.08 39.80 159.50 34.05
  Q 158.48 32.41 160.41 32.52
  Q 167.67 32.92 171.81 38.89
  A 0.98 0.96 -52.3 0 1 171.92 39.82
  L 171.46 41.00
  Z"
/>
<path fill="#0055a5" d="
  M 29.63 55.74
  Q 24.97 53.41 28.43 57.30
  Q 30.49 59.61 32.84 61.63
  Q 43.73 70.97 56.92 76.58
  Q 58.08 77.07 58.66 77.93
  Q 59.18 78.69 59.53 79.52
  Q 60.33 81.39 58.36 80.88
  Q 43.05 76.87 29.93 68.08
  C 16.79 59.28 10.62 51.15 11.68 35.50
  A 1.00 1.00 0.0 0 1 13.13 34.68
  Q 20.95 38.68 27.42 44.60
  Q 40.87 56.89 54.49 69.00
  Q 55.99 70.33 56.32 72.97
  Q 56.62 75.47 54.68 73.86
  Q 44.13 65.11 32.75 57.55
  Q 31.23 56.54 29.63 55.74
  Z"
/>
<path fill="#0055a5" d="
  M 91.83 38.92
  C 88.79 40.16 89.68 38.62 90.80 36.97
  Q 90.87 36.86 90.97 36.78
  Q 96.12 32.26 94.80 38.43
  A 1.00 1.00 0.0 0 1 93.55 39.18
  L 92.48 38.88
  A 1.02 1.01 -48.1 0 0 91.83 38.92
  Z"
/>
<path fill="#0055a5" d="
  M 216.49 34.88
  Q 218.94 36.32 220.37 38.73
  Q 222.15 41.73 219.42 39.56
  Q 218.07 38.49 216.60 39.01
  A 1.00 1.00 0.0 0 1 215.27 38.19
  L 214.99 35.86
  Q 214.75 33.86 216.49 34.88
  Z"
/>
<path fill="#0055a5" d="
  M 283.23 54.81
  C 282.47 54.12 274.80 59.14 273.40 60.14
  Q 264.02 66.90 254.98 74.12
  Q 252.87 75.80 253.72 73.25
  Q 254.11 72.06 254.57 70.85
  Q 255.24 69.11 256.77 67.79
  C 267.98 58.14 277.96 47.14 290.05 38.55
  Q 293.31 36.24 296.97 34.83
  A 1.00 0.99 -13.9 0 1 298.32 35.64
  C 299.89 48.42 294.74 57.17 284.59 64.85
  Q 269.77 76.06 251.88 80.68
  Q 249.66 81.25 250.75 79.24
  Q 251.09 78.61 251.49 78.01
  Q 252.14 77.03 253.43 76.49
  Q 270.64 69.15 283.25 55.39
  A 0.42 0.40 -48.0 0 0 283.23 54.81
  Z"
/>
<path fill="#619fd1" fill-opacity="0.992" d="
  M 188.46 37.75
  L 189.50 38.21
  L 189.79 38.50
  Q 186.77 39.66 183.75 38.29
  L 184.00 38.21
  L 184.75 38.21
  L 188.46 37.75
  Z"
/>
<ellipse fill="#0055a5" cx="0.00" cy="0.00" transform="translate(123.19,39.26) rotate(-0.9)" rx="5.31" ry="1.20"/>
<path fill="#0055a5" d="
  M 183.75 38.29
  Q 186.77 39.66 189.79 38.50
  Q 193.76 39.05 190.06 40.39
  Q 187.89 41.18 182.17 39.80
  A 0.64 0.64 0.0 0 1 181.85 38.74
  Q 182.40 38.16 183.75 38.29
  Z"
/>
<path fill="#0055a5" d="
  M 118.09 41.02
  C 123.08 44.61 134.38 42.60 144.69 42.04
  Q 143.72 43.45 144.64 44.44
  A 1.00 1.00 0.0 0 1 144.58 45.86
  L 143.64 46.72
  A 1.00 1.00 0.0 0 0 143.63 48.19
  Q 145.93 50.35 149.01 50.88
  C 149.78 51.01 150.30 51.35 149.87 52.16
  A 0.80 0.78 -82.9 0 1 149.40 52.54
  Q 144.35 54.14 139.85 51.13
  A 0.98 0.96 7.0 0 1 139.46 50.64
  Q 139.35 50.34 139.16 50.10
  Q 137.90 48.52 138.03 50.54
  Q 138.08 51.37 137.37 51.67
  A 1.01 0.99 -42.5 0 1 136.53 51.64
  L 136.14 51.44
  A 0.51 0.51 0.0 0 0 135.40 51.89
  L 135.39 52.33
  A 0.80 0.80 0.0 0 1 134.33 53.08
  Q 132.99 52.61 132.65 53.76
  A 1.00 1.00 0.0 0 1 131.21 54.35
  L 126.56 51.81
  A 1.00 1.00 0.0 0 0 125.08 52.61
  L 125.02 53.42
  A 1.01 1.00 15.1 0 0 125.59 54.40
  C 129.81 56.41 133.88 58.35 135.05 62.96
  Q 135.18 63.48 134.90 63.90
  A 0.64 0.64 0.0 0 1 133.90 63.98
  Q 130.29 60.09 125.81 57.19
  Q 124.07 56.07 124.46 54.27
  A 1.00 0.99 -70.9 0 0 123.93 53.16
  Q 116.88 49.66 116.79 41.39
  A 0.83 0.82 -23.3 0 1 117.02 40.82
  Q 117.63 40.19 118.09 41.02
  Z
  M 126.21 45.50
  Q 120.61 43.73 122.79 48.00
  Q 122.57 49.28 125.27 48.49
  A 1.00 0.99 8.9 0 0 125.81 48.10
  L 127.15 46.15
  A 1.02 1.00 -71.6 0 1 127.99 45.72
  L 130.10 45.76
  A 0.41 0.40 -87.0 0 0 130.51 45.38
  C 130.61 44.15 127.16 45.12 126.21 45.50
  Z"
/>
<path fill="#619fd1" fill-opacity="0.992" d="
  M 144.69 42.04
  C 134.38 42.60 123.08 44.61 118.09 41.02
  Q 131.51 42.88 144.81 40.62
  A 0.51 0.51 0.0 0 1 145.39 40.98
  Q 145.60 41.70 144.69 42.04
  Z"
/>
<path fill="#619fd1" fill-opacity="0.992" d="
  M 170.00 41.21
  L 171.46 41.00
  L 171.72 41.34
  A 1.00 0.98 71.1 0 0 172.51 41.74
  C 179.15 41.76 185.82 42.31 192.31 40.66
  A 0.80 0.79 -7.4 0 1 193.31 41.42
  Q 193.31 41.69 193.20 42.03
  Q 179.38 43.35 165.50 42.06
  C 162.04 39.29 169.61 41.20 170.00 41.21
  Z"
/>
<path fill="#0055a5" d="
  M 114.30 46.04
  Q 112.99 44.48 112.64 42.34
  A 1.02 1.01 58.3 0 1 112.81 41.61
  C 114.05 39.82 115.20 41.49 115.50 42.73
  Q 115.82 43.99 116.05 45.20
  Q 116.77 48.96 114.30 46.04
  Z"
/>
<path fill="#0055a5" d="
  M 194.65 42.17
  Q 195.38 39.45 197.24 41.49
  A 1.00 0.98 30.5 0 1 197.48 42.39
  Q 197.01 44.42 195.71 45.93
  Q 193.24 48.80 193.97 45.09
  Q 194.26 43.61 194.65 42.17
  Z"
/>
<path fill="#0055a5" d="
  M 193.20 42.03
  Q 192.85 49.43 186.54 52.57
  A 1.00 1.00 0.0 0 1 185.12 51.90
  Q 184.78 50.38 183.69 51.42
  Q 183.03 52.05 182.60 52.28
  Q 180.65 53.34 178.71 54.36
  A 1.01 1.00 -21.5 0 1 177.28 53.74
  Q 177.07 53.01 176.34 52.80
  A 0.80 0.79 2.8 0 0 175.33 53.71
  Q 175.60 55.17 176.60 55.91
  A 1.00 1.00 0.0 0 1 176.66 57.47
  Q 172.94 60.67 170.41 64.88
  Q 169.21 66.88 168.59 64.63
  Q 168.44 64.07 168.69 63.45
  Q 169.47 61.57 173.13 54.99
  A 1.04 1.04 0.0 0 1 173.58 54.57
  L 174.01 54.38
  A 0.81 0.81 0.0 0 0 174.47 53.62
  L 174.43 52.49
  A 1.00 1.00 0.0 0 0 173.04 51.61
  L 172.72 51.74
  A 0.41 0.41 0.0 0 1 172.16 51.43
  L 172.06 50.84
  Q 171.82 49.44 170.75 50.36
  Q 166.51 54.01 160.90 52.76
  A 1.02 1.02 0.0 0 1 160.27 52.30
  C 159.22 50.57 161.60 50.82 162.43 50.46
  Q 164.14 49.73 166.35 48.25
  A 1.00 1.00 0.0 0 0 166.33 46.57
  Q 164.11 45.16 165.66 43.84
  A 1.01 1.01 0.0 0 0 165.81 42.48
  L 165.50 42.06
  Q 179.38 43.35 193.20 42.03
  Z
  M 182.50 45.78
  C 183.83 44.98 176.34 44.70 181.92 45.88
  A 0.83 0.82 35.0 0 0 182.50 45.78
  Z
  M 185.95 45.03
  Q 183.42 45.17 185.37 46.80
  L 186.16 47.46
  A 1.00 0.99 31.4 0 0 187.72 47.09
  Q 188.66 44.88 185.95 45.03
  Z"
/>
<path fill="#0055a5" d="
  M 120.50 53.46
  Q 119.44 53.54 118.53 53.95
  Q 114.22 55.85 118.84 54.92
  Q 120.48 54.58 122.25 54.71
  Q 123.39 55.52 124.07 56.88
  A 1.01 1.00 -17.9 0 1 123.33 58.32
  Q 118.36 59.10 115.73 63.19
  Q 114.70 64.78 113.96 63.03
  Q 112.20 58.82 115.75 55.85
  A 1.00 1.00 0.0 0 0 115.64 54.23
  Q 110.64 51.17 105.25 54.27
  A 1.01 1.00 -36.8 0 1 104.03 54.10
  C 99.61 49.56 101.68 41.21 109.39 43.96
  A 1.09 1.06 82.8 0 1 109.89 44.36
  C 112.83 48.87 118.77 48.75 120.50 53.46
  Z
  M 108.93 50.95
  A 0.80 0.80 0.0 0 0 109.88 50.19
  Q 109.95 48.40 108.79 48.59
  A 0.80 0.80 0.0 0 0 108.18 49.10
  Q 107.58 50.69 108.93 50.95
  Z"
/>
<path fill="#0055a5" d="
  M 194.06 55.62
  Q 194.68 56.30 195.30 56.99
  Q 196.40 58.24 196.58 59.41
  Q 196.86 61.18 196.16 63.15
  Q 195.45 65.18 194.36 63.33
  Q 191.78 58.96 186.49 58.26
  Q 184.49 57.99 185.91 56.56
  Q 187.82 54.64 189.89 52.37
  C 193.34 48.61 197.33 48.48 200.15 44.22
  A 1.01 0.99 -79.3 0 1 200.75 43.80
  C 208.66 41.93 211.16 50.75 205.71 54.23
  A 1.00 0.98 42.8 0 1 204.68 54.26
  Q 199.47 51.29 194.32 54.07
  A 0.99 0.99 0.0 0 0 194.06 55.62
  Z
  M 201.55 49.24
  Q 200.40 47.79 200.13 49.62
  Q 199.96 50.80 201.43 50.73
  Q 202.67 50.67 201.90 49.69
  L 201.55 49.24
  Z
  M 190.14 54.68
  C 193.55 55.51 190.23 52.47 189.77 54.04
  A 0.51 0.50 15.6 0 0 190.14 54.68
  Z"
/>
<path fill="#619fd1" fill-opacity="0.992" d="
  M 122.79 48.00
  L 126.21 45.50
  C 127.16 45.12 130.61 44.15 130.51 45.38
  A 0.41 0.40 -87.0 0 1 130.10 45.76
  L 127.99 45.72
  A 1.02 1.00 -71.6 0 0 127.15 46.15
  L 125.81 48.10
  A 1.00 0.99 8.9 0 1 125.27 48.49
  Q 122.57 49.28 122.79 48.00
  Z"
/>
<path fill="#619fd1" fill-opacity="0.992" d="
  M 181.92 45.88
  C 176.34 44.70 183.83 44.98 182.50 45.78
  A 0.83 0.82 35.0 0 1 181.92 45.88
  Z"
/>
<path fill="#0055a5" d="
  M 65.80 52.74
  C 76.90 56.60 78.73 66.91 81.68 76.95
  Q 82.29 79.01 83.06 80.65
  Q 84.14 82.92 81.94 81.68
  Q 74.58 77.53 69.29 71.12
  C 64.87 65.75 63.46 60.27 64.48 53.54
  A 1.01 1.00 13.7 0 1 65.80 52.74
  Z"
/>
<path fill="#0055a5" d="
  M 244.28 52.60
  Q 245.53 54.99 245.61 57.52
  Q 246.12 64.38 242.20 69.46
  Q 236.13 77.30 227.88 81.86
  Q 225.79 83.02 226.76 80.84
  Q 228.79 76.30 230.18 71.54
  C 233.01 61.83 235.13 56.42 244.28 52.60
  Z"
/>
<path fill="#619fd1" fill-opacity="0.992" d="
  M 244.28 52.60
  Q 247.39 54.23 245.61 57.52
  Q 245.53 54.99 244.28 52.60
  Z"
/>
<path fill="#0055a5" d="
  M 141.65 54.87
  Q 147.04 59.07 146.11 65.69
  Q 145.55 69.63 144.18 65.89
  Q 142.32 60.84 139.34 55.88
  C 137.04 52.06 140.29 53.81 141.65 54.87
  Z"
/>
<path fill="#0055a5" d="
  M 168.00 54.97
  Q 169.44 53.67 170.29 53.30
  C 173.32 51.98 166.40 63.90 166.19 64.27
  Q 166.08 64.47 166.06 64.69
  Q 166.01 65.24 165.90 65.77
  Q 164.70 71.08 163.93 65.69
  Q 163.04 59.43 168.00 54.97
  Z"
/>
<path fill="#619fd1" fill-opacity="0.992" d="
  M 120.50 53.46
  L 122.25 54.71
  Q 120.48 54.58 118.84 54.92
  Q 114.22 55.85 118.53 53.95
  Q 119.44 53.54 120.50 53.46
  Z"
/>
<path fill="#619fd1" fill-opacity="0.992" d="
  M 189.77 54.04
  C 190.23 52.47 193.55 55.51 190.14 54.68
  A 0.51 0.50 15.6 0 1 189.77 54.04
  Z"
/>
<path fill="#0055a5" d="
  M 158.99 57.05
  Q 160.91 54.32 164.40 54.06
  A 1.00 0.99 -79.9 0 1 165.38 55.47
  Q 163.21 60.26 158.48 62.33
  Q 156.61 63.14 157.11 61.16
  Q 157.67 58.92 158.99 57.05
  Z"
/>
<path fill="#0055a5" d="
  M 148.56 54.94
  Q 151.90 57.31 153.14 61.49
  Q 153.86 63.91 151.68 62.64
  Q 147.25 60.05 144.67 55.69
  A 1.00 1.00 0.0 0 1 145.51 54.18
  Q 147.43 54.14 148.56 54.94
  Z"
/>
<path fill="#0055a5" d="
  M 133.58 55.78
  C 135.63 49.89 140.59 62.07 140.95 62.99
  Q 141.31 63.90 141.27 64.86
  Q 141.13 67.65 139.77 65.22
  Q 137.00 60.26 132.50 56.84
  Q 131.85 56.34 132.66 56.25
  L 133.04 56.21
  A 0.67 0.66 -83.4 0 0 133.58 55.78
  Z"
/>
<path fill="#0055a5" d="
  M 176.26 60.48
  Q 179.53 55.73 185.20 54.49
  A 0.40 0.40 0.0 0 1 185.69 54.83
  L 185.74 55.14
  A 0.83 0.82 61.8 0 1 185.55 55.79
  C 183.32 58.31 180.56 59.67 178.31 61.80
  Q 177.75 62.33 177.21 62.89
  Q 173.98 66.29 175.54 61.87
  Q 175.80 61.15 176.26 60.48
  Z"
/>
<path fill="#0055a5" d="
  M 127.69 60.57
  C 130.01 62.36 134.06 65.60 135.42 68.04
  A 0.96 0.96 0.0 0 1 135.52 68.72
  L 134.44 74.18
  Q 133.97 76.57 132.93 74.37
  Q 131.05 70.38 129.98 66.03
  Q 129.25 63.02 125.59 61.46
  Q 123.59 60.60 125.67 59.96
  Q 126.55 59.69 127.69 60.57
  Z"
/>
<path fill="#0055a5" d="
  M 184.57 60.17
  Q 186.34 60.92 184.56 61.65
  Q 182.69 62.42 181.43 63.78
  Q 180.45 64.84 179.71 67.51
  Q 178.74 71.00 177.21 74.27
  Q 176.20 76.42 175.70 74.09
  L 174.57 68.77
  A 0.98 0.97 -33.8 0 1 174.73 67.98
  C 176.08 66.11 181.34 59.95 183.63 59.98
  Q 184.12 59.98 184.57 60.17
  Z"
/>
<path fill="#0055a5" d="
  M 155.20 62.92
  Q 158.67 64.41 159.90 67.99
  A 1.01 0.99 50.5 0 1 159.83 68.81
  L 155.93 75.68
  Q 155.08 77.19 154.20 75.69
  L 150.63 69.56
  Q 149.37 67.39 150.84 66.07
  L 154.14 63.09
  A 0.99 0.98 35.5 0 1 155.20 62.92
  Z"
/>
<path fill="#0055a5" d="
  M 82.75 98.29
  Q 84.84 99.23 86.94 98.57
  Q 88.39 98.11 86.96 97.60
  Q 86.35 97.38 85.50 97.71
  Q 86.68 97.51 85.78 96.97
  Q 80.29 93.71 79.58 88.01
  A 1.00 1.00 0.0 0 1 80.44 86.90
  Q 86.41 86.06 91.75 88.75
  Q 91.36 89.54 91.93 89.84
  A 0.64 0.64 0.0 0 0 92.80 89.56
  Q 93.21 88.75 91.75 88.75
  C 91.92 87.12 86.27 82.48 85.23 80.79
  Q 80.86 73.71 81.58 65.21
  Q 81.79 62.69 83.07 64.87
  Q 84.33 67.03 85.80 69.16
  C 89.37 74.32 95.71 79.50 100.59 82.65
  Q 105.01 85.51 105.51 89.94
  C 106.31 96.96 92.51 111.15 105.99 113.43
  Q 112.73 114.57 119.20 112.80
  A 1.00 1.00 0.0 0 1 120.34 113.28
  L 124.04 120.06
  A 1.00 1.00 0.0 0 1 123.33 121.53
  L 120.00 122.09
  A 1.01 1.00 85.8 0 0 119.17 123.06
  L 119.07 128.78
  A 1.00 0.99 7.2 0 1 117.84 129.73
  Q 113.89 128.79 111.82 125.56
  A 1.00 1.00 0.0 0 0 110.33 125.34
  L 106.14 128.92
  Q 103.92 130.82 103.13 127.57
  L 101.91 122.52
  Q 101.70 121.64 101.05 122.28
  Q 100.78 122.55 100.73 123.00
  A 1.01 1.01 0.0 0 1 100.44 123.60
  Q 97.29 126.68 93.07 127.92
  A 0.99 0.99 0.0 0 1 91.88 127.37
  Q 89.58 122.21 92.05 117.37
  Q 92.97 115.58 91.07 116.25
  Q 87.03 117.68 82.72 116.82
  A 1.00 1.00 0.0 0 1 81.96 115.53
  Q 83.20 111.77 86.12 109.10
  Q 87.59 107.75 85.62 107.38
  Q 80.29 106.38 77.57 101.61
  A 1.01 1.00 56.5 0 1 77.83 100.32
  Q 79.80 98.81 82.75 98.29
  Z"
/>
<path fill="#0055a5" d="
  M 193.75 113.79
  Q 198.27 115.81 202.75 113.79
  Q 206.65 113.16 209.47 110.60
  A 1.01 1.00 70.5 0 0 209.80 109.90
  C 210.15 101.26 199.03 89.45 208.45 83.20
  Q 215.67 78.42 221.62 72.12
  Q 224.86 68.71 227.05 64.55
  Q 228.30 62.18 228.55 64.85
  Q 229.31 72.85 225.49 79.86
  C 223.82 82.93 221.04 85.21 218.44 87.67
  C 217.96 88.13 217.80 89.48 218.96 88.77
  Q 223.86 85.77 229.73 86.99
  A 1.01 0.99 -79.6 0 1 230.51 88.14
  Q 229.48 94.09 223.95 96.95
  Q 223.46 97.21 223.81 97.60
  A 0.50 0.50 0.0 0 0 224.17 97.78
  Q 228.58 98.01 232.32 100.29
  A 1.01 1.00 31.7 0 1 232.65 101.68
  Q 229.71 106.31 224.44 107.41
  Q 222.46 107.82 224.00 109.14
  Q 227.04 111.77 228.02 115.68
  A 0.99 0.99 0.0 0 1 227.27 116.90
  Q 222.97 117.84 219.05 116.26
  Q 217.09 115.47 218.04 117.36
  Q 220.41 122.10 218.20 127.29
  A 0.99 0.99 0.0 0 1 217.08 127.87
  Q 212.51 126.91 209.61 123.49
  Q 208.37 122.02 207.88 123.88
  L 206.96 127.41
  Q 206.33 129.83 203.82 128.70
  Q 201.36 127.59 200.04 125.35
  A 1.01 1.00 -44.8 0 0 198.32 125.35
  Q 196.27 128.75 192.38 129.59
  A 1.00 1.00 0.0 0 1 191.18 128.70
  L 190.64 122.94
  A 1.00 0.99 -4.9 0 0 189.56 122.04
  Q 187.87 122.18 186.39 121.42
  A 0.99 0.99 0.0 0 1 185.97 120.06
  L 189.53 113.43
  A 1.01 1.01 0.0 0 1 190.40 112.90
  Q 192.17 112.88 193.75 113.79
  Z"
/>
<path fill="#0055a5" d="
  M 140.03 68.43
  A 1.00 1.00 0.0 0 1 141.74 68.38
  C 143.60 71.29 144.37 74.09 142.99 77.45
  Q 141.85 80.24 140.00 82.62
  Q 138.76 84.22 138.24 82.27
  Q 136.32 74.97 140.03 68.43
  Z"
/>
<path fill="#0055a5" d="
  M 167.95 68.66
  A 1.00 1.00 0.0 0 1 169.53 68.43
  C 173.14 71.98 172.53 78.67 171.85 83.22
  A 0.66 0.64 81.4 0 1 171.50 83.71
  Q 170.83 84.03 170.42 83.32
  C 167.38 77.95 164.45 75.00 167.95 68.66
  Z"
/>
<path fill="#0055a5" d="
  M 147.06 69.91
  Q 147.89 67.73 148.90 69.83
  Q 150.36 72.87 151.58 76.23
  C 153.27 80.89 148.99 84.36 146.62 87.62
  A 1.00 0.99 -43.9 0 1 144.99 87.59
  C 142.18 83.43 143.49 80.64 145.13 75.46
  Q 146.01 72.66 147.06 69.91
  Z"
/>
<path fill="#0055a5" d="
  M 161.12 69.65
  Q 162.07 67.31 162.98 69.67
  C 164.24 72.95 167.54 81.73 166.30 85.03
  Q 165.82 86.30 164.94 87.56
  A 1.00 1.00 0.0 0 1 163.31 87.57
  L 158.65 81.09
  Q 157.25 79.13 158.06 77.14
  L 161.12 69.65
  Z"
/>
<path fill="#619fd1" fill-opacity="0.992" d="
  M 310.00 69.23
  L 310.00 70.31
  L 309.71 70.50
  C 307.63 69.15 302.79 69.75 300.29 69.75
  Q 300.03 69.75 299.81 69.88
  Q 296.99 71.41 294.00 70.29
  Q 301.93 68.54 310.00 69.23
  Z"
/>
<path fill="#619fd1" fill-opacity="0.992" d="
  M 9.00 69.29
  Q 9.03 69.46 8.98 69.60
  A 0.34 0.33 -74.2 0 1 8.61 69.81
  Q 4.29 68.99 0.51 70.86
  L 0.00 70.44
  L 0.00 69.19
  L 9.00 69.29
  Z"
/>
<path fill="#0055a5" d="
  M 9.00 69.29
  L 11.10 69.79
  Q 13.42 71.60 16.00 70.46
  C 29.16 72.35 42.57 77.55 56.23 82.55
  Q 60.46 84.10 63.45 85.55
  Q 65.20 86.39 63.36 87.02
  L 59.49 88.36
  A 1.02 0.99 45.8 0 1 58.79 88.34
  C 49.80 84.69 39.68 81.05 29.98 80.29
  A 0.44 0.40 20.5 0 0 29.64 80.43
  C 27.86 82.47 51.02 88.50 52.26 88.72
  Q 56.87 89.52 58.52 89.92
  A 1.02 1.02 0.0 0 1 59.21 90.53
  Q 60.15 92.94 61.79 94.85
  Q 63.39 96.69 61.01 96.15
  Q 59.78 95.87 58.61 95.41
  C 51.79 92.77 44.08 91.57 36.95 89.99
  C 23.33 86.98 9.23 82.39 0.51 70.86
  Q 4.29 68.99 8.61 69.81
  A 0.34 0.33 -74.2 0 0 8.98 69.60
  Q 9.03 69.46 9.00 69.29
  Z"
/>
<path fill="#619fd1" fill-opacity="0.992" d="
  M 11.10 69.79
  Q 13.79 69.65 16.00 70.46
  Q 13.42 71.60 11.10 69.79
  Z"
/>
<path fill="#0055a5" d="
  M 309.71 70.50
  C 301.75 82.45 287.33 86.34 274.19 89.36
  Q 261.90 92.17 249.79 95.68
  Q 247.03 96.48 248.70 94.14
  L 251.60 90.07
  A 1.01 0.99 -75.9 0 1 252.27 89.66
  Q 267.30 87.45 280.16 81.17
  C 280.93 80.79 280.30 80.23 279.69 80.29
  C 269.72 81.37 260.26 84.65 250.96 88.23
  A 1.00 0.99 43.0 0 1 250.29 88.25
  L 246.84 87.12
  Q 244.23 86.26 246.78 85.24
  Q 261.42 79.36 276.47 74.67
  Q 285.11 71.97 294.00 70.29
  Q 296.99 71.41 299.81 69.88
  Q 300.03 69.75 300.29 69.75
  C 302.79 69.75 307.63 69.15 309.71 70.50
  Z"
/>
<path fill="#0055a5" d="
  M 81.08 83.78
  Q 82.60 85.06 80.66 85.51
  C 78.99 85.91 77.63 86.94 75.89 87.15
  C 72.44 87.58 69.31 87.03 66.47 84.83
  Q 60.45 80.16 57.93 72.61
  Q 57.30 70.69 59.21 71.35
  Q 71.32 75.51 81.08 83.78
  Z"
/>
<path fill="#0055a5" d="
  M 229.37 85.60
  Q 226.65 85.86 228.61 84.16
  Q 238.57 75.56 251.04 71.19
  Q 253.25 70.42 252.28 72.55
  C 248.84 80.12 244.82 87.28 235.26 87.18
  Q 232.41 87.15 229.96 85.73
  A 1.00 0.96 -31.4 0 0 229.37 85.60
  Z"
/>
<path fill="#0055a5" d="
  M 154.35 92.04
  Q 152.09 89.90 151.23 86.80
  A 1.00 1.00 0.0 0 1 151.26 86.17
  Q 152.32 83.35 154.17 80.97
  A 1.01 1.00 46.4 0 1 155.78 81.01
  Q 156.69 82.29 157.56 83.61
  Q 158.80 85.47 158.55 87.20
  Q 158.11 90.20 155.65 92.10
  A 1.00 0.99 47.3 0 1 154.35 92.04
  Z"
/>
<path fill="#0055a5" d="
  M 127.19 92.31
  Q 126.22 91.85 125.73 91.10
  A 1.00 1.00 0.0 0 1 126.34 89.59
  Q 132.54 88.06 135.25 82.30
  Q 136.40 79.88 136.77 82.53
  Q 137.43 87.23 134.05 91.08
  Q 131.27 94.26 127.19 92.31
  Z"
/>
<path fill="#0055a5" d="
  M 183.91 89.57
  Q 185.77 89.98 184.38 91.28
  C 177.58 97.66 172.92 87.26 173.23 81.91
  C 173.32 80.48 174.32 81.07 174.62 81.85
  Q 176.94 88.06 183.91 89.57
  Z"
/>
<path fill="#0055a5" d="
  M 180.08 96.47
  C 184.25 98.95 188.11 97.68 189.54 92.99
  A 0.64 0.64 0.0 0 1 190.20 92.54
  C 190.46 92.56 191.07 93.08 191.15 93.32
  Q 194.27 102.33 186.59 105.70
  C 178.45 109.26 170.88 91.71 169.75 86.10
  C 169.69 85.78 169.10 85.06 169.85 85.04
  A 0.55 0.54 -16.1 0 1 170.31 85.29
  C 172.60 89.14 175.83 93.93 180.08 96.47
  Z"
/>
<path fill="#0055a5" d="
  M 130.31 103.81
  C 122.75 110.78 116.57 101.34 118.80 93.71
  Q 119.66 90.77 120.70 93.65
  Q 121.84 96.80 124.63 97.57
  C 130.21 99.11 137.11 89.93 139.35 85.64
  Q 139.65 85.07 140.06 85.30
  A 0.40 0.40 0.0 0 1 140.26 85.72
  Q 138.45 96.32 130.31 103.81
  Z"
/>
<path fill="#0055a5" d="
  M 141.31 88.07
  Q 141.90 85.20 143.19 87.84
  Q 144.23 89.98 143.66 92.23
  Q 142.03 98.65 139.00 104.51
  Q 138.17 106.12 137.25 104.56
  L 135.58 101.73
  A 1.01 0.99 48.5 0 1 135.64 100.62
  Q 139.88 94.96 141.31 88.07
  Z"
/>
<path fill="#0055a5" d="
  M 166.81 88.23
  Q 167.99 84.45 168.75 88.33
  Q 169.79 93.67 172.86 98.15
  Q 174.29 100.24 174.12 101.72
  Q 173.91 103.49 172.62 104.85
  A 1.00 1.00 0.0 0 1 171.00 104.60
  Q 168.48 99.54 166.80 94.21
  Q 166.18 92.21 166.32 90.69
  Q 166.43 89.44 166.81 88.23
  Z"
/>
<path fill="#619fd1" fill-opacity="0.992" d="
  M 69.25 88.54
  Q 66.69 89.69 64.25 88.29
  Q 66.81 87.54 69.25 88.54
  Z"
/>
<path fill="#619fd1" fill-opacity="0.992" d="
  M 245.75 88.46
  Q 243.58 89.54 241.50 88.29
  Q 243.66 87.53 245.75 88.46
  Z"
/>
<path fill="#0055a5" d="
  M 64.25 88.29
  Q 66.69 89.69 69.25 88.54
  L 71.12 89.00
  Q 74.27 90.81 77.42 89.04
  C 78.82 91.15 79.66 93.29 81.23 95.37
  Q 81.40 95.60 81.51 95.85
  A 0.99 0.99 0.0 0 1 80.86 97.20
  Q 74.52 98.98 67.94 96.78
  Q 63.03 95.13 60.93 90.70
  A 0.99 0.99 0.0 0 1 61.23 89.48
  Q 62.61 88.45 64.25 88.29
  Z"
/>
<path fill="#0055a5" d="
  M 241.50 88.29
  Q 243.58 89.54 245.75 88.46
  C 254.53 89.12 244.17 96.26 241.90 97.02
  Q 235.45 99.17 229.08 97.17
  A 0.99 0.99 0.0 0 1 228.58 95.63
  Q 230.69 92.77 231.93 89.44
  Q 232.15 88.84 232.75 89.04
  Q 236.29 90.54 239.75 88.79
  L 241.50 88.29
  Z"
/>
<path fill="#0055a5" d="
  M 148.74 105.48
  C 146.73 103.50 142.67 100.51 143.98 96.75
  Q 145.38 92.73 148.36 89.36
  Q 149.58 87.98 150.07 89.75
  Q 151.22 93.85 148.42 97.34
  A 1.05 1.00 67.4 0 0 148.20 97.92
  Q 148.08 100.87 149.69 104.78
  C 150.11 105.81 149.47 106.20 148.74 105.48
  Z"
/>
<path fill="#619fd1" fill-opacity="0.992" d="
  M 71.12 89.00
  Q 74.22 88.46 77.42 89.04
  Q 74.27 90.81 71.12 89.00
  Z"
/>
<path fill="#619fd1" fill-opacity="0.992" d="
  M 91.75 88.75
  Q 93.21 88.75 92.80 89.56
  A 0.64 0.64 0.0 0 1 91.93 89.84
  Q 91.36 89.54 91.75 88.75
  Z"
/>
<path fill="#0055a5" d="
  M 161.48 105.14
  Q 161.29 105.71 160.86 105.94
  Q 159.69 106.57 160.31 105.39
  C 164.00 98.29 158.72 96.19 160.02 89.84
  Q 160.49 87.58 161.82 89.47
  C 165.59 94.80 169.42 99.99 161.90 104.61
  A 0.99 0.96 -7.4 0 0 161.48 105.14
  Z"
/>
<path fill="#619fd1" fill-opacity="0.992" d="
  M 239.75 88.79
  Q 236.29 90.54 232.75 89.04
  L 239.75 88.79
  Z"
/>
<path fill="#0055a5" d="
  M 26.50 90.79
  C 26.46 92.56 30.40 91.70 31.25 91.29
  Q 45.89 92.84 59.94 97.49
  Q 62.74 98.42 59.95 99.39
  Q 59.62 99.50 59.15 99.60
  Q 58.54 99.73 57.84 99.54
  Q 44.20 95.78 30.01 96.92
  Q 29.17 96.98 29.37 97.53
  A 0.43 0.41 85.5 0 0 29.66 97.79
  Q 42.33 100.66 55.31 100.98
  A 1.01 1.00 -86.8 0 1 56.28 102.07
  Q 56.14 103.68 54.49 103.82
  C 34.74 105.53 17.52 103.36 1.00 92.96
  Q 2.42 91.64 4.44 91.73
  C 5.31 91.77 7.01 90.98 4.25 90.96
  Q 15.36 89.78 26.50 90.79
  Z"
/>
<path fill="#0055a5" d="
  M 303.50 90.79
  C 304.84 91.86 308.25 91.65 308.54 93.00
  Q 293.61 102.79 278.19 103.91
  Q 274.32 104.19 256.69 103.97
  Q 255.22 103.95 254.57 103.50
  Q 253.85 103.00 253.77 102.15
  A 1.00 1.00 0.0 0 1 254.74 101.06
  Q 265.49 100.80 275.99 98.68
  Q 284.30 97.00 275.83 96.70
  Q 263.93 96.27 252.37 99.45
  Q 251.26 99.75 250.59 99.60
  Q 250.14 99.50 249.71 99.29
  Q 248.00 98.43 249.81 97.82
  Q 276.12 88.84 303.50 90.79
  Z"
/>
<path fill="#619fd1" fill-opacity="0.992" d="
  M 26.50 90.79
  L 31.25 91.29
  C 30.40 91.70 26.46 92.56 26.50 90.79
  Z"
/>
<path fill="#619fd1" fill-opacity="0.992" d="
  M 303.50 90.79
  Q 306.85 90.66 310.00 91.81
  L 310.00 92.56
  L 308.54 93.00
  C 308.25 91.65 304.84 91.86 303.50 90.79
  Z"
/>
<path fill="#619fd1" fill-opacity="0.992" d="
  M 4.25 90.96
  C 7.01 90.98 5.31 91.77 4.44 91.73
  Q 2.42 91.64 1.00 92.96
  L 0.00 92.19
  L 0.00 91.94
  Q 1.96 90.81 4.25 90.96
  Z"
/>
<path fill="#0055a5" d="
  M 155.02 94.26
  L 156.46 93.78
  A 1.01 1.00 -27.1 0 1 157.59 94.14
  Q 162.74 101.24 155.63 107.34
  A 1.00 1.00 0.0 0 1 154.31 107.32
  Q 147.54 101.19 152.46 94.13
  A 1.00 0.97 14.2 0 1 153.19 93.71
  Q 153.80 93.66 154.20 94.06
  A 0.81 0.81 0.0 0 0 155.02 94.26
  Z"
/>
<path fill="#619fd1" fill-opacity="0.992" d="
  M 82.75 98.29
  L 85.50 97.71
  Q 86.35 97.38 86.96 97.60
  Q 88.39 98.11 86.94 98.57
  Q 84.84 99.23 82.75 98.29
  Z"
/>
<path fill="#0055a5" d="
  M 57.71 102.75
  Q 60.69 102.01 62.86 99.79
  Q 68.96 97.50 74.88 100.80
  Q 75.10 100.92 75.23 101.12
  L 77.89 105.18
  A 1.00 1.00 0.0 0 1 77.49 106.63
  Q 66.89 111.75 57.10 105.67
  A 1.02 1.01 16.2 0 1 56.62 104.81
  Q 56.64 103.56 57.71 102.75
  Z"
/>
<path fill="#0055a5" d="
  M 251.65 102.05
  Q 254.60 104.14 251.87 106.23
  C 249.39 108.12 245.18 109.15 241.89 108.91
  Q 236.96 108.53 232.35 106.65
  A 1.00 1.00 0.0 0 1 231.90 105.17
  L 234.71 100.98
  A 0.97 0.93 -83.7 0 1 235.13 100.63
  Q 243.98 96.62 251.65 102.05
  Z"
/>
<path fill="#619fd1" fill-opacity="0.992" d="
  M 62.86 99.79
  Q 60.69 102.01 57.71 102.75
  Q 59.69 100.48 62.86 99.79
  Z"
/>
<path fill="#0055a5" d="
  M 143.57 103.10
  C 147.42 106.33 150.06 110.45 147.16 115.10
  Q 145.84 117.22 144.60 119.49
  A 1.00 1.00 0.0 0 1 142.96 119.66
  Q 141.35 117.77 139.89 115.84
  C 136.92 111.91 139.51 106.05 142.20 103.19
  A 1.00 0.99 -48.4 0 1 143.57 103.10
  Z"
/>
<path fill="#0055a5" d="
  M 167.88 103.26
  C 170.84 106.37 172.90 112.16 170.02 116.04
  Q 168.60 117.96 167.02 119.74
  A 1.00 1.00 0.0 0 1 165.39 119.55
  Q 164.18 117.28 162.89 115.13
  C 160.13 110.50 162.43 105.89 166.60 103.12
  A 1.00 1.00 0.0 0 1 167.88 103.26
  Z"
/>
<path fill="#0055a5" d="
  M 133.23 103.60
  A 1.00 1.00 0.0 0 1 134.80 103.81
  Q 139.68 112.24 133.72 120.05
  A 1.00 1.00 0.0 0 1 132.06 119.94
  Q 128.82 114.27 129.47 107.70
  A 0.96 0.96 0.0 0 1 129.76 107.09
  L 133.23 103.60
  Z"
/>
<path fill="#0055a5" d="
  M 175.22 104.13
  A 1.00 1.00 0.0 0 1 176.81 103.91
  L 180.50 107.63
  A 1.00 0.99 -68.5 0 1 180.79 108.31
  Q 180.93 114.52 177.99 119.96
  A 1.00 1.00 0.0 0 1 176.31 120.09
  Q 172.51 115.02 173.30 108.48
  C 173.50 106.81 174.40 105.60 175.22 104.13
  Z"
/>
<path fill="#0055a5" d="
  M 265.98 112.06
  Q 270.89 113.24 275.93 112.75
  A 0.65 0.62 11.0 0 0 276.44 112.42
  Q 276.74 111.85 275.86 111.35
  Q 265.83 108.46 255.41 107.98
  C 254.31 107.93 252.36 107.50 254.48 106.10
  A 1.05 1.02 -59.2 0 1 255.11 105.93
  C 259.96 106.31 264.51 107.03 269.59 106.96
  Q 287.14 106.71 302.57 114.95
  Q 305.09 116.30 302.28 116.82
  Q 292.99 118.53 283.50 118.13
  Q 266.41 117.42 251.00 114.26
  Q 248.33 113.71 246.31 111.71
  A 1.00 0.99 54.9 0 1 246.59 110.10
  Q 247.56 109.65 248.57 109.36
  Q 249.81 109.01 251.42 109.40
  Q 258.62 111.15 265.98 112.06
  Z"
/>
<path fill="#0055a5" d="
  M 34.75 112.29
  Q 40.09 113.62 45.31 112.05
  Q 51.71 110.99 58.02 109.50
  Q 59.74 109.09 61.15 109.32
  C 67.67 110.36 61.49 113.60 59.57 114.03
  C 48.68 116.49 36.41 117.76 26.09 118.15
  C 24.05 118.23 5.36 118.05 6.10 115.82
  A 0.80 0.79 -5.0 0 1 6.48 115.37
  Q 13.68 111.55 21.50 109.29
  Q 22.88 110.07 23.46 108.75
  L 32.75 107.29
  Q 38.39 109.18 43.79 106.92
  L 54.71 105.96
  A 1.00 0.97 61.0 0 1 55.43 106.18
  C 58.85 108.97 53.00 107.96 51.33 108.15
  Q 43.08 109.05 34.95 110.84
  C 34.25 111.00 32.78 112.01 34.75 112.29
  Z"
/>
<path fill="#619fd1" fill-opacity="0.992" d="
  M 43.79 106.92
  Q 38.39 109.18 32.75 107.29
  L 43.79 106.92
  Z"
/>
<path fill="#0055a5" d="
  M 124.00 108.04
  Q 125.56 109.58 126.71 108.00
  C 128.56 106.53 128.92 115.24 125.48 117.66
  A 0.99 0.99 0.0 0 1 123.99 117.22
  L 120.64 109.12
  Q 119.68 106.79 121.97 107.83
  Q 122.63 108.12 124.00 108.04
  Z"
/>
<path fill="#0055a5" d="
  M 183.75 108.04
  Q 185.23 109.70 186.75 108.04
  Q 187.56 107.51 188.42 107.63
  A 1.01 1.00 -79.5 0 1 189.25 108.84
  Q 188.25 113.42 185.65 117.36
  A 1.00 1.00 0.0 0 1 184.06 117.47
  C 182.68 115.89 179.86 107.36 183.75 108.04
  Z"
/>
<path fill="#619fd1" fill-opacity="0.992" d="
  M 124.00 108.04
  L 126.71 108.00
  Q 125.56 109.58 124.00 108.04
  Z"
/>
<path fill="#619fd1" fill-opacity="0.992" d="
  M 183.75 108.04
  L 186.75 108.04
  Q 185.23 109.70 183.75 108.04
  Z"
/>
<path fill="#0055a5" d="
  M 244.29 111.96
  Q 247.55 114.25 248.88 118.02
  A 1.01 1.01 0.0 0 1 248.34 119.27
  C 240.77 122.63 230.03 117.94 227.19 110.16
  A 1.00 1.00 0.0 0 1 228.05 108.82
  Q 234.98 108.25 241.57 110.68
  Q 243.45 111.37 244.29 111.96
  Z"
/>
<path fill="#619fd1" fill-opacity="0.992" d="
  M 23.46 108.75
  Q 22.88 110.07 21.50 109.29
  L 23.46 108.75
  Z"
/>
<path fill="#0055a5" d="
  M 81.81 108.94
  A 1.00 1.00 0.0 0 1 82.69 110.26
  C 79.83 118.51 69.71 121.94 61.68 119.63
  A 1.01 1.01 0.0 0 1 60.99 118.39
  C 63.45 109.78 74.14 108.44 81.81 108.94
  Z"
/>
<path fill="#0055a5" d="
  M 151.59 110.30
  C 155.42 107.28 161.84 110.49 159.56 115.59
  Q 159.05 116.73 155.79 121.08
  A 1.01 1.01 0.0 0 1 154.19 121.08
  Q 153.09 119.64 152.17 118.15
  C 150.57 115.57 148.37 112.83 151.59 110.30
  Z"
/>
<path fill="#619fd1" fill-opacity="0.992" d="
  M 45.31 112.05
  Q 40.09 113.62 34.75 112.29
  L 45.31 112.05
  Z"
/>
<path fill="#619fd1" fill-opacity="0.992" d="
  M 275.86 111.35
  Q 276.74 111.85 276.44 112.42
  A 0.65 0.62 11.0 0 1 275.93 112.75
  Q 270.89 113.24 265.98 112.06
  Q 270.83 112.43 275.86 111.35
  Z"
/>
<path fill="#619fd1" fill-opacity="0.992" d="
  M 193.75 113.79
  L 202.75 113.79
  Q 198.27 115.81 193.75 113.79
  Z"
/>
<path fill="#0055a5" d="
  M 41.61 126.32
  Q 50.23 125.16 58.79 120.97
  Q 61.01 119.89 63.18 121.16
  Q 64.97 122.21 63.04 122.96
  Q 50.19 127.89 37.63 133.57
  Q 28.00 137.92 17.63 137.62
  A 1.00 1.00 0.0 0 1 16.81 136.10
  C 26.06 120.78 41.37 118.44 58.84 116.20
  A 0.64 0.64 0.0 0 1 59.55 116.96
  Q 59.43 117.52 58.69 117.70
  Q 49.41 119.97 41.00 124.44
  Q 36.10 127.06 41.61 126.32
  Z"
/>
<path fill="#0055a5" d="
  M 269.23 126.44
  Q 273.34 126.94 269.71 124.94
  Q 261.01 120.15 251.33 117.81
  C 250.74 117.67 249.55 117.13 250.26 116.44
  A 0.99 0.97 27.2 0 1 251.10 116.18
  C 269.01 118.94 283.35 120.55 293.29 135.98
  Q 294.24 137.45 292.49 137.52
  Q 281.68 137.97 271.49 133.20
  Q 259.55 127.63 247.19 123.06
  Q 244.50 122.06 247.22 121.17
  Q 247.96 120.92 248.74 120.81
  Q 250.16 120.60 252.02 121.46
  Q 260.44 125.37 269.23 126.44
  Z"
/>
<path fill="#0055a5" d="
  M 137.17 117.77
  A 0.99 0.99 0.0 0 1 138.80 117.75
  L 143.12 123.78
  A 0.97 0.93 -63.1 0 1 143.30 124.37
  Q 143.25 130.15 139.87 134.83
  A 0.99 0.99 0.0 0 1 138.37 134.96
  Q 134.08 130.80 132.67 124.90
  A 1.00 0.99 56.0 0 1 132.82 124.11
  L 137.17 117.77
  Z"
/>
<path fill="#0055a5" d="
  M 126.59 120.49
  A 1.01 1.00 -51.3 0 1 126.43 119.00
  L 127.75 117.54
  A 1.00 1.00 0.0 0 1 129.41 117.79
  L 131.03 121.35
  Q 132.57 124.73 129.54 122.58
  L 126.59 120.49
  Z"
/>
<path fill="#0055a5" d="
  M 171.28 117.78
  A 1.01 1.00 -43.3 0 1 172.92 117.82
  L 177.23 124.39
  A 1.01 1.01 0.0 0 1 177.36 125.21
  Q 175.81 130.84 171.72 134.90
  A 1.01 1.01 0.0 0 1 170.18 134.75
  Q 167.23 130.36 166.28 125.05
  A 1.03 1.00 -32.1 0 1 166.47 124.28
  L 171.28 117.78
  Z"
/>
<path fill="#0055a5" d="
  M 182.12 117.08
  L 183.77 119.21
  A 0.64 0.64 0.0 0 1 183.63 120.12
  L 179.72 122.95
  A 0.64 0.64 0.0 0 1 178.76 122.16
  L 181.03 117.20
  A 0.64 0.64 0.0 0 1 182.12 117.08
  Z"
/>
<path fill="#0055a5" d="
  M 84.56 118.67
  Q 86.35 118.75 88.17 118.77
  A 1.01 1.00 -83.3 0 1 89.14 120.00
  Q 88.85 121.21 87.71 122.22
  C 84.32 125.23 78.20 128.42 73.77 126.71
  Q 70.50 125.45 70.28 123.65
  A 1.00 1.00 0.0 0 1 70.80 122.65
  L 79.88 117.77
  A 1.01 1.00 42.8 0 1 80.78 117.74
  Q 82.57 118.58 84.56 118.67
  Z"
/>
<path fill="#0055a5" d="
  M 147.95 118.18
  A 1.01 1.00 -47.3 0 1 149.60 118.11
  C 151.50 120.64 153.99 123.69 153.75 127.08
  Q 153.43 131.50 151.13 135.31
  A 1.00 1.00 0.0 0 1 149.58 135.51
  Q 141.78 127.93 147.95 118.18
  Z"
/>
<path fill="#0055a5" d="
  M 161.79 118.08
  Q 162.73 118.91 163.26 119.96
  Q 163.66 120.75 164.27 122.95
  Q 166.34 130.50 160.28 135.55
  A 1.00 1.00 0.0 0 1 158.74 135.21
  Q 156.52 130.59 155.97 125.46
  A 1.01 1.00 -32.4 0 1 156.12 124.81
  L 160.29 118.29
  A 1.00 1.00 0.0 0 1 161.79 118.08
  Z"
/>
<path fill="#0055a5" d="
  M 221.62 118.56
  Q 225.59 119.21 229.34 117.75
  A 1.00 1.00 0.0 0 1 230.19 117.81
  L 239.25 122.78
  A 1.01 1.00 -57.9 0 1 239.58 124.24
  C 235.00 130.73 223.98 124.80 220.64 120.13
  Q 219.24 118.17 221.62 118.56
  Z"
/>
<path fill="#0055a5" d="
  M 118.64 130.99
  Q 120.54 130.00 121.00 124.77
  A 1.00 1.00 0.0 0 1 121.54 123.97
  L 125.37 121.99
  A 1.01 1.00 -38.8 0 1 126.45 122.10
  L 129.26 124.32
  A 1.01 0.98 -79.6 0 1 129.61 124.84
  C 131.65 132.35 125.76 140.07 123.05 146.99
  Q 122.23 149.11 121.22 147.07
  Q 119.78 144.12 118.94 139.02
  Q 118.43 135.90 116.41 132.49
  Q 115.29 130.61 117.44 130.99
  L 118.00 131.09
  A 1.00 0.98 35.4 0 0 118.64 130.99
  Z"
/>
<path fill="#0055a5" d="
  M 191.27 131.25
  L 192.71 130.94
  Q 194.79 130.49 193.81 132.38
  Q 190.68 138.42 189.82 145.26
  Q 189.70 146.23 188.85 147.23
  A 1.00 1.00 0.0 0 1 187.17 147.00
  Q 183.77 139.43 180.21 132.03
  Q 179.23 129.97 180.18 124.91
  A 0.97 0.95 -12.4 0 1 180.59 124.28
  L 183.70 122.11
  A 1.01 0.99 -49.3 0 1 184.70 122.03
  L 188.13 123.65
  A 1.02 1.00 6.4 0 1 188.68 124.33
  L 190.09 130.50
  A 0.99 0.99 0.0 0 0 191.27 131.25
  Z"
/>
<path fill="#0055a5" d="
  M 47.51 139.01
  Q 47.69 138.98 47.91 138.88
  Q 58.72 133.91 67.89 126.34
  C 68.50 125.83 71.46 125.16 69.08 127.31
  Q 59.37 136.11 49.59 144.82
  Q 41.73 151.83 31.12 152.07
  A 1.01 1.00 -80.9 0 1 30.16 150.73
  C 36.35 133.21 51.73 128.56 67.50 123.09
  C 69.56 122.37 68.64 124.12 67.65 124.55
  C 58.98 128.29 52.47 130.97 47.03 138.19
  Q 46.30 139.18 47.51 139.01
  Z"
/>
<path fill="#0055a5" d="
  M 261.50 138.71
  C 260.87 140.29 265.82 140.47 262.75 138.71
  C 260.41 131.70 248.20 127.17 242.07 124.38
  A 1.00 1.00 0.0 0 1 241.60 123.94
  C 240.36 121.63 249.90 125.78 252.91 127.06
  C 265.48 132.41 275.14 136.74 279.88 150.78
  A 1.00 0.99 -7.4 0 1 278.87 152.09
  C 270.20 151.55 265.83 149.33 258.96 143.34
  Q 249.80 135.36 240.73 127.26
  A 0.97 0.96 -71.4 0 1 240.39 126.57
  Q 240.31 125.08 242.19 126.58
  Q 251.13 133.78 261.50 138.71
  Z"
/>
<path fill="#0055a5" d="
  M 78.50 135.01
  C 75.85 129.57 84.28 125.29 88.22 124.14
  A 0.99 0.99 0.0 0 1 89.44 124.77
  L 90.70 128.41
  A 1.01 1.00 51.7 0 1 90.60 129.28
  Q 86.69 135.37 79.43 135.57
  A 1.00 0.99 -13.6 0 1 78.50 135.01
  Z"
/>
<path fill="#0055a5" d="
  M 222.06 124.06
  C 226.61 126.06 232.35 128.70 231.98 134.71
  A 0.99 0.99 0.0 0 1 230.97 135.64
  Q 223.51 135.50 219.41 129.37
  A 1.03 1.00 39.0 0 1 219.30 128.47
  L 220.72 124.63
  A 1.00 0.99 21.8 0 1 222.06 124.06
  Z"
/>
<path fill="#0055a5" d="
  M 217.46 129.38
  C 219.77 130.04 225.54 138.35 225.06 140.52
  A 1.01 1.00 -79.0 0 1 223.92 141.29
  C 217.18 140.21 209.67 135.99 210.03 128.24
  A 1.00 1.00 0.0 0 1 211.37 127.35
  Q 214.88 128.64 217.46 129.38
  Z"
/>
<path fill="#0055a5" d="
  M 85.52 140.81
  A 1.00 0.99 -76.7 0 1 84.65 139.39
  C 86.53 135.33 90.17 130.05 94.76 128.67
  Q 96.63 128.11 98.41 127.23
  A 1.01 1.00 -18.6 0 1 99.84 127.94
  Q 100.53 131.55 98.34 134.54
  Q 93.56 141.06 85.52 140.81
  Z"
/>
<path fill="#0055a5" d="
  M 116.69 152.06
  C 109.06 146.54 108.61 137.07 109.23 128.36
  A 1.01 1.00 15.9 0 1 110.70 127.55
  C 113.30 128.92 115.73 134.36 116.73 137.86
  Q 118.75 144.98 121.11 152.00
  A 1.01 1.00 -8.0 0 1 120.11 153.32
  Q 118.31 153.24 116.69 152.06
  Z"
/>
<path fill="#0055a5" d="
  M 193.39 137.51
  C 193.61 136.77 199.93 121.35 200.74 129.63
  C 201.54 137.80 200.44 147.24 193.59 152.09
  Q 192.09 153.15 189.97 153.12
  A 1.00 1.00 0.0 0 1 189.03 151.83
  Q 191.24 144.65 193.39 137.51
  Z"
/>
<path fill="#0055a5" d="
  M 75.24 134.19
  A 1.00 1.00 0.0 0 1 76.88 134.59
  Q 77.00 134.95 77.00 135.36
  C 77.01 136.46 67.66 147.12 66.26 149.00
  C 60.60 156.58 56.42 161.24 47.73 162.45
  A 1.01 1.01 0.0 0 1 46.60 161.29
  C 49.04 146.52 59.53 136.91 71.99 128.12
  A 1.03 1.00 30.0 0 1 72.71 127.94
  L 76.53 128.49
  A 1.00 1.00 0.0 0 1 77.30 129.89
  Q 77.00 130.55 76.54 131.13
  Q 76.04 131.77 74.96 132.32
  Q 64.32 137.73 57.75 146.75
  Q 57.07 147.68 57.90 147.89
  A 0.66 0.63 35.6 0 0 58.40 147.82
  Q 66.01 143.07 75.24 134.19
  Z"
/>
<path fill="#0055a5" d="
  M 251.13 145.30
  Q 249.69 142.59 246.67 140.07
  C 243.19 137.16 238.30 133.85 233.79 131.47
  Q 233.20 131.16 232.77 130.15
  A 1.00 1.00 0.0 0 1 233.51 128.78
  L 237.59 128.03
  A 1.00 1.00 0.0 0 1 238.37 128.21
  Q 247.23 134.91 254.72 143.02
  Q 261.88 150.77 263.38 161.21
  A 1.00 1.00 0.0 0 1 262.24 162.34
  Q 256.64 161.48 252.12 158.31
  Q 249.50 156.47 245.75 151.36
  Q 240.21 143.80 233.84 136.92
  Q 232.91 135.91 233.17 134.67
  Q 233.57 132.77 234.88 134.20
  Q 241.49 141.39 249.71 146.62
  Q 252.91 148.65 251.13 145.30
  Z"
/>
<path fill="#0055a5" d="
  M 203.67 130.35
  L 205.28 130.52
  A 0.97 0.97 0.0 0 0 206.17 130.15
  Q 207.63 128.29 208.60 130.30
  Q 213.22 139.90 206.81 147.70
  A 1.00 1.00 0.0 0 1 205.31 147.75
  C 203.04 145.30 202.11 142.94 201.96 139.47
  Q 201.77 135.27 202.58 131.15
  A 1.00 0.99 8.4 0 1 203.67 130.35
  Z"
/>
<path fill="#0055a5" d="
  M 104.48 130.47
  L 106.56 130.57
  A 1.00 1.00 0.0 0 1 107.50 131.41
  C 108.50 137.65 109.17 142.98 104.46 147.56
  A 1.00 1.00 0.0 0 1 102.96 147.45
  Q 96.78 139.24 101.57 130.21
  Q 102.38 128.69 103.82 130.17
  A 0.99 0.98 -20.4 0 0 104.48 130.47
  Z"
/>
<path fill="#0055a5" d="
  M 132.56 132.75
  A 1.00 1.00 0.0 0 1 134.24 132.73
  Q 135.21 134.18 136.18 135.74
  Q 137.59 138.00 137.60 140.03
  Q 137.61 144.22 135.00 147.60
  A 1.00 1.00 0.0 0 1 133.43 147.62
  Q 127.66 140.54 132.56 132.75
  Z"
/>
<path fill="#0055a5" d="
  M 175.87 132.68
  A 1.01 1.00 -40.3 0 1 177.47 132.81
  Q 182.43 140.71 176.64 147.61
  A 1.01 1.00 46.9 0 1 175.06 147.55
  Q 169.51 139.89 175.87 132.68
  Z"
/>
<path fill="#0055a5" d="
  M 143.59 149.11
  Q 135.36 141.38 143.35 133.06
  A 1.01 1.01 0.0 0 1 144.83 133.10
  Q 151.62 140.92 145.05 149.01
  A 1.00 1.00 0.0 0 1 143.59 149.11
  Z"
/>
<path fill="#0055a5" d="
  M 165.18 133.03
  A 1.00 1.00 0.0 0 1 166.64 132.98
  Q 174.49 140.84 166.56 148.95
  A 1.00 1.00 0.0 0 1 165.07 148.89
  Q 158.41 140.81 165.18 133.03
  Z"
/>
<path fill="#0055a5" d="
  M 154.20 135.04
  A 1.00 1.00 0.0 0 1 155.86 135.06
  Q 157.27 137.21 158.64 139.58
  Q 159.69 141.41 159.01 145.01
  Q 158.76 146.31 155.81 150.03
  A 1.00 1.00 0.0 0 1 154.22 150.01
  Q 153.08 148.46 152.07 146.89
  Q 149.49 142.87 151.34 139.59
  Q 152.57 137.41 154.20 135.04
  Z"
/>
<path fill="#0055a5" d="
  M 70.94 155.66
  Q 70.50 158.59 72.63 156.53
  Q 78.32 150.99 82.26 144.07
  Q 83.19 142.43 84.37 142.15
  Q 85.44 141.89 86.49 142.29
  A 1.01 1.00 -64.5 0 1 87.00 143.74
  Q 83.65 149.37 80.28 154.98
  Q 76.99 160.45 73.96 162.94
  Q 70.01 166.19 65.09 167.96
  A 1.00 1.00 0.0 0 1 63.75 167.04
  Q 63.71 164.70 64.03 162.39
  C 65.23 153.75 72.38 143.98 78.64 138.14
  C 79.81 137.05 81.91 136.18 83.23 136.83
  A 1.00 1.00 0.0 0 1 83.47 138.46
  Q 77.77 143.73 73.31 150.08
  Q 71.36 152.84 70.94 155.66
  Z"
/>
<path fill="#0055a5" d="
  M 239.13 155.78
  Q 238.16 151.56 235.54 148.02
  Q 231.91 143.11 227.29 139.08
  C 223.66 135.92 228.98 136.89 230.59 137.40
  Q 230.82 137.48 230.99 137.64
  Q 238.09 144.66 242.76 153.20
  Q 246.30 159.70 246.31 167.06
  A 1.00 1.00 0.0 0 1 244.96 168.00
  Q 240.11 166.20 236.16 162.94
  Q 233.25 160.53 230.17 155.41
  Q 226.77 149.74 223.37 144.08
  A 1.00 1.00 0.0 0 1 224.05 142.58
  L 226.06 142.22
  A 1.00 1.00 0.0 0 1 227.13 142.77
  Q 231.03 150.73 237.47 156.73
  Q 239.85 158.95 239.13 155.78
  Z"
/>
<path fill="#0055a5" d="
  M 89.70 160.50
  A 0.50 0.49 -77.9 0 0 90.17 160.19
  Q 94.10 150.91 94.93 141.36
  C 95.14 138.96 98.62 134.56 97.83 142.24
  C 96.65 153.62 97.34 165.03 85.82 171.44
  A 1.00 1.00 0.0 0 1 84.41 170.94
  C 80.78 161.96 85.94 148.55 91.05 141.77
  C 92.80 139.45 92.88 142.28 92.51 143.30
  C 91.87 145.04 87.06 160.50 89.70 160.50
  Z"
/>
<path fill="#0055a5" d="
  M 220.81 157.65
  Q 220.24 150.34 217.14 142.51
  Q 216.83 141.71 217.46 141.33
  A 0.80 0.80 0.0 0 1 218.52 141.55
  C 222.81 147.55 230.89 163.92 225.36 170.88
  A 1.00 0.99 34.0 0 1 224.08 171.12
  Q 220.30 168.95 217.70 165.65
  C 213.07 159.75 212.38 147.70 212.16 140.46
  Q 212.03 136.25 214.70 139.45
  A 0.98 0.94 -69.1 0 1 214.93 139.99
  Q 215.53 145.94 218.24 156.24
  Q 218.52 157.30 218.91 158.15
  Q 221.25 163.26 220.81 157.65
  Z"
/>
<path fill="#619fd1" fill-opacity="0.992" d="
  M 261.50 138.71
  L 262.75 138.71
  C 265.82 140.47 260.87 140.29 261.50 138.71
  Z"
/>
<path fill="#0055a5" d="
  M 102.32 159.00
  Q 103.08 164.02 104.28 159.09
  Q 105.25 155.15 104.94 151.01
  Q 104.81 149.30 106.03 148.17
  Q 107.79 146.53 107.71 148.94
  Q 107.31 160.45 103.91 171.48
  Q 103.31 173.46 102.13 171.76
  C 98.22 166.07 98.55 155.22 99.12 148.64
  C 99.66 142.51 102.01 148.87 101.95 149.83
  Q 101.64 154.42 102.32 159.00
  Z"
/>
<path fill="#0055a5" d="
  M 207.03 161.62
  L 207.30 161.50
  A 0.67 0.64 -10.4 0 0 207.67 160.99
  C 208.07 157.43 207.28 151.80 208.26 148.73
  Q 208.52 147.91 208.89 147.14
  Q 210.41 143.98 210.79 147.46
  Q 211.51 154.08 211.13 160.75
  C 211.04 162.29 207.92 178.04 205.58 169.41
  C 204.79 166.49 201.08 147.66 202.52 146.87
  A 0.41 0.40 58.2 0 1 203.05 147.00
  L 204.86 149.65
  A 1.00 0.99 -60.6 0 1 205.03 150.27
  Q 204.72 155.90 206.33 161.30
  A 0.51 0.50 -20.3 0 0 207.03 161.62
  Z"
/>
<path fill="#0055a5" d="
  M 137.63 146.80
  A 1.01 1.00 45.5 0 1 139.16 146.82
  C 140.96 148.98 141.92 152.84 140.67 155.70
  Q 139.61 158.10 138.09 160.25
  A 1.01 1.01 0.0 0 1 136.43 160.21
  Q 131.97 153.37 137.63 146.80
  Z"
/>
<path fill="#0055a5" d="
  M 170.71 147.02
  A 1.00 1.00 0.0 0 1 172.26 146.87
  Q 178.25 152.95 173.60 160.13
  A 1.00 1.00 0.0 0 1 171.91 160.12
  Q 170.67 158.12 169.73 156.09
  Q 167.69 151.64 170.71 147.02
  Z"
/>
<path fill="#0055a5" d="
  M 147.84 147.49
  A 1.00 1.00 0.0 0 1 149.34 147.46
  Q 154.47 153.08 151.30 159.98
  Q 149.91 163.02 147.70 165.44
  A 1.00 1.00 0.0 0 1 146.03 165.13
  L 143.01 157.41
  A 1.00 1.00 0.0 0 1 142.98 156.78
  Q 144.38 151.59 147.84 147.49
  Z"
/>
<path fill="#0055a5" d="
  M 115.98 161.10
  L 115.60 155.02
  Q 115.49 153.29 117.04 154.07
  Q 118.15 154.62 118.46 155.99
  Q 119.94 162.55 117.83 168.82
  Q 117.20 170.68 116.06 169.08
  Q 114.78 167.27 113.70 165.10
  C 112.91 163.53 107.39 146.04 111.23 147.58
  A 1.00 1.00 0.0 0 1 111.85 148.39
  C 112.07 150.15 113.84 160.92 115.25 161.60
  A 0.51 0.51 0.0 0 0 115.98 161.10
  Z"
/>
<path fill="#0055a5" d="
  M 160.70 147.39
  A 1.00 1.00 0.0 0 1 162.28 147.45
  C 164.29 150.25 167.23 154.40 166.52 158.00
  Q 165.78 161.69 163.78 165.19
  A 0.99 0.99 0.0 0 1 162.11 165.28
  Q 160.50 163.06 159.24 160.52
  C 156.70 155.40 157.01 151.77 160.70 147.39
  Z"
/>
<path fill="#0055a5" d="
  M 195.52 160.21
  Q 196.01 159.47 196.19 158.43
  Q 197.08 153.10 199.01 148.02
  Q 199.54 146.65 199.98 148.05
  Q 200.07 148.33 200.05 148.75
  Q 199.74 154.88 198.10 160.79
  Q 196.85 165.31 193.99 169.03
  Q 192.80 170.59 192.24 168.71
  Q 190.23 161.93 191.81 154.93
  A 1.01 1.00 -1.5 0 1 192.53 154.18
  L 193.22 154.00
  A 1.01 1.00 85.1 0 1 194.47 155.06
  L 194.06 159.69
  Q 193.79 162.77 195.52 160.21
  Z"
/>
<path fill="#0055a5" d="
  M 154.20 158.18
  A 1.00 1.00 0.0 0 1 155.78 158.16
  Q 159.58 162.93 159.33 168.98
  Q 159.23 171.46 157.76 175.14
  Q 156.77 177.63 155.75 180.09
  Q 155.01 181.89 154.27 180.08
  Q 153.24 177.54 152.24 174.98
  Q 150.73 171.07 150.65 168.66
  Q 150.48 163.09 154.20 158.18
  Z"
/>
<path fill="#0055a5" d="
  M 139.01 171.79
  C 135.29 169.30 135.36 165.65 138.02 162.37
  Q 138.92 161.28 139.86 160.19
  A 1.00 0.99 49.9 0 1 141.47 160.33
  Q 143.65 163.97 143.70 166.70
  Q 143.78 170.46 139.91 171.90
  A 0.98 0.98 0.0 0 1 139.01 171.79
  Z"
/>
<path fill="#0055a5" d="
  M 169.71 171.80
  C 164.62 168.86 166.65 164.51 168.49 160.44
  A 1.00 1.00 0.0 0 1 170.20 160.24
  C 172.98 163.92 176.95 168.49 170.67 171.82
  A 0.99 0.97 45.6 0 1 169.71 171.80
  Z"
/>
<path fill="#0055a5" d="
  M 125.13 172.63
  Q 128.59 169.17 133.01 166.75
  A 1.00 1.00 0.0 0 1 134.44 167.33
  L 135.34 170.15
  A 1.00 0.99 -23.7 0 1 134.88 171.32
  Q 130.31 173.88 125.26 175.19
  Q 122.18 175.99 124.25 173.57
  Q 124.67 173.08 125.13 172.63
  Z"
/>
<path fill="#0055a5" d="
  M 185.85 173.51
  Q 188.48 176.04 184.93 175.20
  Q 179.70 173.96 175.12 171.21
  A 1.01 1.00 25.7 0 1 174.69 170.01
  L 175.66 167.31
  A 1.00 0.99 25.5 0 1 177.12 166.80
  Q 181.88 169.67 185.85 173.51
  Z"
/>
<path fill="#0055a5" d="
  M 143.94 171.69
  Q 145.26 170.18 146.52 168.61
  Q 148.76 165.81 148.29 169.37
  Q 147.28 176.90 141.19 181.70
  Q 137.27 184.79 133.55 181.09
  A 1.02 1.00 -65.3 0 1 133.26 180.29
  C 133.57 176.53 142.22 173.65 143.94 171.69
  Z"
/>
<path fill="#0055a5" d="
  M 174.56 176.94
  Q 176.51 177.76 176.73 180.27
  A 1.01 1.01 0.0 0 1 176.46 181.05
  C 174.17 183.44 171.45 183.37 168.81 181.43
  Q 162.75 176.98 161.80 169.30
  Q 161.47 166.63 163.21 168.68
  Q 167.76 174.05 174.56 176.94
  Z"
/>
<path fill="#0055a5" d="
  M 69.52 173.24
  C 72.31 165.78 86.57 178.84 85.97 184.17
  C 84.98 192.96 67.39 178.97 69.52 173.24
  Z"
/>
<path fill="#0055a5" d="
  M 240.87 175.82
  C 238.79 179.22 233.65 185.47 229.79 186.57
  C 224.53 188.06 222.91 184.02 225.25 180.11
  C 227.51 176.33 239.96 164.58 241.01 175.20
  A 0.98 0.94 -33.5 0 1 240.87 175.82
  Z"
/>
<path fill="#0055a5" d="
  M 137.69 172.69
  A 1.00 0.99 -30.6 0 1 137.26 174.35
  Q 133.09 175.55 131.58 179.75
  A 1.09 1.06 -7.2 0 1 131.18 180.25
  Q 129.14 181.56 126.98 180.87
  A 1.00 0.99 -62.1 0 1 126.50 179.30
  Q 130.37 174.39 136.27 172.09
  Q 136.87 171.86 137.69 172.69
  Z"
/>
<path fill="#0055a5" d="
  M 176.59 176.31
  L 172.49 174.19
  A 0.99 0.99 0.0 0 1 172.31 172.54
  Q 172.61 172.29 172.98 172.15
  C 175.38 171.25 181.94 177.56 183.40 179.37
  Q 184.60 180.84 182.71 180.99
  Q 178.13 181.36 177.10 176.97
  A 0.98 0.98 0.0 0 0 176.59 176.31
  Z"
/>
<path fill="#0055a5" d="
  M 154.09 185.10
  Q 155.02 187.56 155.96 185.11
  L 159.94 174.79
  Q 160.85 172.44 161.80 174.78
  Q 162.54 176.59 162.72 178.59
  C 163.38 185.72 153.36 192.96 162.60 198.60
  A 0.81 0.80 -74.9 0 1 162.98 199.27
  C 163.05 202.55 156.38 197.03 155.80 196.32
  A 1.00 1.00 0.0 0 0 154.22 196.36
  C 153.58 197.23 147.84 201.92 147.02 199.50
  A 0.64 0.64 0.0 0 1 147.30 198.75
  C 156.55 193.23 146.98 186.12 147.35 179.02
  Q 147.47 176.85 148.41 174.85
  Q 149.42 172.71 150.25 174.92
  L 154.09 185.10
  Z"
/>
<path fill="#0055a5" d="
  M 110.60 184.09
  A 1.00 1.00 0.0 0 1 110.14 182.48
  Q 111.99 180.33 115.04 179.37
  Q 119.76 177.89 124.56 176.61
  Q 127.21 175.90 125.64 178.15
  Q 125.13 178.87 124.52 179.58
  C 122.49 181.90 117.75 183.60 114.63 185.06
  A 0.97 0.97 0.0 0 1 113.91 185.11
  L 110.60 184.09
  Z"
/>
<path fill="#0055a5" d="
  M 197.17 180.45
  Q 202.53 183.90 197.56 184.46
  Q 197.31 184.49 197.10 184.64
  Q 195.07 186.08 193.68 184.27
  A 1.01 0.98 -10.4 0 0 193.16 183.92
  Q 187.80 182.38 184.40 178.23
  Q 182.46 175.86 185.42 176.63
  L 193.08 178.61
  Q 195.12 179.13 197.17 180.45
  Z"
/>
<path fill="#0055a5" d="
  M 223.50 232.71
  L 221.50 230.71
  L 220.44 228.38
  A 1.01 0.99 54.8 0 1 220.62 227.29
  L 221.19 226.67
  A 0.99 0.98 -60.9 0 1 222.18 226.38
  L 223.51 226.74
  A 1.01 1.00 2.9 0 0 224.76 225.62
  Q 224.64 224.81 224.97 224.01
  A 1.01 0.99 -57.5 0 0 224.73 222.89
  Q 224.01 222.21 224.17 221.30
  A 1.01 1.01 0.0 0 1 224.99 220.49
  C 228.99 219.82 233.45 220.18 235.46 215.91
  C 243.38 199.07 216.59 191.24 214.44 210.19
  Q 214.41 210.50 214.24 210.68
  A 0.40 0.40 0.0 0 1 213.56 210.55
  L 212.12 206.74
  A 1.03 1.00 -46.6 0 1 212.11 206.05
  C 213.65 201.69 216.58 198.21 221.12 196.77
  Q 229.69 194.06 236.22 200.61
  Q 238.21 202.62 237.56 199.86
  Q 235.86 192.64 229.30 189.25
  Q 227.82 188.48 229.34 187.81
  Q 235.51 185.07 239.73 179.74
  Q 240.47 178.80 240.78 177.76
  Q 240.85 177.52 240.96 177.31
  Q 241.81 175.66 242.16 177.48
  C 243.39 183.92 246.64 190.93 247.16 196.30
  C 248.27 207.97 240.77 214.45 235.56 222.65
  A 1.04 1.02 -73.7 0 1 234.72 223.12
  L 226.41 223.15
  A 0.34 0.34 0.0 0 0 226.13 223.30
  C 225.81 223.80 226.98 224.03 227.35 224.00
  Q 231.26 223.72 234.86 225.15
  A 1.01 1.01 0.0 0 1 235.48 225.95
  Q 235.97 229.46 232.67 230.35
  A 0.96 0.95 49.7 0 1 231.99 230.29
  L 228.80 228.80
  Q 225.52 227.27 228.38 229.49
  L 229.00 229.98
  Q 231.49 231.93 228.91 233.41
  Q 225.99 235.08 223.50 232.71
  Z"
/>
<path fill="#0055a5" d="
  M 76.50 217.75
  C 76.23 219.67 83.17 220.38 85.41 220.70
  Q 86.81 222.55 84.50 223.25
  L 79.78 223.06
  A 0.64 0.64 0.0 0 0 79.17 223.43
  L 79.06 223.67
  A 0.32 0.32 0.0 0 0 79.37 224.13
  L 83.75 223.95
  A 0.53 0.52 -82.7 0 0 84.22 223.58
  Q 84.29 223.35 84.50 223.25
  Q 86.04 224.94 84.71 226.75
  L 81.00 228.96
  C 75.18 233.61 71.48 224.55 77.41 224.27
  C 77.64 224.26 79.56 223.45 77.51 223.40
  Q 76.23 223.37 74.98 223.21
  A 1.01 1.00 -6.3 0 1 74.17 222.57
  Q 73.19 219.92 72.65 219.38
  Q 65.80 212.45 63.47 204.75
  C 61.69 198.89 63.08 193.70 65.30 187.08
  Q 66.62 183.14 67.73 179.12
  Q 68.34 176.91 69.54 178.87
  Q 73.33 185.00 80.00 187.74
  Q 82.03 188.57 80.07 189.55
  Q 76.86 191.18 75.59 193.30
  Q 73.39 196.99 71.99 200.98
  Q 71.91 201.22 71.90 201.41
  Q 71.77 203.13 72.82 201.76
  C 79.50 192.95 93.11 194.46 97.43 204.71
  Q 98.09 206.28 97.62 207.88
  Q 97.32 208.88 96.91 209.77
  Q 95.69 212.40 95.39 209.52
  Q 94.80 204.08 90.89 201.28
  C 82.97 195.63 71.00 202.53 73.34 212.55
  C 73.55 213.47 74.97 218.06 76.50 217.75
  Z"
/>
<path fill="#0055a5" d="
  M 117.84 184.58
  Q 121.17 182.68 124.86 181.58
  Q 128.54 180.49 125.86 183.24
  Q 123.87 185.27 122.20 187.63
  A 1.01 1.00 31.1 0 1 120.92 187.94
  L 117.87 186.33
  Q 116.25 185.48 117.84 184.58
  Z"
/>
<path fill="#0055a5" d="
  M 127.75 191.94
  L 130.30 191.99
  Q 132.59 192.04 131.00 193.69
  Q 129.38 195.36 127.09 195.14
  C 124.11 194.85 122.49 190.89 123.86 188.45
  Q 125.22 186.04 128.03 183.29
  Q 130.35 181.01 132.62 182.24
  Q 135.12 183.59 132.32 184.10
  Q 127.06 185.06 126.77 190.89
  A 1.00 1.00 0.0 0 0 127.75 191.94
  Z"
/>
<path fill="#0055a5" d="
  M 192.01 184.66
  Q 193.56 185.69 191.84 186.42
  L 188.96 187.63
  A 1.00 0.99 -31.5 0 1 187.81 187.36
  L 184.07 183.00
  Q 183.04 181.80 184.61 181.68
  Q 184.90 181.66 185.25 181.73
  Q 188.67 182.44 192.01 184.66
  Z"
/>
<path fill="#0055a5" d="
  M 180.48 182.32
  C 184.69 184.83 187.34 188.44 185.70 193.63
  A 1.03 0.98 -8.2 0 1 185.27 194.18
  Q 181.37 196.58 178.65 193.29
  A 0.80 0.80 0.0 0 1 179.06 192.01
  Q 179.27 191.95 179.49 191.93
  Q 183.12 191.50 183.09 190.48
  Q 182.97 184.96 177.84 184.10
  Q 175.09 183.64 177.50 182.25
  Q 178.95 181.42 180.48 182.32
  Z"
/>
<path fill="#0055a5" d="
  M 143.18 188.25
  Q 142.72 188.61 142.40 189.15
  Q 138.57 195.60 132.23 198.74
  Q 131.64 199.04 131.02 199.03
  A 1.01 1.00 -79.3 0 1 130.10 197.67
  Q 130.86 195.65 131.80 195.04
  C 135.88 192.34 139.26 189.65 142.06 185.59
  Q 143.15 184.01 144.65 182.81
  A 1.00 1.00 0.0 0 1 146.13 183.07
  Q 147.11 184.70 147.72 186.43
  C 149.07 190.26 145.53 196.30 143.36 199.34
  Q 139.41 204.89 132.87 206.31
  Q 130.94 206.72 131.74 204.92
  Q 132.91 202.30 135.30 200.59
  Q 138.92 197.99 141.99 194.75
  Q 144.26 192.34 144.78 189.20
  Q 145.20 186.68 143.18 188.25
  Z"
/>
<path fill="#0055a5" d="
  M 165.08 189.16
  C 166.87 197.46 175.26 198.43 178.44 204.99
  Q 179.28 206.72 177.38 206.41
  C 170.40 205.28 159.41 193.19 162.63 185.89
  Q 163.21 184.56 163.89 183.33
  A 1.00 0.99 -54.4 0 1 165.44 183.07
  Q 167.27 184.74 168.69 186.67
  C 171.99 191.16 176.91 192.88 179.87 197.24
  C 180.62 198.35 180.08 199.47 178.57 198.89
  C 172.20 196.45 170.74 192.38 166.77 188.26
  Q 164.33 185.72 165.08 189.16
  Z"
/>
<path fill="#0055a5" d="
  M 120.22 191.65
  L 118.16 190.42
  A 1.01 1.01 0.0 0 0 117.05 190.47
  Q 115.05 191.93 114.83 189.20
  A 0.99 0.99 0.0 0 0 113.80 188.28
  L 108.03 188.47
  A 1.01 1.00 -89.2 0 1 107.00 187.41
  C 107.12 185.42 108.34 184.70 110.25 185.19
  Q 115.57 186.54 120.44 189.04
  Q 123.47 190.59 122.82 192.24
  Q 121.75 194.96 120.63 192.14
  A 1.03 0.98 6.3 0 0 120.22 191.65
  Z"
/>
<path fill="#0055a5" d="
  M 192.56 190.33
  Q 189.80 190.56 188.53 193.21
  A 0.51 0.50 -60.8 0 1 187.80 193.42
  Q 187.58 193.28 187.45 192.97
  Q 186.17 190.02 189.68 188.78
  L 200.80 184.85
  A 1.00 1.00 0.0 0 1 201.98 185.25
  L 202.91 186.71
  Q 203.88 188.25 202.07 188.25
  L 196.74 188.26
  A 0.99 0.99 0.0 0 0 195.90 188.73
  Q 194.21 191.42 193.14 190.52
  A 0.82 0.75 60.8 0 0 192.56 190.33
  Z"
/>
<path fill="#0055a5" d="
  M 97.47 223.17
  Q 91.23 223.03 86.02 219.39
  Q 85.84 219.25 85.61 219.22
  L 76.50 217.75
  L 76.50 216.89
  A 1.02 1.00 66.8 0 1 76.77 216.20
  C 82.01 210.67 86.91 214.43 91.90 217.31
  A 1.01 1.00 37.2 0 0 93.11 217.15
  Q 95.75 214.51 97.20 211.19
  Q 100.90 202.67 106.58 193.08
  Q 108.75 189.42 112.78 189.95
  A 1.01 1.01 0.0 0 1 113.55 190.50
  C 113.78 190.96 113.70 194.63 115.36 192.80
  Q 117.62 190.32 120.06 193.28
  A 1.00 1.00 0.0 0 1 119.56 194.88
  C 107.74 198.25 100.26 212.09 97.47 223.17
  Z"
/>
<path fill="#0055a5" d="
  M 221.25 230.79
  L 222.79 233.75
  Q 218.97 234.77 215.00 231.06
  A 1.03 1.03 0.0 0 1 214.68 230.25
  L 215.07 225.25
  A 1.01 1.01 0.0 0 1 215.47 224.53
  L 215.82 224.27
  Q 216.88 223.48 215.56 223.53
  L 213.63 223.61
  A 1.00 1.00 0.0 0 1 212.63 222.87
  C 209.60 211.56 202.84 198.60 190.26 194.88
  A 1.00 1.00 0.0 0 1 189.78 193.28
  Q 191.98 190.68 194.99 193.22
  A 0.52 0.51 42.0 0 0 195.69 193.19
  L 195.92 192.96
  A 1.03 1.01 -27.8 0 0 196.20 192.09
  C 195.52 187.86 201.54 190.49 202.81 192.42
  C 207.57 199.65 210.82 207.69 215.01 215.47
  Q 216.58 218.38 219.22 216.73
  C 221.75 215.15 224.60 213.25 227.58 213.45
  C 229.00 213.55 235.41 216.04 232.81 218.11
  A 1.08 1.07 24.1 0 1 232.22 218.33
  C 229.87 218.41 221.00 220.02 219.75 222.17
  Q 219.29 222.95 220.18 222.78
  Q 221.75 222.47 222.66 223.47
  A 1.01 0.99 45.9 0 1 222.65 224.84
  Q 221.17 226.37 219.25 226.87
  Q 217.47 227.33 218.83 228.57
  L 221.25 230.79
  Z"
/>
<path fill="#0055a5" d="
  M 148.52 214.57
  Q 144.47 217.97 139.40 219.47
  Q 136.21 220.42 138.62 218.13
  Q 143.56 213.43 148.14 208.40
  Q 151.56 204.66 154.11 200.28
  A 1.00 1.00 0.0 0 1 155.82 200.26
  Q 157.33 202.67 159.01 205.08
  C 162.67 210.31 167.23 213.99 172.48 219.01
  Q 173.15 219.65 172.59 220.04
  A 0.50 0.49 -53.7 0 1 172.16 220.11
  Q 166.16 218.39 161.27 214.57
  A 1.02 1.00 -40.9 0 0 160.15 214.50
  Q 154.82 217.61 149.68 214.48
  A 0.99 0.98 -49.2 0 0 148.52 214.57
  Z"
/>
<path fill="#0055a5" d="
  M 179.54 220.77
  C 171.80 216.35 164.97 209.36 160.37 201.85
  Q 160.24 201.64 160.19 201.44
  A 0.64 0.64 0.0 0 1 160.81 200.66
  L 162.65 200.65
  A 1.00 1.00 0.0 0 1 163.45 201.05
  C 168.77 208.03 173.71 213.57 181.25 217.92
  A 1.00 1.00 0.0 0 1 181.59 219.33
  L 180.88 220.44
  A 1.00 0.99 31.1 0 1 179.54 220.77
  Z"
/>
<path fill="#0055a5" d="
  M 145.65 201.91
  Q 146.64 200.45 148.67 200.77
  A 1.00 1.00 0.0 0 1 149.36 202.29
  Q 142.22 213.70 130.66 220.69
  A 1.00 0.99 41.7 0 1 129.73 220.74
  Q 128.86 220.35 128.39 219.51
  A 1.00 1.00 0.0 0 1 128.73 218.17
  Q 138.88 211.80 145.65 201.91
  Z"
/>
<path fill="#0055a5" d="
  M 114.58 211.34
  L 113.76 212.05
  Q 112.14 213.46 112.10 211.31
  L 111.98 203.89
  A 1.01 1.00 -80.1 0 1 113.33 202.93
  L 120.23 205.54
  Q 121.86 206.16 120.51 207.26
  L 119.63 207.97
  A 0.99 0.99 0.0 0 0 119.44 209.31
  Q 127.66 221.17 136.13 232.76
  Q 137.24 234.28 137.03 235.50
  Q 136.84 236.62 136.02 237.44
  A 1.00 1.00 0.0 0 1 134.50 237.31
  L 116.05 211.51
  A 1.00 1.00 0.0 0 0 114.58 211.34
  Z"
/>
<path fill="#0055a5" d="
  M 163.39 247.54
  L 190.62 209.30
  A 1.00 0.99 34.6 0 0 190.36 207.90
  L 189.35 207.21
  Q 188.09 206.35 189.50 205.80
  L 196.60 203.01
  A 1.01 1.01 0.0 0 1 197.97 203.94
  L 198.01 211.71
  A 1.02 1.01 -22.1 0 1 197.70 212.44
  L 197.44 212.69
  A 0.23 0.20 45.9 0 1 197.14 212.66
  Q 196.19 211.63 194.92 211.33
  A 1.00 0.99 24.4 0 0 193.87 211.72
  L 163.08 255.01
  A 1.00 1.00 0.0 0 1 161.39 254.92
  L 148.31 231.57
  A 1.00 0.99 47.2 0 0 146.61 231.50
  L 136.90 246.06
  A 1.02 1.01 46.4 0 0 136.88 247.14
  Q 137.35 247.91 138.33 248.23
  A 0.80 0.77 80.7 0 1 138.72 248.52
  Q 139.29 249.29 138.27 249.72
  Q 134.74 251.22 131.12 252.57
  A 1.00 0.99 79.2 0 1 129.78 251.65
  Q 129.69 247.77 129.80 243.82
  Q 129.81 243.15 130.42 243.04
  A 0.64 0.64 0.0 0 1 131.06 243.32
  C 132.01 244.70 132.95 244.83 133.93 243.35
  Q 140.45 233.47 146.87 223.58
  A 1.01 1.00 47.2 0 1 148.59 223.65
  L 161.70 247.44
  A 1.00 1.00 0.0 0 0 163.39 247.54
  Z"
/>
<path fill="#0055a5" d="
  M 159.01 218.33
  L 155.62 222.87
  A 0.67 0.67 0.0 0 1 154.56 222.88
  L 151.02 218.37
  A 0.67 0.67 0.0 0 1 151.54 217.28
  L 158.47 217.26
  A 0.67 0.67 0.0 0 1 159.01 218.33
  Z"
/>
<path fill="#619fd1" fill-opacity="0.992" d="
  M 76.50 217.75
  L 85.61 219.22
  Q 85.84 219.25 86.02 219.39
  Q 91.23 223.03 97.47 223.17
  Q 96.51 224.30 94.29 224.00
  Q 91.33 223.64 89.04 221.75
  C 88.49 221.30 85.73 218.99 85.41 220.70
  C 83.17 220.38 76.23 219.67 76.50 217.75
  Z"
/>
<path fill="#0055a5" d="
  M 89.04 221.75
  Q 91.33 223.64 94.29 224.00
  L 94.96 226.50
  Q 92.94 227.54 90.69 226.06
  Q 89.92 225.56 89.96 226.50
  Q 89.45 225.98 89.14 226.38
  A 0.42 0.42 0.0 0 0 89.18 226.93
  C 91.26 228.91 84.93 233.69 83.89 234.19
  A 0.98 0.92 35.5 0 1 83.29 234.27
  Q 77.93 233.36 81.50 229.46
  L 85.00 227.29
  Q 86.20 227.04 87.13 226.32
  A 1.00 1.00 0.0 0 0 87.44 225.15
  Q 86.57 223.07 89.04 221.75
  Z"
/>
<path fill="#0055a5" d="
  M 100.00 225.29
  Q 102.24 226.61 104.25 225.04
  Q 112.01 224.37 119.45 222.09
  Q 120.81 221.68 121.54 222.16
  Q 122.27 222.64 122.43 223.58
  A 1.01 1.01 0.0 0 1 121.75 224.70
  C 116.36 226.46 104.38 229.83 97.57 228.50
  A 1.02 1.02 0.0 0 1 96.77 227.68
  Q 96.22 224.41 100.00 225.29
  Z"
/>
<path fill="#0055a5" d="
  M 212.82 225.70
  Q 213.84 227.22 212.83 228.57
  A 1.00 0.99 20.2 0 1 211.98 228.96
  Q 199.88 228.33 188.33 224.73
  A 1.00 1.00 0.0 0 1 187.73 223.34
  L 188.28 222.21
  A 1.01 1.00 22.0 0 1 189.50 221.70
  Q 200.42 225.43 211.98 225.26
  A 0.99 0.99 0.0 0 1 212.82 225.70
  Z"
/>
<path fill="#0055a5" d="
  M 161.75 231.52
  L 159.14 236.40
  A 1.01 1.00 -47.0 0 1 157.41 236.47
  L 156.11 234.40
  A 1.01 1.00 43.7 0 1 156.08 233.39
  L 161.41 223.72
  A 1.00 1.00 0.0 0 1 163.11 223.63
  Q 165.75 227.47 168.24 231.38
  Q 168.29 231.44 169.21 232.72
  Q 171.15 235.38 168.65 237.40
  A 1.00 1.00 0.0 0 1 167.18 237.17
  L 163.47 231.44
  A 1.00 1.00 0.0 0 0 161.75 231.52
  Z"
/>
<path fill="#619fd1" fill-opacity="0.992" d="
  M 84.50 223.25
  Q 84.29 223.35 84.22 223.58
  A 0.53 0.52 -82.7 0 1 83.75 223.95
  L 79.37 224.13
  A 0.32 0.32 0.0 0 1 79.06 223.67
  L 79.17 223.43
  A 0.64 0.64 0.0 0 1 79.78 223.06
  L 84.50 223.25
  Z"
/>
<path fill="#619fd1" fill-opacity="0.992" d="
  M 104.25 225.04
  Q 102.24 226.61 100.00 225.29
  L 104.25 225.04
  Z"
/>
<path fill="#619fd1" fill-opacity="0.992" d="
  M 94.96 226.50
  L 94.79 227.75
  L 91.25 228.46
  Q 92.27 226.90 89.96 226.50
  Q 89.92 225.56 90.69 226.06
  Q 92.94 227.54 94.96 226.50
  Z"
/>
<path fill="#619fd1" fill-opacity="0.992" d="
  M 84.71 226.75
  L 85.00 227.29
  L 81.50 229.46
  L 81.00 228.96
  L 84.71 226.75
  Z"
/>
<path fill="#0055a5" d="
  M 94.79 227.75
  Q 95.60 228.40 95.73 229.48
  A 0.98 0.98 0.0 0 1 95.57 230.16
  Q 93.02 233.88 88.64 233.98
  Q 86.37 234.04 87.87 232.33
  L 91.25 228.46
  L 94.79 227.75
  Z"
/>
<path fill="#619fd1" fill-opacity="0.992" d="
  M 221.25 230.79
  L 221.50 230.71
  L 223.50 232.71
  L 222.79 233.75
  L 221.25 230.79
  Z"
/>
<path fill="#0055a5" d="
  M 146.58 247.45
  A 1.00 1.00 0.0 0 0 148.26 247.39
  L 151.04 242.67
  Q 151.96 241.10 152.79 242.72
  L 153.85 244.78
  A 1.02 1.01 -44.7 0 1 153.84 245.72
  L 148.74 254.92
  A 1.00 1.00 0.0 0 1 147.05 255.01
  Q 144.36 251.23 141.68 247.47
  Q 141.62 247.40 140.85 246.48
  Q 139.21 244.55 141.38 242.13
  A 1.00 0.99 -41.6 0 1 142.94 242.22
  L 146.58 247.45
  Z"
/>
<path fill="#0055a5" d="
  M 177.61 244.18
  L 178.84 243.62
  A 1.01 1.00 78.0 0 1 180.25 244.54
  L 180.25 251.65
  A 1.00 1.00 0.0 0 1 178.89 252.59
  L 172.10 249.96
  Q 170.41 249.31 171.87 248.23
  L 172.73 247.59
  A 1.00 1.00 0.0 0 0 173.08 246.47
  Q 172.30 244.14 173.84 242.29
  A 1.00 1.00 0.0 0 1 175.45 242.38
  L 176.36 243.80
  A 1.01 1.01 0.0 0 0 177.61 244.18
  Z"
/>
</svg>
