<?xml version="1.0" encoding="UTF-8" standalone="no"?>
<!DOCTYPE svg PUBLIC "-//W3C//DTD SVG 1.1//EN" "http://www.w3.org/Graphics/SVG/1.1/DTD/svg11.dtd">
<svg xmlns="http://www.w3.org/2000/svg" version="1.1" viewBox="0 0 240 248">
<path fill="#f59c00" d="
  M 94.56 0.00
  L 124.56 0.00
  Q 137.25 2.59 144.02 4.71
  C 196.64 21.15 227.47 70.51 220.69 124.97
  Q 219.40 135.31 216.16 144.39
  Q 212.23 155.40 205.96 165.43
  Q 204.79 167.31 204.16 165.18
  Q 203.21 161.98 201.71 156.02
  C 196.88 136.86 179.33 123.70 159.63 120.13
  C 157.89 119.81 156.97 118.36 159.85 118.20
  Q 170.81 117.60 180.64 118.75
  Q 182.81 119.01 182.92 116.83
  Q 184.83 80.65 161.01 57.79
  C 143.66 41.13 121.06 34.20 96.96 38.28
  C 56.00 45.23 32.95 85.17 39.75 124.75
  C 42.60 141.30 51.08 154.57 63.41 165.71
  Q 83.36 183.74 111.89 183.16
  A 1.00 1.00 0.0 0 0 112.87 182.20
  Q 113.07 176.83 112.55 171.48
  C 112.50 170.95 111.09 154.33 115.43 161.69
  Q 124.30 176.74 135.58 185.92
  C 154.70 201.49 176.11 200.63 197.17 209.85
  C 214.53 217.45 228.32 229.77 240.00 244.56
  L 240.00 248.00
  L 236.69 248.00
  C 220.67 234.79 205.29 224.47 185.03 219.87
  C 164.98 215.32 143.48 218.58 123.72 220.17
  Q 111.17 221.19 103.76 220.69
  C 48.14 216.97 8.19 177.95 0.00 123.19
  L 0.00 97.69
  C 6.41 52.48 34.97 17.40 78.26 3.99
  Q 80.72 3.23 94.56 0.00
  Z"
/>
<path fill="#f59c00" d="
  M 193.42 157.73
  Q 198.60 163.23 197.28 171.91
  A 0.99 0.99 0.0 0 1 196.70 172.67
  C 191.83 174.81 187.74 166.04 186.72 162.23
  C 185.30 156.95 188.86 152.89 193.42 157.73
  Z"
/>
<path fill="#f59c00" d="
  M 167.81 174.09
  C 176.69 174.82 186.99 190.58 173.58 192.31
  C 159.77 194.09 154.73 173.01 167.81 174.09
  Z"
/>
</svg>
