<?xml version="1.0" encoding="UTF-8" standalone="no"?>
<!DOCTYPE svg PUBLIC "-//W3C//DTD SVG 1.1//EN" "http://www.w3.org/Graphics/SVG/1.1/DTD/svg11.dtd">
<svg xmlns="http://www.w3.org/2000/svg" version="1.1" viewBox="0 0 1024 1024">
<path stroke="#958a1a" stroke-width="2.00" fill="none" stroke-linecap="butt" vector-effect="non-scaling-stroke" d="
  M 414.43 512.66
  C 333.40 593.82 252.32 674.61 171.37 756.17
  A 1.00 1.00 0.0 0 0 171.37 757.58
  L 266.77 852.69
  A 1.01 1.01 0.0 0 0 268.19 852.69
  L 511.29 609.58
  A 1.01 1.01 0.0 0 1 512.71 609.58
  L 755.81 852.68
  A 1.00 0.99 -44.8 0 0 757.22 852.68
  L 852.53 757.67
  A 1.00 0.99 -45.0 0 0 852.54 756.26
  L 609.59 512.71
  A 1.00 1.00 0.0 0 1 609.59 511.30
  L 658.34 462.09
  A 1.03 0.99 66.9 0 0 658.63 461.33
  C 658.12 452.33 658.45 441.58 658.46 434.31
  Q 658.53 399.42 658.51 364.53
  A 0.99 0.98 68.2 0 1 658.81 363.82
  L 692.38 330.24
  Q 693.75 328.87 693.75 330.81
  L 693.75 413.38
  A 0.99 0.99 0.0 0 0 694.04 414.08
  L 723.88 443.78
  A 1.00 1.00 0.0 0 0 725.29 443.78
  L 847.54 321.58
  A 1.01 1.01 0.0 0 1 848.96 321.58
  L 876.90 349.53
  Q 878.55 351.17 878.61 348.84
  Q 878.82 340.25 877.67 330.56
  Q 868.98 257.47 817.46 206.04
  Q 804.98 193.59 788.57 184.37
  C 749.16 162.23 698.38 166.07 665.71 198.71
  Q 605.36 258.98 545.18 319.21
  A 1.01 1.00 -44.8 0 0 545.17 320.63
  L 575.25 350.91
  A 1.00 1.00 0.0 0 1 575.24 352.32
  L 512.71 414.43
  A 1.00 1.00 0.0 0 1 511.30 414.42
  L 449.10 352.23
  A 1.00 1.00 0.0 0 1 449.10 350.81
  L 479.28 320.65
  A 1.00 1.00 0.0 0 0 479.28 319.23
  Q 418.96 259.13 358.58 199.09
  Q 351.51 192.07 346.08 188.41
  C 302.12 158.90 248.17 168.24 210.80 203.07
  Q 162.64 247.95 149.47 312.75
  Q 145.81 330.79 145.62 349.29
  Q 145.60 351.24 146.98 349.86
  L 175.46 321.50
  A 1.00 0.99 -44.8 0 1 176.87 321.50
  L 299.30 443.92
  A 1.00 1.00 0.0 0 0 300.72 443.92
  L 329.96 414.08
  A 0.99 0.99 0.0 0 0 330.25 413.38
  L 330.25 330.81
  Q 330.25 328.88 331.62 330.24
  L 365.15 363.77
  A 1.04 1.01 23.5 0 1 365.44 364.48
  L 365.67 461.81
  A 0.99 0.99 0.0 0 0 365.96 462.51
  L 414.43 511.25
  A 1.00 1.00 0.0 0 1 414.43 512.66"
/>
<path fill="#ffe600" d="
  M 186.81 0.00
  L 837.06 0.00
  C 899.21 1.73 960.43 21.10 994.94 76.65
  C 1015.39 109.56 1023.24 148.32 1024.00 186.81
  L 1024.00 837.31
  C 1023.08 872.50 1016.71 908.99 999.29 940.05
  C 965.31 1000.67 903.81 1022.04 837.44 1024.00
  L 186.69 1024.00
  C 115.87 1022.65 48.84 996.09 18.56 927.63
  C 5.81 898.83 0.94 868.50 0.00 836.94
  L 0.00 186.69
  C 1.20 120.96 24.29 56.90 85.06 24.07
  C 115.96 7.37 151.72 0.80 186.81 0.00
  Z
  M 414.43 512.66
  C 333.40 593.82 252.32 674.61 171.37 756.17
  A 1.00 1.00 0.0 0 0 171.37 757.58
  L 266.77 852.69
  A 1.01 1.01 0.0 0 0 268.19 852.69
  L 511.29 609.58
  A 1.01 1.01 0.0 0 1 512.71 609.58
  L 755.81 852.68
  A 1.00 0.99 -44.8 0 0 757.22 852.68
  L 852.53 757.67
  A 1.00 0.99 -45.0 0 0 852.54 756.26
  L 609.59 512.71
  A 1.00 1.00 0.0 0 1 609.59 511.30
  L 658.34 462.09
  A 1.03 0.99 66.9 0 0 658.63 461.33
  C 658.12 452.33 658.45 441.58 658.46 434.31
  Q 658.53 399.42 658.51 364.53
  A 0.99 0.98 68.2 0 1 658.81 363.82
  L 692.38 330.24
  Q 693.75 328.87 693.75 330.81
  L 693.75 413.38
  A 0.99 0.99 0.0 0 0 694.04 414.08
  L 723.88 443.78
  A 1.00 1.00 0.0 0 0 725.29 443.78
  L 847.54 321.58
  A 1.01 1.01 0.0 0 1 848.96 321.58
  L 876.90 349.53
  Q 878.55 351.17 878.61 348.84
  Q 878.82 340.25 877.67 330.56
  Q 868.98 257.47 817.46 206.04
  Q 804.98 193.59 788.57 184.37
  C 749.16 162.23 698.38 166.07 665.71 198.71
  Q 605.36 258.98 545.18 319.21
  A 1.01 1.00 -44.8 0 0 545.17 320.63
  L 575.25 350.91
  A 1.00 1.00 0.0 0 1 575.24 352.32
  L 512.71 414.43
  A 1.00 1.00 0.0 0 1 511.30 414.42
  L 449.10 352.23
  A 1.00 1.00 0.0 0 1 449.10 350.81
  L 479.28 320.65
  A 1.00 1.00 0.0 0 0 479.28 319.23
  Q 418.96 259.13 358.58 199.09
  Q 351.51 192.07 346.08 188.41
  C 302.12 158.90 248.17 168.24 210.80 203.07
  Q 162.64 247.95 149.47 312.75
  Q 145.81 330.79 145.62 349.29
  Q 145.60 351.24 146.98 349.86
  L 175.46 321.50
  A 1.00 0.99 -44.8 0 1 176.87 321.50
  L 299.30 443.92
  A 1.00 1.00 0.0 0 0 300.72 443.92
  L 329.96 414.08
  A 0.99 0.99 0.0 0 0 330.25 413.38
  L 330.25 330.81
  Q 330.25 328.88 331.62 330.24
  L 365.15 363.77
  A 1.04 1.01 23.5 0 1 365.44 364.48
  L 365.67 461.81
  A 0.99 0.99 0.0 0 0 365.96 462.51
  L 414.43 511.25
  A 1.00 1.00 0.0 0 1 414.43 512.66
  Z"
/>
<path fill="#2b2d34" d="
  M 171.37 756.17
  C 252.32 674.61 333.40 593.82 414.43 512.66
  A 1.00 1.00 0.0 0 0 414.43 511.25
  L 365.96 462.51
  A 0.99 0.99 0.0 0 1 365.67 461.81
  L 365.44 364.48
  A 1.04 1.01 23.5 0 0 365.15 363.77
  L 331.62 330.24
  Q 330.25 328.88 330.25 330.81
  L 330.25 413.38
  A 0.99 0.99 0.0 0 1 329.96 414.08
  L 300.72 443.92
  A 1.00 1.00 0.0 0 1 299.30 443.92
  L 176.87 321.50
  A 1.00 0.99 -44.8 0 0 175.46 321.50
  L 146.98 349.86
  Q 145.60 351.24 145.62 349.29
  Q 145.81 330.79 149.47 312.75
  Q 162.64 247.95 210.80 203.07
  C 248.17 168.24 302.12 158.90 346.08 188.41
  Q 351.51 192.07 358.58 199.09
  Q 418.96 259.13 479.28 319.23
  A 1.00 1.00 0.0 0 1 479.28 320.65
  L 449.10 350.81
  A 1.00 1.00 0.0 0 0 449.10 352.23
  L 511.30 414.42
  A 1.00 1.00 0.0 0 0 512.71 414.43
  L 575.24 352.32
  A 1.00 1.00 0.0 0 0 575.25 350.91
  L 545.17 320.63
  A 1.01 1.00 -44.8 0 1 545.18 319.21
  Q 605.36 258.98 665.71 198.71
  C 698.38 166.07 749.16 162.23 788.57 184.37
  Q 804.98 193.59 817.46 206.04
  Q 868.98 257.47 877.67 330.56
  Q 878.82 340.25 878.61 348.84
  Q 878.55 351.17 876.90 349.53
  L 848.96 321.58
  A 1.01 1.01 0.0 0 0 847.54 321.58
  L 725.29 443.78
  A 1.00 1.00 0.0 0 1 723.88 443.78
  L 694.04 414.08
  A 0.99 0.99 0.0 0 1 693.75 413.38
  L 693.75 330.81
  Q 693.75 328.87 692.38 330.24
  L 658.81 363.82
  A 0.99 0.98 68.2 0 0 658.51 364.53
  Q 658.53 399.42 658.46 434.31
  C 658.45 441.58 658.12 452.33 658.63 461.33
  A 1.03 0.99 66.9 0 1 658.34 462.09
  L 609.59 511.30
  A 1.00 1.00 0.0 0 0 609.59 512.71
  L 852.54 756.26
  A 1.00 0.99 -45.0 0 1 852.53 757.67
  L 757.22 852.68
  A 1.00 0.99 -44.8 0 1 755.81 852.68
  L 512.71 609.58
  A 1.01 1.01 0.0 0 0 511.29 609.58
  L 268.19 852.69
  A 1.01 1.01 0.0 0 1 266.77 852.69
  L 171.37 757.58
  A 1.00 1.00 0.0 0 1 171.37 756.17
  Z"
/>
</svg>
