<?xml version="1.0" encoding="UTF-8" standalone="no"?>
<!DOCTYPE svg PUBLIC "-//W3C//DTD SVG 1.1//EN" "http://www.w3.org/Graphics/SVG/1.1/DTD/svg11.dtd">
<svg xmlns="http://www.w3.org/2000/svg" version="1.1" viewBox="0 0 152 152">
<path fill="#4b411c" d="
  M 152.00 71.81
  L 152.00 80.81
  C 147.91 121.17 118.49 150.39 77.69 152.00
  L 74.69 152.00
  C 31.35 150.34 -2.79 114.31 0.61 70.38
  C 4.32 22.54 50.63 -9.60 96.68 3.09
  C 127.98 11.71 149.51 39.10 152.00 71.81
  Z
  M 143.81 76.12
  A 67.58 67.58 0.0 0 0 76.23 8.54
  A 67.58 67.58 0.0 0 0 8.65 76.12
  A 67.58 67.58 0.0 0 0 76.23 143.70
  A 67.58 67.58 0.0 0 0 143.81 76.12
  Z"
/>
<path fill="#4b411c" d="
  M 39.96 55.79
  C 40.93 48.38 46.26 28.61 53.56 25.13
  Q 56.50 23.73 59.68 22.88
  Q 61.64 22.35 60.57 24.07
  L 55.56 32.09
  A 0.33 0.32 -52.8 0 0 55.61 32.50
  L 55.81 32.69
  A 0.31 0.17 -41.0 0 0 56.13 32.62
  C 67.14 23.86 81.75 18.13 93.99 14.99
  C 96.68 14.30 97.24 16.20 96.72 18.33
  Q 96.56 18.97 96.47 19.61
  A 1.00 1.00 0.0 0 0 97.04 20.65
  L 102.90 23.37
  A 0.82 0.81 47.7 0 0 103.49 23.40
  L 103.75 23.32
  A 0.97 0.97 0.0 0 1 104.68 23.48
  C 108.89 26.77 112.44 30.97 113.10 36.48
  Q 113.53 40.05 114.14 43.35
  A 1.02 1.01 9.7 0 0 114.62 44.02
  L 124.38 49.81
  A 1.00 1.00 0.0 0 1 124.72 51.20
  C 121.98 55.57 124.04 59.16 116.80 58.82
  Q 115.60 58.76 114.49 59.27
  A 1.00 1.00 0.0 0 1 113.12 58.68
  Q 112.75 57.54 111.58 58.29
  A 1.01 1.01 0.0 0 1 110.50 58.29
  Q 108.52 57.05 106.50 57.96
  Q 104.32 58.94 106.56 59.80
  Q 108.61 60.59 109.60 62.63
  A 1.00 0.99 63.8 0 0 110.94 63.09
  L 111.48 62.83
  Q 112.94 62.10 112.62 63.70
  Q 112.43 64.63 113.41 65.11
  A 1.01 1.00 -76.6 0 1 113.97 66.03
  Q 113.92 68.25 112.25 69.42
  A 1.01 1.00 -50.6 0 1 111.28 69.52
  Q 103.37 66.18 94.76 65.96
  Q 94.14 65.94 94.50 65.44
  L 94.74 65.11
  Q 95.62 63.90 94.12 63.84
  Q 80.88 63.30 68.00 66.17
  Q 63.81 67.11 63.61 71.03
  A 1.01 1.00 -4.5 0 1 62.81 71.96
  C 57.95 72.97 50.23 74.85 47.85 79.74
  Q 46.41 82.72 45.90 86.29
  Q 45.56 88.69 47.50 87.23
  Q 48.19 86.70 48.96 86.26
  C 53.07 83.89 64.33 82.53 67.80 85.90
  A 0.80 0.80 0.0 0 1 67.74 87.10
  L 67.52 87.27
  A 0.51 0.51 0.0 0 1 66.86 87.25
  Q 64.31 84.94 60.96 86.18
  Q 60.72 86.27 60.55 86.46
  Q 59.00 88.24 56.77 87.93
  Q 54.56 87.63 56.41 88.87
  Q 56.91 89.20 57.57 89.30
  C 60.39 89.73 61.50 87.43 65.31 88.87
  A 0.53 0.49 86.0 0 1 65.58 89.12
  C 66.11 90.19 62.45 90.17 62.06 90.30
  Q 57.33 91.83 52.45 92.67
  Q 48.96 93.26 52.24 94.58
  Q 53.16 94.95 54.27 94.95
  C 59.92 94.96 71.02 93.22 75.68 97.40
  Q 80.88 102.06 77.61 108.43
  Q 75.80 111.95 78.83 109.41
  Q 79.54 108.82 80.17 108.13
  Q 81.56 106.62 81.89 108.64
  Q 82.55 112.60 81.23 116.73
  C 76.91 130.31 60.38 131.42 49.47 126.02
  Q 44.25 123.44 39.71 119.60
  Q 37.33 117.59 40.44 117.84
  Q 53.97 118.94 66.86 114.71
  A 0.20 0.19 82.3 0 0 67.00 114.52
  L 67.00 114.25
  A 0.25 0.15 -1.7 0 0 66.74 114.11
  Q 47.00 114.84 29.06 106.72
  A 0.97 0.92 85.1 0 1 28.62 106.33
  Q 24.41 99.39 22.28 91.59
  Q 21.53 88.87 23.83 90.52
  Q 34.47 98.18 47.54 101.85
  C 48.81 102.21 48.11 101.41 47.74 101.21
  Q 30.22 91.60 20.43 74.17
  A 1.05 1.02 -58.1 0 1 20.31 73.61
  Q 20.81 66.32 22.95 59.35
  Q 23.82 56.54 24.85 59.29
  Q 28.41 68.84 35.28 76.97
  C 35.88 77.67 36.12 77.07 35.89 76.54
  Q 29.16 61.13 30.57 44.00
  A 1.05 1.01 69.2 0 1 30.82 43.41
  L 38.00 35.42
  Q 39.76 33.47 39.39 36.07
  Q 38.01 45.80 39.37 55.57
  A 0.25 0.24 -84.2 0 0 39.53 55.77
  L 39.79 55.88
  A 0.13 0.12 15.2 0 0 39.96 55.79
  Z
  M 90.25 23.10
  Q 93.47 18.03 89.03 22.08
  Q 87.38 23.59 85.97 25.35
  Q 84.12 27.64 86.98 26.94
  L 89.05 26.44
  A 1.00 0.99 74.5 0 0 89.76 25.17
  L 89.63 24.73
  A 0.99 0.98 -37.6 0 1 89.74 23.90
  L 90.25 23.10
  Z
  M 73.95 54.25
  L 72.16 61.65
  A 1.00 1.00 0.0 0 0 73.32 62.87
  Q 76.40 62.27 79.49 62.14
  Q 79.70 62.13 79.84 62.09
  Q 80.54 61.89 79.93 61.50
  L 77.43 59.92
  A 1.02 1.00 16.9 0 1 76.97 59.08
  Q 76.93 54.85 78.74 50.45
  Q 79.29 49.10 78.13 48.94
  Q 77.88 48.91 77.65 49.00
  L 76.14 49.55
  Q 74.35 50.22 75.14 48.47
  Q 78.77 40.45 84.06 33.39
  Q 84.65 32.61 83.75 33.00
  Q 83.49 33.11 83.18 33.43
  Q 73.69 43.56 68.21 54.22
  C 67.92 54.78 68.46 55.20 69.04 54.84
  Q 70.75 53.78 72.63 53.08
  Q 74.40 52.41 73.95 54.25
  Z
  M 107.25 41.08
  L 108.29 41.49
  A 0.99 0.99 0.0 0 0 109.63 40.79
  Q 110.02 39.13 109.83 37.38
  C 109.81 37.16 109.62 36.93 109.37 37.02
  A 0.30 0.28 -86.4 0 0 109.22 37.16
  L 108.53 38.73
  A 0.99 0.99 0.0 0 1 107.42 39.31
  L 103.18 38.44
  Q 100.69 37.93 102.44 39.78
  Q 104.30 41.74 105.98 44.28
  Q 106.11 44.47 106.22 44.59
  Q 107.07 45.45 106.65 44.31
  L 105.94 42.35
  Q 105.17 40.25 107.25 41.08
  Z"
/>
<path fill="#4b411c" d="
  M 73.51 79.08
  C 84.15 80.57 92.49 82.51 100.17 90.57
  Q 102.33 92.84 104.39 95.19
  Q 106.70 97.83 103.35 96.80
  Q 102.81 96.64 102.29 96.37
  C 101.86 96.15 100.77 96.06 101.50 97.00
  C 106.22 103.17 112.88 108.09 116.23 116.59
  A 1.00 0.98 -30.1 0 1 115.92 117.73
  L 108.97 123.30
  Q 107.17 124.74 107.69 122.49
  Q 109.68 113.96 105.53 105.94
  C 97.87 91.11 86.07 84.61 70.83 79.68
  A 1.02 1.00 -84.3 0 1 70.14 78.82
  Q 69.94 76.65 71.56 74.79
  Q 71.67 74.65 71.74 74.52
  Q 72.40 73.33 71.12 73.79
  L 66.27 75.54
  A 1.00 1.00 0.0 0 1 64.94 74.45
  Q 65.39 71.65 67.14 69.58
  A 1.00 1.00 0.0 0 1 68.77 69.74
  L 68.91 69.99
  A 1.01 1.00 -17.4 0 0 69.88 70.49
  L 79.68 69.57
  Q 82.15 69.34 80.29 70.97
  L 72.99 77.33
  Q 71.34 78.77 73.51 79.08
  Z"
/>
<path fill="#4b411c" d="
  M 124.34 72.95
  L 132.83 75.41
  A 1.01 1.00 9.5 0 1 133.56 76.42
  L 133.26 81.86
  Q 133.15 83.97 131.59 82.54
  Q 124.47 76.00 115.92 71.54
  Q 112.76 69.88 116.32 70.03
  Q 120.91 70.21 125.44 69.25
  A 0.27 0.26 84.1 0 1 125.76 69.52
  L 125.75 69.80
  A 0.64 0.64 0.0 0 1 125.44 70.33
  L 124.11 71.14
  Q 122.14 72.32 124.34 72.95
  Z"
/>
<path fill="#4b411c" d="
  M 129.11 96.66
  A 1.00 1.00 0.0 0 1 129.34 97.83
  L 126.17 104.48
  Q 125.23 106.44 124.35 104.45
  Q 117.44 88.92 101.59 81.47
  C 101.36 81.36 101.11 80.98 101.38 80.79
  A 0.34 0.31 -51.8 0 1 101.67 80.74
  Q 117.10 85.74 129.11 96.66
  Z"
/>
<path fill="#4b411c" d="
  M 95.59 112.49
  Q 96.79 105.60 97.18 112.58
  Q 97.67 121.51 94.67 130.09
  A 1.02 1.00 -86.1 0 1 93.94 130.74
  L 86.10 132.47
  Q 83.09 133.13 85.59 131.32
  Q 90.07 128.08 92.45 122.98
  Q 94.55 118.46 95.59 112.49
  Z"
/>
</svg>
