<svg width="33" height="33" viewBox="0 0 33 33" fill="none" xmlns="http://www.w3.org/2000/svg">
<path d="M28.9083 6.35486C29.6749 7.35932 30.3239 8.45058 30.8421 9.60673L16.1419 20.5889L9.99829 16.6859V11.9904L16.1419 15.8934L28.9083 6.35486Z" fill="#21A038"/>
<path d="M3.72827 16.3545C3.72827 16.1438 3.73334 15.9345 3.74348 15.7264L0.0202772 15.5415C0.00760464 15.8112 4.49931e-06 16.0835 4.49931e-06 16.3583C-0.00157962 18.5055 0.415154 20.6318 1.22631 22.6153C2.03746 24.5989 3.22706 26.4006 4.72687 27.9171L7.36783 25.2419C6.21333 24.0766 5.29746 22.6915 4.67286 21.1663C4.04826 19.6411 3.72725 18.0058 3.72827 16.3545Z" fill="url(#paint0_linear_102_211)"/>
<path d="M16.1385 3.77747C16.3463 3.77747 16.5528 3.78518 16.7581 3.79545L16.9444 0.0208629C16.6775 0.00801981 16.4088 0.00159904 16.1385 0.00159904C14.0188 -0.00102064 11.9196 0.420712 9.96126 1.24258C8.00291 2.06445 6.22405 3.27027 4.72681 4.7908L7.36777 7.4673C8.51766 6.29688 9.8845 5.36835 11.3897 4.73512C12.8949 4.10189 14.5087 3.77643 16.1385 3.77747Z" fill="url(#paint1_linear_102_211)"/>
<path d="M16.1385 28.9318C15.9307 28.9318 15.7241 28.9318 15.5176 28.9151L15.3313 32.6884C15.5991 32.7021 15.8682 32.709 16.1385 32.709C18.2573 32.7112 20.3555 32.2892 22.3128 31.4671C24.2701 30.645 26.0478 29.439 27.5439 27.9185L24.908 25.2433C23.7579 26.4131 22.3912 27.3411 20.8863 27.9741C19.3814 28.6071 17.7679 28.9326 16.1385 28.9318Z" fill="url(#paint2_linear_102_211)"/>
<path d="M23.1339 5.97207L26.2716 3.6282C23.4037 1.27465 19.8238 -0.0065332 16.1335 2.50536e-05V3.77718C18.6324 3.77404 21.0733 4.53938 23.1339 5.97207Z" fill="url(#paint3_linear_102_211)"/>
<path d="M32.2759 16.3545C32.2779 15.3719 32.1931 14.391 32.0224 13.4237L28.5489 16.018C28.5489 16.1298 28.5489 16.2415 28.5489 16.3545C28.5498 18.1118 28.1863 19.8497 27.4821 21.4555C26.7778 23.0613 25.7484 24.4992 24.4607 25.676L26.9661 28.4823C28.6402 26.9506 29.978 25.0795 30.8927 22.9903C31.8075 20.901 32.2787 18.6402 32.2759 16.3545Z" fill="#21A038"/>
<path d="M16.1386 28.9318C14.4045 28.9324 12.6896 28.5639 11.1049 27.8502C9.52028 27.1365 8.10119 26.0934 6.93956 24.7886L4.17188 27.3264C5.68303 29.0233 7.52923 30.3793 9.59077 31.3066C11.6523 32.2338 13.8831 32.7116 16.1386 32.7089V28.9318Z" fill="url(#paint4_linear_102_211)"/>
<path d="M7.81645 7.0329L5.31235 4.22668C3.63776 5.75806 2.29948 7.62906 1.3843 9.71834C0.469132 11.8076 -0.00249507 14.0685 9.92661e-06 16.3544H3.72828C3.72751 14.5972 4.09104 12.8593 4.79529 11.2535C5.49955 9.64775 6.52883 8.20981 7.81645 7.0329Z" fill="url(#paint5_linear_102_211)"/>
<defs>
<linearGradient id="paint0_linear_102_211" x1="5.48089" y1="27.4458" x2="1.30964" y2="15.5477" gradientUnits="userSpaceOnUse">
<stop offset="0.14" stop-color="#F1E813"/>
<stop offset="0.3" stop-color="#E6E418"/>
<stop offset="0.58" stop-color="#C9DA26"/>
<stop offset="0.89" stop-color="#A2CC39"/>
</linearGradient>
<linearGradient id="paint1_linear_102_211" x1="5.7913" y1="5.45864" x2="16.3181" y2="1.50029" gradientUnits="userSpaceOnUse">
<stop offset="0.06" stop-color="#0FA7DF"/>
<stop offset="0.54" stop-color="#0098F8"/>
<stop offset="0.92" stop-color="#0290EA"/>
</linearGradient>
<linearGradient id="paint2_linear_102_211" x1="15.0855" y1="30.4293" x2="26.9647" y2="27.7813" gradientUnits="userSpaceOnUse">
<stop offset="0.12" stop-color="#A2CC39"/>
<stop offset="0.28" stop-color="#86C239"/>
<stop offset="0.87" stop-color="#219F38"/>
</linearGradient>
<linearGradient id="paint3_linear_102_211" x1="15.358" y1="1.26507" x2="25.5244" y2="4.36073" gradientUnits="userSpaceOnUse">
<stop offset="0.06" stop-color="#0290EA"/>
<stop offset="0.79" stop-color="#0C89CA"/>
</linearGradient>
<linearGradient id="paint4_linear_102_211" x1="5.10711" y1="26.8666" x2="16.1833" y2="30.9512" gradientUnits="userSpaceOnUse">
<stop offset="0.13" stop-color="#F1E813"/>
<stop offset="0.3" stop-color="#EAE616"/>
<stop offset="0.53" stop-color="#D8DF1F"/>
<stop offset="0.8" stop-color="#BAD52D"/>
<stop offset="0.98" stop-color="#A2CC39"/>
</linearGradient>
<linearGradient id="paint5_linear_102_211" x1="1.38892" y1="16.8116" x2="5.92478" y2="5.16889" gradientUnits="userSpaceOnUse">
<stop offset="0.07" stop-color="#A2CC39"/>
<stop offset="0.26" stop-color="#81C45E"/>
<stop offset="0.92" stop-color="#0FA7DF"/>
</linearGradient>
</defs>
</svg>
