<?xml version="1.0" encoding="UTF-8" standalone="no"?>
<!DOCTYPE svg PUBLIC "-//W3C//DTD SVG 1.1//EN" "http://www.w3.org/Graphics/SVG/1.1/DTD/svg11.dtd">
<svg xmlns="http://www.w3.org/2000/svg" version="1.1" viewBox="0 0 1042 1285">
<g stroke-width="2.00" fill="none" stroke-linecap="butt">
<path stroke="#e33b3c" vector-effect="non-scaling-stroke" d="
  M 1041.32 367.41
  L 1041.00 367.14
  A 1.01 1.00 64.5 0 0 1040.36 366.91
  L 744.35 367.27
  Q 744.19 367.27 744.04 367.22
  L 743.50 367.04"
/>
<path stroke="#f4931f" vector-effect="non-scaling-stroke" d="
  M 596.25 277.04
  Q 519.42 139.81 442.88 2.41
  C 442.54 1.79 442.25 1.70 441.75 1.29"
/>
<path stroke="#ea5f35" vector-effect="non-scaling-stroke" d="
  M 597.29 457.00
  L 597.45 483.19"
/>
<path stroke="#ea5f35" vector-effect="non-scaling-stroke" d="
  M 597.45 483.19
  L 597.32 513.25"
/>
<path stroke="#ea5f35" vector-effect="non-scaling-stroke" d="
  M 597.32 513.25
  L 597.54 638.75"
/>
<path stroke="#879f71" vector-effect="non-scaling-stroke" d="
  M 597.71 645.50
  Q 597.17 645.56 596.73 645.29
  Q 519.11 597.79 441.71 550.05"
/>
<path stroke="#386fb6" vector-effect="non-scaling-stroke" d="
  M 1.54 280.75
  Q 0.85 281.06 1.06 281.44
  Q 78.25 419.38 155.41 557.33
  Q 155.52 557.53 155.54 557.75"
/>
<path stroke="#7a509c" vector-effect="non-scaling-stroke" d="
  M 155.75 727.54
  Q 79.23 864.24 2.71 1000.93
  C 2.09 1002.03 1.16 1002.86 0.29 1003.75"
/>
<path stroke="#9a2f7a" vector-effect="non-scaling-stroke" d="
  M 0.21 757.50
  L 0.00 712.44"
/>
<path stroke="#0b8380" vector-effect="non-scaling-stroke" d="
  M 1040.75 918.04
  C 1039.89 917.83 1039.65 917.51 1038.73 917.51
  C 940.14 917.39 845.17 918.13 742.79 918.00"
/>
<path stroke="#3c9d7c" vector-effect="non-scaling-stroke" d="
  M 598.00 829.21
  L 470.00 750.54"
/>
<path stroke="#77478d" vector-effect="non-scaling-stroke" d="
  M 470.00 750.54
  L 457.25 742.79"
/>
<path stroke="#5668af" vector-effect="non-scaling-stroke" d="
  M 442.75 733.96
  L 293.75 642.54"
/>
<path stroke="#d90751" vector-effect="non-scaling-stroke" d="
  M 597.32 513.25
  Q 598.30 498.22 597.45 483.19"
/>
<path stroke="#7e7e62" vector-effect="non-scaling-stroke" d="
  M 442.50 734.46
  L 441.50 734.96"
/>
<path stroke="#9e5d40" vector-effect="non-scaling-stroke" d="
  M 457.21 743.25
  L 469.49 750.81
  A 0.25 0.25 0.0 0 0 469.83 750.75
  L 470.00 750.54"
/>
<path stroke="#329933" vector-effect="non-scaling-stroke" d="
  M 597.54 1006.00
  Q 597.60 1006.46 597.28 1007.04
  Q 562.58 1068.85 442.72 1282.95
  A 0.48 0.47 7.0 0 1 442.41 1283.19
  Q 442.02 1283.30 441.79 1283.00"
/>
</g>
<path fill="#ed6f26" d="
  M 1041.32 367.41
  L 1041.00 367.14
  A 1.01 1.00 64.5 0 0 1040.36 366.91
  L 744.35 367.27
  Q 744.19 367.27 744.04 367.22
  L 743.50 367.04
  L 597.79 278.58
  Q 597.58 278.45 597.45 278.23
  Q 597.01 277.47 596.25 277.04
  Q 519.42 139.81 442.88 2.41
  C 442.54 1.79 442.25 1.70 441.75 1.29
  Q 441.22 0.81 441.69 0.42
  A 0.51 0.50 -48.2 0 1 442.29 0.38
  Q 741.93 183.53 1041.54 366.73
  Q 1041.84 366.91 1041.32 367.41
  Z"
/>
<path fill="#fab718" d="
  M 441.75 1.29
  C 442.25 1.70 442.54 1.79 442.88 2.41
  Q 519.42 139.81 596.25 277.04
  Q 596.52 277.76 596.52 278.50
  Q 597.04 367.75 597.29 457.00
  L 597.45 483.19
  L 597.32 513.25
  L 597.54 638.75
  L 597.71 645.50
  Q 597.17 645.56 596.73 645.29
  Q 519.11 597.79 441.71 550.05
  L 441.75 1.29
  Z"
/>
<path fill="#5b57a2" d="
  M 1.54 280.75
  Q 0.85 281.06 1.06 281.44
  Q 78.25 419.38 155.41 557.33
  Q 155.52 557.53 155.54 557.75
  L 155.75 727.54
  Q 79.23 864.24 2.71 1000.93
  C 2.09 1002.03 1.16 1002.86 0.29 1003.75
  L 0.21 757.50
  L 0.00 712.44
  L 0.00 280.69
  Q 0.79 279.35 1.54 280.75
  Z"
/>
<path fill="#1487c9" d="
  M 1.54 280.75
  L 440.98 549.83
  Q 441.12 549.92 441.29 549.96
  L 441.71 550.05
  Q 519.11 597.79 596.73 645.29
  Q 597.17 645.56 597.71 645.50
  C 597.64 646.48 1003.07 894.24 1040.70 917.30
  Q 1041.24 917.63 1040.75 918.04
  C 1039.89 917.83 1039.65 917.51 1038.73 917.51
  C 940.14 917.39 845.17 918.13 742.79 918.00
  L 598.00 829.21
  L 470.00 750.54
  L 457.25 742.79
  L 442.75 733.96
  L 293.75 642.54
  L 155.54 557.75
  Q 155.52 557.53 155.41 557.33
  Q 78.25 419.38 1.06 281.44
  Q 0.85 281.06 1.54 280.75
  Z"
/>
<path fill="#d90751" d="
  M 743.50 367.04
  L 744.04 367.22
  Q 744.19 367.27 744.35 367.27
  L 1040.36 366.91
  A 1.01 1.00 64.5 0 1 1041.00 367.14
  L 1041.32 367.41
  Q 820.19 502.86 598.93 638.10
  Q 598.29 638.50 597.54 638.75
  L 597.32 513.25
  Q 598.30 498.22 597.45 483.19
  L 597.29 457.00
  L 743.34 367.50
  A 0.26 0.25 80.3 0 0 743.46 367.32
  L 743.50 367.04
  Z"
/>
<path fill="#d90751" d="
  M 597.32 513.25
  L 597.45 483.19
  Q 598.30 498.22 597.32 513.25
  Z"
/>
<path fill="#984995" d="
  M 293.75 642.54
  L 442.75 733.96
  L 442.50 734.46
  L 441.50 734.96
  Q 221.31 869.61 1.26 1004.49
  C 0.54 1004.93 -0.03 1004.86 0.29 1003.75
  C 1.16 1002.86 2.09 1002.03 2.71 1000.93
  Q 79.23 864.24 155.75 727.54
  Q 254.74 666.72 293.06 643.31
  Q 293.65 642.95 293.75 642.54
  Z"
/>
<path fill="#d90751" d="
  M 0.00 712.44
  L 0.21 757.50
  L 0.00 757.44
  L 0.00 712.44
  Z"
/>
<path fill="#63b22f" d="
  M 442.50 734.46
  L 457.21 743.25
  L 469.49 750.81
  A 0.25 0.25 0.0 0 0 469.83 750.75
  L 470.00 750.54
  L 598.00 829.21
  Q 597.17 829.63 597.69 830.31
  Q 597.95 918.16 597.54 1006.00
  Q 597.60 1006.46 597.28 1007.04
  Q 562.58 1068.85 442.72 1282.95
  A 0.48 0.47 7.0 0 1 442.41 1283.19
  Q 442.02 1283.30 441.79 1283.00
  Q 441.72 1011.00 441.78 739.00
  Q 441.79 736.98 441.50 734.96
  L 442.50 734.46
  Z"
/>
<path fill="#d90751" d="
  M 457.25 742.79
  L 470.00 750.54
  L 469.83 750.75
  A 0.25 0.25 0.0 0 1 469.49 750.81
  L 457.21 743.25
  L 457.25 742.79
  Z"
/>
<path fill="#017f36" d="
  M 1040.75 918.04
  L 442.88 1284.27
  Q 441.34 1285.21 441.67 1283.44
  Q 441.71 1283.24 441.79 1283.00
  Q 442.02 1283.30 442.41 1283.19
  A 0.48 0.47 7.0 0 0 442.72 1282.95
  Q 562.58 1068.85 597.28 1007.04
  Q 597.60 1006.46 597.54 1006.00
  L 597.74 1006.23
  A 0.41 0.40 53.3 0 0 598.26 1006.31
  C 610.86 998.64 742.77 918.90 742.79 918.00
  C 845.17 918.13 940.14 917.39 1038.73 917.51
  C 1039.65 917.51 1039.89 917.83 1040.75 918.04
  Z"
/>
</svg>
