<svg width="224" height="211" viewBox="0 0 224 211" fill="none" xmlns="http://www.w3.org/2000/svg">
<path d="M191.25 178.22C191.384 178.217 191.511 178.164 191.604 178.07C191.698 177.977 191.75 177.851 191.75 177.72V0.5C191.75 0.166667 191.917 0 192.25 0H222.75C223.083 0 223.25 0.166667 223.25 0.5V209.74C223.25 210.06 223.09 210.22 222.77 210.22C176.07 210.293 129.4 210.287 82.76 210.2C37.13 210.12 2.93003 184.52 0.230033 136.93C0.210033 136.65 0.206705 129.987 0.220038 116.94C0.260038 78.26 0.266709 39.5433 0.240042 0.790001C0.240042 0.263334 0.503369 0 1.03004 0H31.19C31.5167 0 31.6834 0.163331 31.69 0.489998C31.87 45.6833 31.8 90.85 31.48 135.99C31.4667 138.203 32.08 141.76 33.32 146.66C40.22 173.9 64.33 178.15 88.48 178.21C122.76 178.29 157.017 178.293 191.25 178.22Z" fill="#F06E32"/>
</svg>
