<?xml version="1.0" encoding="UTF-8" standalone="no"?>
<!DOCTYPE svg PUBLIC "-//W3C//DTD SVG 1.1//EN" "http://www.w3.org/Graphics/SVG/1.1/DTD/svg11.dtd">
<svg xmlns="http://www.w3.org/2000/svg" version="1.1" viewBox="0 0 247 247">
<g stroke-width="2.00" fill="none" stroke-linecap="butt">
<path stroke="#f1808d" vector-effect="non-scaling-stroke" d="
  M 203.18 29.99
  C 201.62 30.87 201.00 30.35 199.53 30.33
  Q 159.02 29.60 118.74 33.94
  C 114.55 34.40 102.93 36.74 107.29 43.81
  Q 108.35 45.52 111.42 47.36
  Q 120.22 52.60 128.84 58.16
  Q 131.14 59.64 129.48 62.50
  Q 128.25 64.60 126.78 66.54
  C 113.00 84.78 98.72 102.81 85.51 121.46
  Q 57.03 161.64 28.79 202.00"
/>
<path stroke="#f1808d" vector-effect="non-scaling-stroke" d="
  M 231.79 39.75
  C 234.67 51.38 223.08 59.36 215.69 66.20
  C 161.77 116.00 106.36 163.68 47.17 207.16
  Q 39.49 212.80 31.60 218.10
  Q 27.08 221.13 22.73 218.53"
/>
</g>
<path fill="#e2001a" d="
  M 203.18 29.99
  C 201.62 30.87 201.00 30.35 199.53 30.33
  Q 159.02 29.60 118.74 33.94
  C 114.55 34.40 102.93 36.74 107.29 43.81
  Q 108.35 45.52 111.42 47.36
  Q 120.22 52.60 128.84 58.16
  Q 131.14 59.64 129.48 62.50
  Q 128.25 64.60 126.78 66.54
  C 113.00 84.78 98.72 102.81 85.51 121.46
  Q 57.03 161.64 28.79 202.00
  C 4.18 170.74 -5.13 132.61 4.25 94.00
  C 16.24 44.64 59.59 6.33 110.89 1.42
  Q 162.59 -3.53 203.18 29.99
  Z"
/>
<path fill="#ffffff" d="
  M 203.18 29.99
  Q 214.30 30.80 223.00 32.50
  Q 229.25 33.72 231.79 39.75
  C 234.67 51.38 223.08 59.36 215.69 66.20
  C 161.77 116.00 106.36 163.68 47.17 207.16
  Q 39.49 212.80 31.60 218.10
  Q 27.08 221.13 22.73 218.53
  C 19.23 212.87 25.82 206.73 28.79 202.00
  Q 57.03 161.64 85.51 121.46
  C 98.72 102.81 113.00 84.78 126.78 66.54
  Q 128.25 64.60 129.48 62.50
  Q 131.14 59.64 128.84 58.16
  Q 120.22 52.60 111.42 47.36
  Q 108.35 45.52 107.29 43.81
  C 102.93 36.74 114.55 34.40 118.74 33.94
  Q 159.02 29.60 199.53 30.33
  C 201.00 30.35 201.62 30.87 203.18 29.99
  Z"
/>
<path fill="#e2001a" d="
  M 231.79 39.75
  C 241.41 48.29 241.81 56.91 233.04 66.29
  A 1.02 1.01 53.4 0 0 232.88 67.43
  C 267.07 135.73 232.87 219.82 158.43 241.42
  C 120.68 252.38 80.62 245.14 49.28 221.43
  A 1.00 1.00 0.0 0 0 48.10 221.41
  C 42.14 225.61 35.29 231.97 30.83 228.43
  Q 25.70 224.36 22.73 218.53
  Q 27.08 221.13 31.60 218.10
  Q 39.49 212.80 47.17 207.16
  C 106.36 163.68 161.77 116.00 215.69 66.20
  C 223.08 59.36 234.67 51.38 231.79 39.75
  Z"
/>
</svg>
