<?xml version="1.0" encoding="UTF-8" standalone="no"?>
<!DOCTYPE svg PUBLIC "-//W3C//DTD SVG 1.1//EN" "http://www.w3.org/Graphics/SVG/1.1/DTD/svg11.dtd">
<svg xmlns="http://www.w3.org/2000/svg" version="1.1" viewBox="0 0 777 477">
<path fill="#009fdf" d="
  M 174.06 0.00
  L 776.62 0.02
  L 733.58 118.59
  A 1.00 1.00 0.0 0 1 732.64 119.25
  L 131.86 119.25
  A 1.00 1.00 0.0 0 1 130.92 117.91
  L 174.06 0.00
  Z"
/>
<path fill="#009fdf" d="
  M 683.43 256.11
  Q 675.99 276.60 668.20 297.11
  A 1.01 1.01 0.0 0 1 667.26 297.75
  L 66.60 297.75
  A 1.00 1.00 0.0 0 1 65.66 296.41
  L 108.39 179.41
  A 1.00 1.00 0.0 0 1 109.33 178.75
  L 710.16 178.75
  A 1.00 1.00 0.0 0 1 711.10 180.09
  Q 697.24 218.06 683.43 256.11
  Z"
/>
<path fill="#009fdf" d="
  M 43.70 357.50
  L 645.92 357.50
  A 0.33 0.33 0.0 0 1 646.23 357.94
  L 603.03 476.28
  A 0.33 0.33 0.0 0 1 602.72 476.50
  L 0.47 476.50
  A 0.33 0.33 0.0 0 1 0.16 476.06
  L 43.39 357.72
  A 0.33 0.33 0.0 0 1 43.70 357.50
  Z"
/>
</svg>
