<?xml version="1.0" encoding="UTF-8" standalone="no"?>
<!DOCTYPE svg PUBLIC "-//W3C//DTD SVG 1.1//EN" "http://www.w3.org/Graphics/SVG/1.1/DTD/svg11.dtd">
<svg xmlns="http://www.w3.org/2000/svg" version="1.1" viewBox="0 0 174 264">
<path fill="#06377b" d="
  M 83.98 0.00
  L 89.81 0.00
  L 89.95 87.02
  A 1.01 0.99 2.5 0 0 90.87 88.01
  L 96.19 88.48
  A 1.01 1.00 2.1 0 0 97.28 87.47
  L 96.67 37.26
  A 1.00 1.00 0.0 0 1 97.67 36.25
  L 102.71 36.24
  A 1.00 1.00 0.0 0 1 103.71 37.23
  Q 104.02 63.33 105.84 89.37
  A 1.00 1.00 0.0 0 0 106.59 90.27
  C 180.99 109.75 198.07 204.99 135.32 249.06
  A 1.00 1.00 0.0 0 1 134.00 248.91
  Q 124.62 238.41 118.96 225.01
  C 105.36 192.83 99.84 154.99 98.21 122.40
  A 1.00 1.00 0.0 0 1 99.37 121.36
  L 109.03 122.95
  A 1.00 1.00 0.0 0 1 109.85 123.78
  C 114.43 151.77 124.24 179.21 140.32 202.69
  Q 146.46 211.65 154.02 219.21
  A 1.00 1.00 0.0 0 0 155.58 219.03
  Q 173.85 189.34 161.03 159.41
  C 152.72 140.02 133.96 125.48 114.07 119.41
  C 82.18 109.68 44.62 117.41 22.29 143.78
  C 9.50 158.88 4.17 178.80 9.02 198.03
  Q 11.84 209.17 18.31 219.09
  A 1.01 1.00 -39.3 0 0 19.87 219.24
  Q 33.50 205.13 42.64 187.65
  Q 58.40 157.50 63.93 123.83
  A 1.01 1.00 -0.8 0 1 64.74 123.00
  L 74.38 121.34
  A 1.00 1.00 0.0 0 1 75.55 122.37
  Q 73.75 164.50 62.21 204.91
  C 57.81 220.32 50.79 237.11 39.78 249.01
  A 1.01 1.00 -51.0 0 1 38.46 249.15
  Q 3.12 223.78 0.00 179.94
  L 0.00 172.19
  C 2.16 132.40 28.53 100.12 67.20 90.34
  A 0.99 0.98 85.2 0 0 67.95 89.45
  Q 69.90 63.38 70.05 37.25
  A 1.00 1.00 0.0 0 1 71.05 36.25
  L 76.08 36.25
  A 1.00 1.00 0.0 0 1 77.08 37.26
  L 76.58 87.41
  A 1.01 1.00 -1.8 0 0 77.66 88.42
  L 82.76 88.03
  A 1.01 1.00 -1.9 0 0 83.69 87.04
  L 83.98 0.00
  Z"
/>
<path fill="#06377b" d="
  M 91.19 264.00
  L 82.44 264.00
  Q 71.58 263.24 60.93 260.24
  A 1.00 1.00 0.0 0 1 60.32 258.81
  C 73.18 234.22 76.68 201.97 78.98 174.75
  Q 81.22 148.28 82.16 121.71
  A 1.00 1.00 0.0 0 1 83.16 120.75
  L 90.74 120.75
  A 1.00 0.99 89.1 0 1 91.73 121.72
  C 92.80 156.97 95.09 192.86 102.41 227.31
  Q 105.96 244.02 113.18 258.72
  A 1.00 1.00 0.0 0 1 112.59 260.12
  Q 102.16 263.39 91.19 264.00
  Z"
/>
</svg>
